{
	"asset":{
		"generator":"Khronos glTF Blender I/O v4.0.44",
		"version":"2.0"
	},
	"extensionsUsed":[
		"KHR_materials_specular"
	],
	"scene":0,
	"scenes":[
		{
			"name":"Scene",
			"nodes":[
				9
			]
		}
	],
	"nodes":[
		{
			"mesh":0,
			"name":"0:lupine",
			"translation":[
				3.200000047683716,
				0,
				0
			]
		},
		{
			"mesh":1,
			"name":"1:paintbrush",
			"translation":[
				3.200000047683716,
				0,
				0
			]
		},
		{
			"mesh":2,
			"name":"2:yarrow",
			"translation":[
				3.200000047683716,
				0,
				0
			]
		},
		{
			"mesh":3,
			"name":"3:columbine",
			"translation":[
				3.200000047683716,
				0,
				0
			]
		},
		{
			"mesh":4,
			"name":"4:thistle",
			"translation":[
				3.200000047683716,
				0,
				0
			]
		},
		{
			"mesh":5,
			"name":"5:yucca",
			"translation":[
				3.200000047683716,
				0,
				0
			]
		},
		{
			"mesh":6,
			"name":"6:snowdrops",
			"translation":[
				3.200000047683716,
				0,
				0
			]
		},
		{
			"mesh":7,
			"name":"7:violets",
			"translation":[
				3.200000047683716,
				0,
				0
			]
		},
		{
			"mesh":8,
			"name":"8:marsh marigold",
			"translation":[
				3.200000047683716,
				0,
				0
			]
		},
		{
			"children":[
				0,
				1,
				2,
				3,
				4,
				5,
				6,
				7,
				8
			],
			"name":"RootNode"
		}
	],
	"materials":[
		{
			"doubleSided":true,
			"extensions":{
				"KHR_materials_specular":{
					"specularColorFactor":[
						0.800000011920929,
						0.800000011920929,
						0.800000011920929
					]
				}
			},
			"name":"tripo_1566b070_2c22_4a8d_9905_0a242aa47d32",
			"pbrMetallicRoughness":{
				"baseColorFactor":[
					0.800000011920929,
					0.800000011920929,
					0.800000011920929,
					1
				],
				"baseColorTexture":{
					"index":0
				},
				"metallicFactor":0,
				"roughnessFactor":0.5
			}
		}
	],
	"meshes":[
		{
			"name":"tripo_1566b070_2c22_4a8d_9905_0a242aa47d32.001",
			"primitives":[
				{
					"attributes":{
						"POSITION":0,
						"NORMAL":1,
						"TEXCOORD_0":2
					},
					"indices":3,
					"material":0
				}
			]
		},
		{
			"name":"tripo_1566b070_2c22_4a8d_9905_0a242aa47d32.002",
			"primitives":[
				{
					"attributes":{
						"POSITION":4,
						"NORMAL":5,
						"TEXCOORD_0":6
					},
					"indices":7,
					"material":0
				}
			]
		},
		{
			"name":"tripo_1566b070_2c22_4a8d_9905_0a242aa47d32.003",
			"primitives":[
				{
					"attributes":{
						"POSITION":8,
						"NORMAL":9,
						"TEXCOORD_0":10
					},
					"indices":11,
					"material":0
				}
			]
		},
		{
			"name":"tripo_1566b070_2c22_4a8d_9905_0a242aa47d32.004",
			"primitives":[
				{
					"attributes":{
						"POSITION":12,
						"NORMAL":13,
						"TEXCOORD_0":14
					},
					"indices":15,
					"material":0
				}
			]
		},
		{
			"name":"tripo_1566b070_2c22_4a8d_9905_0a242aa47d32.005",
			"primitives":[
				{
					"attributes":{
						"POSITION":16,
						"NORMAL":17,
						"TEXCOORD_0":18
					},
					"indices":19,
					"material":0
				}
			]
		},
		{
			"name":"tripo_1566b070_2c22_4a8d_9905_0a242aa47d32.006",
			"primitives":[
				{
					"attributes":{
						"POSITION":20,
						"NORMAL":21,
						"TEXCOORD_0":22
					},
					"indices":23,
					"material":0
				}
			]
		},
		{
			"name":"tripo_1566b070_2c22_4a8d_9905_0a242aa47d32.007",
			"primitives":[
				{
					"attributes":{
						"POSITION":24,
						"NORMAL":25,
						"TEXCOORD_0":26
					},
					"indices":27,
					"material":0
				}
			]
		},
		{
			"name":"tripo_1566b070_2c22_4a8d_9905_0a242aa47d32.008",
			"primitives":[
				{
					"attributes":{
						"POSITION":28,
						"NORMAL":29,
						"TEXCOORD_0":30
					},
					"indices":31,
					"material":0
				}
			]
		},
		{
			"name":"tripo_1566b070_2c22_4a8d_9905_0a242aa47d32.009",
			"primitives":[
				{
					"attributes":{
						"POSITION":32,
						"NORMAL":33,
						"TEXCOORD_0":34
					},
					"indices":35,
					"material":0
				}
			]
		}
	],
	"textures":[
		{
			"sampler":0,
			"source":0
		}
	],
	"images":[
		{
			"mimeType":"image/jpeg",
			"name":"flowers",
			"uri":"flowers.jpg"
		}
	],
	"accessors":[
		{
			"bufferView":0,
			"componentType":5126,
			"count":8724,
			"max":[
				0.10302734375,
				0.24169921875,
				0.0712890699505806
			],
			"min":[
				-0.10302734375,
				0,
				-0.0712890699505806
			],
			"type":"VEC3"
		},
		{
			"bufferView":1,
			"componentType":5126,
			"count":8724,
			"type":"VEC3"
		},
		{
			"bufferView":2,
			"componentType":5126,
			"count":8724,
			"type":"VEC2"
		},
		{
			"bufferView":3,
			"componentType":5123,
			"count":18282,
			"type":"SCALAR"
		},
		{
			"bufferView":4,
			"componentType":5126,
			"count":2638,
			"max":[
				0.098876953125,
				0.23681640625,
				0.0935058668255806
			],
			"min":[
				-0.098876953125,
				0,
				-0.0935058668255806
			],
			"type":"VEC3"
		},
		{
			"bufferView":5,
			"componentType":5126,
			"count":2638,
			"type":"VEC3"
		},
		{
			"bufferView":6,
			"componentType":5126,
			"count":2638,
			"type":"VEC2"
		},
		{
			"bufferView":7,
			"componentType":5123,
			"count":5496,
			"type":"SCALAR"
		},
		{
			"bufferView":8,
			"componentType":5126,
			"count":10367,
			"max":[
				0.1083984375,
				0.2373046875,
				0.11962890625
			],
			"min":[
				-0.1083984375,
				0,
				-0.11962890625
			],
			"type":"VEC3"
		},
		{
			"bufferView":9,
			"componentType":5126,
			"count":10367,
			"type":"VEC3"
		},
		{
			"bufferView":10,
			"componentType":5126,
			"count":10367,
			"type":"VEC2"
		},
		{
			"bufferView":11,
			"componentType":5123,
			"count":25047,
			"type":"SCALAR"
		},
		{
			"bufferView":12,
			"componentType":5126,
			"count":4648,
			"max":[
				0.111328125,
				0.24365234375,
				0.1162109225988388
			],
			"min":[
				-0.111328125,
				0,
				-0.1162109225988388
			],
			"type":"VEC3"
		},
		{
			"bufferView":13,
			"componentType":5126,
			"count":4648,
			"type":"VEC3"
		},
		{
			"bufferView":14,
			"componentType":5126,
			"count":4648,
			"type":"VEC2"
		},
		{
			"bufferView":15,
			"componentType":5123,
			"count":10158,
			"type":"SCALAR"
		},
		{
			"bufferView":16,
			"componentType":5126,
			"count":4851,
			"max":[
				0.1020507961511612,
				0.23583984375,
				0.10302734375
			],
			"min":[
				-0.1020507961511612,
				0,
				-0.10302734375
			],
			"type":"VEC3"
		},
		{
			"bufferView":17,
			"componentType":5126,
			"count":4851,
			"type":"VEC3"
		},
		{
			"bufferView":18,
			"componentType":5126,
			"count":4851,
			"type":"VEC2"
		},
		{
			"bufferView":19,
			"componentType":5123,
			"count":10569,
			"type":"SCALAR"
		},
		{
			"bufferView":20,
			"componentType":5126,
			"count":1680,
			"max":[
				0.11865234375,
				0.2265625,
				0.1447754055261612
			],
			"min":[
				-0.11865234375,
				0,
				-0.1447754055261612
			],
			"type":"VEC3"
		},
		{
			"bufferView":21,
			"componentType":5126,
			"count":1680,
			"type":"VEC3"
		},
		{
			"bufferView":22,
			"componentType":5126,
			"count":1680,
			"type":"VEC2"
		},
		{
			"bufferView":23,
			"componentType":5123,
			"count":4026,
			"type":"SCALAR"
		},
		{
			"bufferView":24,
			"componentType":5126,
			"count":6858,
			"max":[
				0.109619140625,
				0.2353515625,
				0.181396484375
			],
			"min":[
				-0.109619140625,
				0,
				-0.181396484375
			],
			"type":"VEC3"
		},
		{
			"bufferView":25,
			"componentType":5126,
			"count":6858,
			"type":"VEC3"
		},
		{
			"bufferView":26,
			"componentType":5126,
			"count":6858,
			"type":"VEC2"
		},
		{
			"bufferView":27,
			"componentType":5123,
			"count":17895,
			"type":"SCALAR"
		},
		{
			"bufferView":28,
			"componentType":5126,
			"count":5063,
			"max":[
				0.103759765625,
				0.21826171875,
				0.115478515625
			],
			"min":[
				-0.103759765625,
				0,
				-0.115478515625
			],
			"type":"VEC3"
		},
		{
			"bufferView":29,
			"componentType":5126,
			"count":5063,
			"type":"VEC3"
		},
		{
			"bufferView":30,
			"componentType":5126,
			"count":5063,
			"type":"VEC2"
		},
		{
			"bufferView":31,
			"componentType":5123,
			"count":11814,
			"type":"SCALAR"
		},
		{
			"bufferView":32,
			"componentType":5126,
			"count":10417,
			"max":[
				0.119384765625,
				0.23193359375,
				0.1162109375
			],
			"min":[
				-0.119384765625,
				0,
				-0.1162109375
			],
			"type":"VEC3"
		},
		{
			"bufferView":33,
			"componentType":5126,
			"count":10417,
			"type":"VEC3"
		},
		{
			"bufferView":34,
			"componentType":5126,
			"count":10417,
			"type":"VEC2"
		},
		{
			"bufferView":35,
			"componentType":5123,
			"count":22752,
			"type":"SCALAR"
		}
	],
	"bufferViews":[
		{
			"buffer":0,
			"byteLength":104688,
			"byteOffset":0,
			"target":34962
		},
		{
			"buffer":0,
			"byteLength":104688,
			"byteOffset":104688,
			"target":34962
		},
		{
			"buffer":0,
			"byteLength":69792,
			"byteOffset":209376,
			"target":34962
		},
		{
			"buffer":0,
			"byteLength":36564,
			"byteOffset":279168,
			"target":34963
		},
		{
			"buffer":0,
			"byteLength":31656,
			"byteOffset":315732,
			"target":34962
		},
		{
			"buffer":0,
			"byteLength":31656,
			"byteOffset":347388,
			"target":34962
		},
		{
			"buffer":0,
			"byteLength":21104,
			"byteOffset":379044,
			"target":34962
		},
		{
			"buffer":0,
			"byteLength":10992,
			"byteOffset":400148,
			"target":34963
		},
		{
			"buffer":0,
			"byteLength":124404,
			"byteOffset":411140,
			"target":34962
		},
		{
			"buffer":0,
			"byteLength":124404,
			"byteOffset":535544,
			"target":34962
		},
		{
			"buffer":0,
			"byteLength":82936,
			"byteOffset":659948,
			"target":34962
		},
		{
			"buffer":0,
			"byteLength":50094,
			"byteOffset":742884,
			"target":34963
		},
		{
			"buffer":0,
			"byteLength":55776,
			"byteOffset":792980,
			"target":34962
		},
		{
			"buffer":0,
			"byteLength":55776,
			"byteOffset":848756,
			"target":34962
		},
		{
			"buffer":0,
			"byteLength":37184,
			"byteOffset":904532,
			"target":34962
		},
		{
			"buffer":0,
			"byteLength":20316,
			"byteOffset":941716,
			"target":34963
		},
		{
			"buffer":0,
			"byteLength":58212,
			"byteOffset":962032,
			"target":34962
		},
		{
			"buffer":0,
			"byteLength":58212,
			"byteOffset":1020244,
			"target":34962
		},
		{
			"buffer":0,
			"byteLength":38808,
			"byteOffset":1078456,
			"target":34962
		},
		{
			"buffer":0,
			"byteLength":21138,
			"byteOffset":1117264,
			"target":34963
		},
		{
			"buffer":0,
			"byteLength":20160,
			"byteOffset":1138404,
			"target":34962
		},
		{
			"buffer":0,
			"byteLength":20160,
			"byteOffset":1158564,
			"target":34962
		},
		{
			"buffer":0,
			"byteLength":13440,
			"byteOffset":1178724,
			"target":34962
		},
		{
			"buffer":0,
			"byteLength":8052,
			"byteOffset":1192164,
			"target":34963
		},
		{
			"buffer":0,
			"byteLength":82296,
			"byteOffset":1200216,
			"target":34962
		},
		{
			"buffer":0,
			"byteLength":82296,
			"byteOffset":1282512,
			"target":34962
		},
		{
			"buffer":0,
			"byteLength":54864,
			"byteOffset":1364808,
			"target":34962
		},
		{
			"buffer":0,
			"byteLength":35790,
			"byteOffset":1419672,
			"target":34963
		},
		{
			"buffer":0,
			"byteLength":60756,
			"byteOffset":1455464,
			"target":34962
		},
		{
			"buffer":0,
			"byteLength":60756,
			"byteOffset":1516220,
			"target":34962
		},
		{
			"buffer":0,
			"byteLength":40504,
			"byteOffset":1576976,
			"target":34962
		},
		{
			"buffer":0,
			"byteLength":23628,
			"byteOffset":1617480,
			"target":34963
		},
		{
			"buffer":0,
			"byteLength":125004,
			"byteOffset":1641108,
			"target":34962
		},
		{
			"buffer":0,
			"byteLength":125004,
			"byteOffset":1766112,
			"target":34962
		},
		{
			"buffer":0,
			"byteLength":83336,
			"byteOffset":1891116,
			"target":34962
		},
		{
			"buffer":0,
			"byteLength":45504,
			"byteOffset":1974452,
			"target":34963
		}
	],
	"samplers":[
		{
			"magFilter":9729,
			"minFilter":9987
		}
	],
	"buffers":[
		{
			"byteLength":2019956,
			"uri":"fixed.bin"
		}
	]
}
