{
	"asset":{
		"generator":"Khronos glTF Blender I/O v4.0.44",
		"version":"2.0"
	},
	"extensionsUsed":[
		"KHR_materials_specular"
	],
	"scene":0,
	"scenes":[
		{
			"name":"Scene",
			"nodes":[
				9
			]
		}
	],
	"nodes":[
		{
			"mesh":0,
			"name":"0:lupine",
			"translation":[
				3.200000047683716,
				0,
				0
			]
		},
		{
			"mesh":1,
			"name":"1:paintbrush",
			"translation":[
				3.200000047683716,
				0,
				0
			]
		},
		{
			"mesh":2,
			"name":"2:yarrow",
			"translation":[
				3.200000047683716,
				0,
				0
			]
		},
		{
			"mesh":3,
			"name":"3:columbine",
			"translation":[
				3.200000047683716,
				0,
				0
			]
		},
		{
			"mesh":4,
			"name":"4:thistle",
			"translation":[
				3.200000047683716,
				0,
				0
			]
		},
		{
			"mesh":5,
			"name":"5:yucca",
			"translation":[
				3.200000047683716,
				0,
				0
			]
		},
		{
			"mesh":6,
			"name":"6:snowdrops",
			"translation":[
				3.200000047683716,
				0,
				0
			]
		},
		{
			"mesh":7,
			"name":"7:violets",
			"translation":[
				3.200000047683716,
				0,
				0
			]
		},
		{
			"mesh":8,
			"name":"8:marsh marigold",
			"translation":[
				3.200000047683716,
				0,
				0
			]
		},
		{
			"children":[
				0,
				1,
				2,
				3,
				4,
				5,
				6,
				7,
				8
			],
			"name":"RootNode"
		}
	],
	"materials":[
		{
			"doubleSided":true,
			"extensions":{
				"KHR_materials_specular":{
					"specularColorFactor":[
						0.800000011920929,
						0.800000011920929,
						0.800000011920929
					]
				}
			},
			"name":"tripo_1566b070_2c22_4a8d_9905_0a242aa47d32",
			"pbrMetallicRoughness":{
				"baseColorFactor":[
					0.800000011920929,
					0.800000011920929,
					0.800000011920929,
					1
				],
				"baseColorTexture":{
					"index":0
				},
				"metallicFactor":0,
				"roughnessFactor":0.5
			}
		}
	],
	"meshes":[
		{
			"name":"tripo_1566b070_2c22_4a8d_9905_0a242aa47d32.001",
			"primitives":[
				{
					"attributes":{
						"POSITION":0,
						"NORMAL":1,
						"TEXCOORD_0":2
					},
					"indices":3,
					"material":0
				}
			]
		},
		{
			"name":"tripo_1566b070_2c22_4a8d_9905_0a242aa47d32.002",
			"primitives":[
				{
					"attributes":{
						"POSITION":4,
						"NORMAL":5,
						"TEXCOORD_0":6
					},
					"indices":7,
					"material":0
				}
			]
		},
		{
			"name":"tripo_1566b070_2c22_4a8d_9905_0a242aa47d32.003",
			"primitives":[
				{
					"attributes":{
						"POSITION":8,
						"NORMAL":9,
						"TEXCOORD_0":10
					},
					"indices":11,
					"material":0
				}
			]
		},
		{
			"name":"tripo_1566b070_2c22_4a8d_9905_0a242aa47d32.004",
			"primitives":[
				{
					"attributes":{
						"POSITION":12,
						"NORMAL":13,
						"TEXCOORD_0":14
					},
					"indices":15,
					"material":0
				}
			]
		},
		{
			"name":"tripo_1566b070_2c22_4a8d_9905_0a242aa47d32.005",
			"primitives":[
				{
					"attributes":{
						"POSITION":16,
						"NORMAL":17,
						"TEXCOORD_0":18
					},
					"indices":19,
					"material":0
				}
			]
		},
		{
			"name":"tripo_1566b070_2c22_4a8d_9905_0a242aa47d32.006",
			"primitives":[
				{
					"attributes":{
						"POSITION":20,
						"NORMAL":21,
						"TEXCOORD_0":22
					},
					"indices":23,
					"material":0
				}
			]
		},
		{
			"name":"tripo_1566b070_2c22_4a8d_9905_0a242aa47d32.007",
			"primitives":[
				{
					"attributes":{
						"POSITION":24,
						"NORMAL":25,
						"TEXCOORD_0":26
					},
					"indices":27,
					"material":0
				}
			]
		},
		{
			"name":"tripo_1566b070_2c22_4a8d_9905_0a242aa47d32.008",
			"primitives":[
				{
					"attributes":{
						"POSITION":28,
						"NORMAL":29,
						"TEXCOORD_0":30
					},
					"indices":31,
					"material":0
				}
			]
		},
		{
			"name":"tripo_1566b070_2c22_4a8d_9905_0a242aa47d32.009",
			"primitives":[
				{
					"attributes":{
						"POSITION":32,
						"NORMAL":33,
						"TEXCOORD_0":34
					},
					"indices":35,
					"material":0
				}
			]
		}
	],
	"textures":[
		{
			"sampler":0,
			"source":0
		}
	],
	"images":[
		{
			"mimeType":"image/jpeg",
			"name":"flowers",
			"uri":"flowers.jpg"
		}
	],
	"accessors":[
		{
			"bufferView":0,
			"componentType":5126,
			"count":8576,
			"max":[
				0.10302734375,
				0.24169921875,
				0.0712890699505806
			],
			"min":[
				-0.10302734375,
				0,
				-0.0712890699505806
			],
			"type":"VEC3"
		},
		{
			"bufferView":1,
			"componentType":5126,
			"count":8576,
			"type":"VEC3"
		},
		{
			"bufferView":2,
			"componentType":5126,
			"count":8576,
			"type":"VEC2"
		},
		{
			"bufferView":3,
			"componentType":5123,
			"count":17706,
			"type":"SCALAR"
		},
		{
			"bufferView":4,
			"componentType":5126,
			"count":2542,
			"max":[
				0.098876953125,
				0.23681640625,
				0.0935058668255806
			],
			"min":[
				-0.098876953125,
				0,
				-0.0935058668255806
			],
			"type":"VEC3"
		},
		{
			"bufferView":5,
			"componentType":5126,
			"count":2542,
			"type":"VEC3"
		},
		{
			"bufferView":6,
			"componentType":5126,
			"count":2542,
			"type":"VEC2"
		},
		{
			"bufferView":7,
			"componentType":5123,
			"count":5181,
			"type":"SCALAR"
		},
		{
			"bufferView":8,
			"componentType":5126,
			"count":10164,
			"max":[
				0.1083984375,
				0.2373046875,
				0.11962890625
			],
			"min":[
				-0.1083984375,
				0,
				-0.11962890625
			],
			"type":"VEC3"
		},
		{
			"bufferView":9,
			"componentType":5126,
			"count":10164,
			"type":"VEC3"
		},
		{
			"bufferView":10,
			"componentType":5126,
			"count":10164,
			"type":"VEC2"
		},
		{
			"bufferView":11,
			"componentType":5123,
			"count":24063,
			"type":"SCALAR"
		},
		{
			"bufferView":12,
			"componentType":5126,
			"count":4487,
			"max":[
				0.111328125,
				0.24365234375,
				0.1162109225988388
			],
			"min":[
				-0.111328125,
				0,
				-0.1162109225988388
			],
			"type":"VEC3"
		},
		{
			"bufferView":13,
			"componentType":5126,
			"count":4487,
			"type":"VEC3"
		},
		{
			"bufferView":14,
			"componentType":5126,
			"count":4487,
			"type":"VEC2"
		},
		{
			"bufferView":15,
			"componentType":5123,
			"count":9645,
			"type":"SCALAR"
		},
		{
			"bufferView":16,
			"componentType":5126,
			"count":4760,
			"max":[
				0.1020507961511612,
				0.23583984375,
				0.10302734375
			],
			"min":[
				-0.1020507961511612,
				0,
				-0.10302734375
			],
			"type":"VEC3"
		},
		{
			"bufferView":17,
			"componentType":5126,
			"count":4760,
			"type":"VEC3"
		},
		{
			"bufferView":18,
			"componentType":5126,
			"count":4760,
			"type":"VEC2"
		},
		{
			"bufferView":19,
			"componentType":5123,
			"count":10182,
			"type":"SCALAR"
		},
		{
			"bufferView":20,
			"componentType":5126,
			"count":1534,
			"max":[
				0.11865234375,
				0.2265625,
				0.1447754055261612
			],
			"min":[
				-0.11865234375,
				0,
				-0.1447754055261612
			],
			"type":"VEC3"
		},
		{
			"bufferView":21,
			"componentType":5126,
			"count":1534,
			"type":"VEC3"
		},
		{
			"bufferView":22,
			"componentType":5126,
			"count":1534,
			"type":"VEC2"
		},
		{
			"bufferView":23,
			"componentType":5123,
			"count":3588,
			"type":"SCALAR"
		},
		{
			"bufferView":24,
			"componentType":5126,
			"count":6478,
			"max":[
				0.109619140625,
				0.2353515625,
				0.181396484375
			],
			"min":[
				-0.109619140625,
				0,
				-0.181396484375
			],
			"type":"VEC3"
		},
		{
			"bufferView":25,
			"componentType":5126,
			"count":6478,
			"type":"VEC3"
		},
		{
			"bufferView":26,
			"componentType":5126,
			"count":6478,
			"type":"VEC2"
		},
		{
			"bufferView":27,
			"componentType":5123,
			"count":16689,
			"type":"SCALAR"
		},
		{
			"bufferView":28,
			"componentType":5126,
			"count":4929,
			"max":[
				0.103759765625,
				0.21826171875,
				0.115478515625
			],
			"min":[
				-0.103759765625,
				0,
				-0.115478515625
			],
			"type":"VEC3"
		},
		{
			"bufferView":29,
			"componentType":5126,
			"count":4929,
			"type":"VEC3"
		},
		{
			"bufferView":30,
			"componentType":5126,
			"count":4929,
			"type":"VEC2"
		},
		{
			"bufferView":31,
			"componentType":5123,
			"count":11379,
			"type":"SCALAR"
		},
		{
			"bufferView":32,
			"componentType":5126,
			"count":10195,
			"max":[
				0.119384765625,
				0.23193359375,
				0.1162109375
			],
			"min":[
				-0.119384765625,
				0,
				-0.1162109375
			],
			"type":"VEC3"
		},
		{
			"bufferView":33,
			"componentType":5126,
			"count":10195,
			"type":"VEC3"
		},
		{
			"bufferView":34,
			"componentType":5126,
			"count":10195,
			"type":"VEC2"
		},
		{
			"bufferView":35,
			"componentType":5123,
			"count":22041,
			"type":"SCALAR"
		}
	],
	"bufferViews":[
		{
			"buffer":0,
			"byteLength":102912,
			"byteOffset":0,
			"target":34962
		},
		{
			"buffer":0,
			"byteLength":102912,
			"byteOffset":102912,
			"target":34962
		},
		{
			"buffer":0,
			"byteLength":68608,
			"byteOffset":205824,
			"target":34962
		},
		{
			"buffer":0,
			"byteLength":35412,
			"byteOffset":274432,
			"target":34963
		},
		{
			"buffer":0,
			"byteLength":30504,
			"byteOffset":309844,
			"target":34962
		},
		{
			"buffer":0,
			"byteLength":30504,
			"byteOffset":340348,
			"target":34962
		},
		{
			"buffer":0,
			"byteLength":20336,
			"byteOffset":370852,
			"target":34962
		},
		{
			"buffer":0,
			"byteLength":10362,
			"byteOffset":391188,
			"target":34963
		},
		{
			"buffer":0,
			"byteLength":121968,
			"byteOffset":401552,
			"target":34962
		},
		{
			"buffer":0,
			"byteLength":121968,
			"byteOffset":523520,
			"target":34962
		},
		{
			"buffer":0,
			"byteLength":81312,
			"byteOffset":645488,
			"target":34962
		},
		{
			"buffer":0,
			"byteLength":48126,
			"byteOffset":726800,
			"target":34963
		},
		{
			"buffer":0,
			"byteLength":53844,
			"byteOffset":774928,
			"target":34962
		},
		{
			"buffer":0,
			"byteLength":53844,
			"byteOffset":828772,
			"target":34962
		},
		{
			"buffer":0,
			"byteLength":35896,
			"byteOffset":882616,
			"target":34962
		},
		{
			"buffer":0,
			"byteLength":19290,
			"byteOffset":918512,
			"target":34963
		},
		{
			"buffer":0,
			"byteLength":57120,
			"byteOffset":937804,
			"target":34962
		},
		{
			"buffer":0,
			"byteLength":57120,
			"byteOffset":994924,
			"target":34962
		},
		{
			"buffer":0,
			"byteLength":38080,
			"byteOffset":1052044,
			"target":34962
		},
		{
			"buffer":0,
			"byteLength":20364,
			"byteOffset":1090124,
			"target":34963
		},
		{
			"buffer":0,
			"byteLength":18408,
			"byteOffset":1110488,
			"target":34962
		},
		{
			"buffer":0,
			"byteLength":18408,
			"byteOffset":1128896,
			"target":34962
		},
		{
			"buffer":0,
			"byteLength":12272,
			"byteOffset":1147304,
			"target":34962
		},
		{
			"buffer":0,
			"byteLength":7176,
			"byteOffset":1159576,
			"target":34963
		},
		{
			"buffer":0,
			"byteLength":77736,
			"byteOffset":1166752,
			"target":34962
		},
		{
			"buffer":0,
			"byteLength":77736,
			"byteOffset":1244488,
			"target":34962
		},
		{
			"buffer":0,
			"byteLength":51824,
			"byteOffset":1322224,
			"target":34962
		},
		{
			"buffer":0,
			"byteLength":33378,
			"byteOffset":1374048,
			"target":34963
		},
		{
			"buffer":0,
			"byteLength":59148,
			"byteOffset":1407428,
			"target":34962
		},
		{
			"buffer":0,
			"byteLength":59148,
			"byteOffset":1466576,
			"target":34962
		},
		{
			"buffer":0,
			"byteLength":39432,
			"byteOffset":1525724,
			"target":34962
		},
		{
			"buffer":0,
			"byteLength":22758,
			"byteOffset":1565156,
			"target":34963
		},
		{
			"buffer":0,
			"byteLength":122340,
			"byteOffset":1587916,
			"target":34962
		},
		{
			"buffer":0,
			"byteLength":122340,
			"byteOffset":1710256,
			"target":34962
		},
		{
			"buffer":0,
			"byteLength":81560,
			"byteOffset":1832596,
			"target":34962
		},
		{
			"buffer":0,
			"byteLength":44082,
			"byteOffset":1914156,
			"target":34963
		}
	],
	"samplers":[
		{
			"magFilter":9729,
			"minFilter":9987
		}
	],
	"buffers":[
		{
			"byteLength":1958240,
			"uri":"planar.bin"
		}
	]
}
