{
	"asset":{
		"generator":"Khronos glTF Blender I/O v4.0.44",
		"version":"2.0"
	},
	"extensionsUsed":[
		"KHR_materials_specular"
	],
	"scene":0,
	"scenes":[
		{
			"name":"Scene",
			"nodes":[
				9
			]
		}
	],
	"nodes":[
		{
			"mesh":0,
			"name":"0:lupine",
			"translation":[
				3.200000047683716,
				0,
				0
			]
		},
		{
			"mesh":1,
			"name":"1:paintbrush",
			"translation":[
				3.200000047683716,
				0,
				0
			]
		},
		{
			"mesh":2,
			"name":"2:yarrow",
			"translation":[
				3.200000047683716,
				0,
				0
			]
		},
		{
			"mesh":3,
			"name":"3:columbine",
			"translation":[
				3.200000047683716,
				0,
				0
			]
		},
		{
			"mesh":4,
			"name":"4:thistle",
			"translation":[
				3.200000047683716,
				0,
				0
			]
		},
		{
			"mesh":5,
			"name":"5:yucca",
			"translation":[
				3.200000047683716,
				0,
				0
			]
		},
		{
			"mesh":6,
			"name":"6:snowdrops",
			"translation":[
				3.200000047683716,
				0,
				0
			]
		},
		{
			"mesh":7,
			"name":"7:violets",
			"translation":[
				3.200000047683716,
				0,
				0
			]
		},
		{
			"mesh":8,
			"name":"8:marsh marigold",
			"translation":[
				3.200000047683716,
				0,
				0
			]
		},
		{
			"children":[
				0,
				1,
				2,
				3,
				4,
				5,
				6,
				7,
				8
			],
			"name":"RootNode"
		}
	],
	"materials":[
		{
			"doubleSided":true,
			"extensions":{
				"KHR_materials_specular":{
					"specularColorFactor":[
						0.800000011920929,
						0.800000011920929,
						0.800000011920929
					]
				}
			},
			"name":"tripo_1566b070_2c22_4a8d_9905_0a242aa47d32",
			"pbrMetallicRoughness":{
				"baseColorFactor":[
					0.800000011920929,
					0.800000011920929,
					0.800000011920929,
					1
				],
				"baseColorTexture":{
					"index":0
				},
				"metallicFactor":0,
				"roughnessFactor":0.5
			}
		}
	],
	"meshes":[
		{
			"name":"tripo_1566b070_2c22_4a8d_9905_0a242aa47d32.001",
			"primitives":[
				{
					"attributes":{
						"POSITION":0,
						"NORMAL":1,
						"TEXCOORD_0":2
					},
					"indices":3,
					"material":0
				}
			]
		},
		{
			"name":"tripo_1566b070_2c22_4a8d_9905_0a242aa47d32.002",
			"primitives":[
				{
					"attributes":{
						"POSITION":4,
						"NORMAL":5,
						"TEXCOORD_0":6
					},
					"indices":7,
					"material":0
				}
			]
		},
		{
			"name":"tripo_1566b070_2c22_4a8d_9905_0a242aa47d32.003",
			"primitives":[
				{
					"attributes":{
						"POSITION":8,
						"NORMAL":9,
						"TEXCOORD_0":10
					},
					"indices":11,
					"material":0
				}
			]
		},
		{
			"name":"tripo_1566b070_2c22_4a8d_9905_0a242aa47d32.004",
			"primitives":[
				{
					"attributes":{
						"POSITION":12,
						"NORMAL":13,
						"TEXCOORD_0":14
					},
					"indices":15,
					"material":0
				}
			]
		},
		{
			"name":"tripo_1566b070_2c22_4a8d_9905_0a242aa47d32.005",
			"primitives":[
				{
					"attributes":{
						"POSITION":16,
						"NORMAL":17,
						"TEXCOORD_0":18
					},
					"indices":19,
					"material":0
				}
			]
		},
		{
			"name":"tripo_1566b070_2c22_4a8d_9905_0a242aa47d32.006",
			"primitives":[
				{
					"attributes":{
						"POSITION":20,
						"NORMAL":21,
						"TEXCOORD_0":22
					},
					"indices":23,
					"material":0
				}
			]
		},
		{
			"name":"tripo_1566b070_2c22_4a8d_9905_0a242aa47d32.007",
			"primitives":[
				{
					"attributes":{
						"POSITION":24,
						"NORMAL":25,
						"TEXCOORD_0":26
					},
					"indices":27,
					"material":0
				}
			]
		},
		{
			"name":"tripo_1566b070_2c22_4a8d_9905_0a242aa47d32.008",
			"primitives":[
				{
					"attributes":{
						"POSITION":28,
						"NORMAL":29,
						"TEXCOORD_0":30
					},
					"indices":31,
					"material":0
				}
			]
		},
		{
			"name":"tripo_1566b070_2c22_4a8d_9905_0a242aa47d32.009",
			"primitives":[
				{
					"attributes":{
						"POSITION":32,
						"NORMAL":33,
						"TEXCOORD_0":34
					},
					"indices":35,
					"material":0
				}
			]
		}
	],
	"textures":[
		{
			"sampler":0,
			"source":0
		}
	],
	"images":[
		{
			"mimeType":"image/jpeg",
			"name":"flowers",
			"uri":"flowers.jpg"
		}
	],
	"accessors":[
		{
			"bufferView":0,
			"componentType":5126,
			"count":8849,
			"max":[
				0.10302734375,
				0.24169921875,
				0.0712890699505806
			],
			"min":[
				-0.10302734375,
				0,
				-0.0712890699505806
			],
			"type":"VEC3"
		},
		{
			"bufferView":1,
			"componentType":5126,
			"count":8849,
			"type":"VEC3"
		},
		{
			"bufferView":2,
			"componentType":5126,
			"count":8849,
			"type":"VEC2"
		},
		{
			"bufferView":3,
			"componentType":5123,
			"count":18282,
			"type":"SCALAR"
		},
		{
			"bufferView":4,
			"componentType":5126,
			"count":2644,
			"max":[
				0.098876953125,
				0.23681640625,
				0.0935058668255806
			],
			"min":[
				-0.098876953125,
				0,
				-0.0935058668255806
			],
			"type":"VEC3"
		},
		{
			"bufferView":5,
			"componentType":5126,
			"count":2644,
			"type":"VEC3"
		},
		{
			"bufferView":6,
			"componentType":5126,
			"count":2644,
			"type":"VEC2"
		},
		{
			"bufferView":7,
			"componentType":5123,
			"count":5496,
			"type":"SCALAR"
		},
		{
			"bufferView":8,
			"componentType":5126,
			"count":10412,
			"max":[
				0.1083984375,
				0.2373046875,
				0.11962890625
			],
			"min":[
				-0.1083984375,
				0,
				-0.11962890625
			],
			"type":"VEC3"
		},
		{
			"bufferView":9,
			"componentType":5126,
			"count":10412,
			"type":"VEC3"
		},
		{
			"bufferView":10,
			"componentType":5126,
			"count":10412,
			"type":"VEC2"
		},
		{
			"bufferView":11,
			"componentType":5123,
			"count":25047,
			"type":"SCALAR"
		},
		{
			"bufferView":12,
			"componentType":5126,
			"count":4656,
			"max":[
				0.111328125,
				0.24365234375,
				0.1162109225988388
			],
			"min":[
				-0.111328125,
				0,
				-0.1162109225988388
			],
			"type":"VEC3"
		},
		{
			"bufferView":13,
			"componentType":5126,
			"count":4656,
			"type":"VEC3"
		},
		{
			"bufferView":14,
			"componentType":5126,
			"count":4656,
			"type":"VEC2"
		},
		{
			"bufferView":15,
			"componentType":5123,
			"count":10158,
			"type":"SCALAR"
		},
		{
			"bufferView":16,
			"componentType":5126,
			"count":4920,
			"max":[
				0.1020507961511612,
				0.23583984375,
				0.10302734375
			],
			"min":[
				-0.1020507961511612,
				0,
				-0.10302734375
			],
			"type":"VEC3"
		},
		{
			"bufferView":17,
			"componentType":5126,
			"count":4920,
			"type":"VEC3"
		},
		{
			"bufferView":18,
			"componentType":5126,
			"count":4920,
			"type":"VEC2"
		},
		{
			"bufferView":19,
			"componentType":5123,
			"count":10584,
			"type":"SCALAR"
		},
		{
			"bufferView":20,
			"componentType":5126,
			"count":1680,
			"max":[
				0.11865234375,
				0.2265625,
				0.1447754055261612
			],
			"min":[
				-0.11865234375,
				0,
				-0.1447754055261612
			],
			"type":"VEC3"
		},
		{
			"bufferView":21,
			"componentType":5126,
			"count":1680,
			"type":"VEC3"
		},
		{
			"bufferView":22,
			"componentType":5126,
			"count":1680,
			"type":"VEC2"
		},
		{
			"bufferView":23,
			"componentType":5123,
			"count":4026,
			"type":"SCALAR"
		},
		{
			"bufferView":24,
			"componentType":5126,
			"count":6860,
			"max":[
				0.109619140625,
				0.2353515625,
				0.181396484375
			],
			"min":[
				-0.109619140625,
				0,
				-0.181396484375
			],
			"type":"VEC3"
		},
		{
			"bufferView":25,
			"componentType":5126,
			"count":6860,
			"type":"VEC3"
		},
		{
			"bufferView":26,
			"componentType":5126,
			"count":6860,
			"type":"VEC2"
		},
		{
			"bufferView":27,
			"componentType":5123,
			"count":17895,
			"type":"SCALAR"
		},
		{
			"bufferView":28,
			"componentType":5126,
			"count":5084,
			"max":[
				0.103759765625,
				0.21826171875,
				0.115478515625
			],
			"min":[
				-0.103759765625,
				0,
				-0.115478515625
			],
			"type":"VEC3"
		},
		{
			"bufferView":29,
			"componentType":5126,
			"count":5084,
			"type":"VEC3"
		},
		{
			"bufferView":30,
			"componentType":5126,
			"count":5084,
			"type":"VEC2"
		},
		{
			"bufferView":31,
			"componentType":5123,
			"count":11814,
			"type":"SCALAR"
		},
		{
			"bufferView":32,
			"componentType":5126,
			"count":10450,
			"max":[
				0.119384765625,
				0.23193359375,
				0.1162109375
			],
			"min":[
				-0.119384765625,
				0,
				-0.1162109375
			],
			"type":"VEC3"
		},
		{
			"bufferView":33,
			"componentType":5126,
			"count":10450,
			"type":"VEC3"
		},
		{
			"bufferView":34,
			"componentType":5126,
			"count":10450,
			"type":"VEC2"
		},
		{
			"bufferView":35,
			"componentType":5123,
			"count":22752,
			"type":"SCALAR"
		}
	],
	"bufferViews":[
		{
			"buffer":0,
			"byteLength":106188,
			"byteOffset":0,
			"target":34962
		},
		{
			"buffer":0,
			"byteLength":106188,
			"byteOffset":106188,
			"target":34962
		},
		{
			"buffer":0,
			"byteLength":70792,
			"byteOffset":212376,
			"target":34962
		},
		{
			"buffer":0,
			"byteLength":36564,
			"byteOffset":283168,
			"target":34963
		},
		{
			"buffer":0,
			"byteLength":31728,
			"byteOffset":319732,
			"target":34962
		},
		{
			"buffer":0,
			"byteLength":31728,
			"byteOffset":351460,
			"target":34962
		},
		{
			"buffer":0,
			"byteLength":21152,
			"byteOffset":383188,
			"target":34962
		},
		{
			"buffer":0,
			"byteLength":10992,
			"byteOffset":404340,
			"target":34963
		},
		{
			"buffer":0,
			"byteLength":124944,
			"byteOffset":415332,
			"target":34962
		},
		{
			"buffer":0,
			"byteLength":124944,
			"byteOffset":540276,
			"target":34962
		},
		{
			"buffer":0,
			"byteLength":83296,
			"byteOffset":665220,
			"target":34962
		},
		{
			"buffer":0,
			"byteLength":50094,
			"byteOffset":748516,
			"target":34963
		},
		{
			"buffer":0,
			"byteLength":55872,
			"byteOffset":798612,
			"target":34962
		},
		{
			"buffer":0,
			"byteLength":55872,
			"byteOffset":854484,
			"target":34962
		},
		{
			"buffer":0,
			"byteLength":37248,
			"byteOffset":910356,
			"target":34962
		},
		{
			"buffer":0,
			"byteLength":20316,
			"byteOffset":947604,
			"target":34963
		},
		{
			"buffer":0,
			"byteLength":59040,
			"byteOffset":967920,
			"target":34962
		},
		{
			"buffer":0,
			"byteLength":59040,
			"byteOffset":1026960,
			"target":34962
		},
		{
			"buffer":0,
			"byteLength":39360,
			"byteOffset":1086000,
			"target":34962
		},
		{
			"buffer":0,
			"byteLength":21168,
			"byteOffset":1125360,
			"target":34963
		},
		{
			"buffer":0,
			"byteLength":20160,
			"byteOffset":1146528,
			"target":34962
		},
		{
			"buffer":0,
			"byteLength":20160,
			"byteOffset":1166688,
			"target":34962
		},
		{
			"buffer":0,
			"byteLength":13440,
			"byteOffset":1186848,
			"target":34962
		},
		{
			"buffer":0,
			"byteLength":8052,
			"byteOffset":1200288,
			"target":34963
		},
		{
			"buffer":0,
			"byteLength":82320,
			"byteOffset":1208340,
			"target":34962
		},
		{
			"buffer":0,
			"byteLength":82320,
			"byteOffset":1290660,
			"target":34962
		},
		{
			"buffer":0,
			"byteLength":54880,
			"byteOffset":1372980,
			"target":34962
		},
		{
			"buffer":0,
			"byteLength":35790,
			"byteOffset":1427860,
			"target":34963
		},
		{
			"buffer":0,
			"byteLength":61008,
			"byteOffset":1463652,
			"target":34962
		},
		{
			"buffer":0,
			"byteLength":61008,
			"byteOffset":1524660,
			"target":34962
		},
		{
			"buffer":0,
			"byteLength":40672,
			"byteOffset":1585668,
			"target":34962
		},
		{
			"buffer":0,
			"byteLength":23628,
			"byteOffset":1626340,
			"target":34963
		},
		{
			"buffer":0,
			"byteLength":125400,
			"byteOffset":1649968,
			"target":34962
		},
		{
			"buffer":0,
			"byteLength":125400,
			"byteOffset":1775368,
			"target":34962
		},
		{
			"buffer":0,
			"byteLength":83600,
			"byteOffset":1900768,
			"target":34962
		},
		{
			"buffer":0,
			"byteLength":45504,
			"byteOffset":1984368,
			"target":34963
		}
	],
	"samplers":[
		{
			"magFilter":9729,
			"minFilter":9987
		}
	],
	"buffers":[
		{
			"byteLength":2029872,
			"uri":"raw.bin"
		}
	]
}
