{
	"asset":{
		"generator":"Khronos glTF Blender I/O v4.0.44",
		"version":"2.0"
	},
	"extensionsUsed":[
		"KHR_materials_specular"
	],
	"scene":0,
	"scenes":[
		{
			"name":"Scene",
			"nodes":[
				9
			]
		}
	],
	"nodes":[
		{
			"mesh":0,
			"name":"0:lupine",
			"translation":[
				3.200000047683716,
				0,
				0
			]
		},
		{
			"mesh":1,
			"name":"1:paintbrush",
			"translation":[
				3.200000047683716,
				0,
				0
			]
		},
		{
			"mesh":2,
			"name":"2:yarrow",
			"translation":[
				3.200000047683716,
				0,
				0
			]
		},
		{
			"mesh":3,
			"name":"3:columbine",
			"translation":[
				3.200000047683716,
				0,
				0
			]
		},
		{
			"mesh":4,
			"name":"4:thistle",
			"translation":[
				3.200000047683716,
				0,
				0
			]
		},
		{
			"mesh":5,
			"name":"5:yucca",
			"translation":[
				3.200000047683716,
				0,
				0
			]
		},
		{
			"mesh":6,
			"name":"6:snowdrops",
			"translation":[
				3.200000047683716,
				0,
				0
			]
		},
		{
			"mesh":7,
			"name":"7:violets",
			"translation":[
				3.200000047683716,
				0,
				0
			]
		},
		{
			"mesh":8,
			"name":"8:marsh marigold",
			"translation":[
				3.200000047683716,
				0,
				0
			]
		},
		{
			"children":[
				0,
				1,
				2,
				3,
				4,
				5,
				6,
				7,
				8
			],
			"name":"RootNode"
		}
	],
	"materials":[
		{
			"doubleSided":true,
			"extensions":{
				"KHR_materials_specular":{
					"specularColorFactor":[
						0.800000011920929,
						0.800000011920929,
						0.800000011920929
					]
				}
			},
			"name":"tripo_1566b070_2c22_4a8d_9905_0a242aa47d32",
			"pbrMetallicRoughness":{
				"baseColorFactor":[
					0.800000011920929,
					0.800000011920929,
					0.800000011920929,
					1
				],
				"baseColorTexture":{
					"index":0
				},
				"metallicFactor":0,
				"roughnessFactor":0.5
			}
		}
	],
	"meshes":[
		{
			"name":"tripo_1566b070_2c22_4a8d_9905_0a242aa47d32.001",
			"primitives":[
				{
					"attributes":{
						"POSITION":0,
						"NORMAL":1,
						"TEXCOORD_0":2
					},
					"indices":3,
					"material":0
				}
			]
		},
		{
			"name":"tripo_1566b070_2c22_4a8d_9905_0a242aa47d32.002",
			"primitives":[
				{
					"attributes":{
						"POSITION":4,
						"NORMAL":5,
						"TEXCOORD_0":6
					},
					"indices":7,
					"material":0
				}
			]
		},
		{
			"name":"tripo_1566b070_2c22_4a8d_9905_0a242aa47d32.003",
			"primitives":[
				{
					"attributes":{
						"POSITION":8,
						"NORMAL":9,
						"TEXCOORD_0":10
					},
					"indices":11,
					"material":0
				}
			]
		},
		{
			"name":"tripo_1566b070_2c22_4a8d_9905_0a242aa47d32.004",
			"primitives":[
				{
					"attributes":{
						"POSITION":12,
						"NORMAL":13,
						"TEXCOORD_0":14
					},
					"indices":15,
					"material":0
				}
			]
		},
		{
			"name":"tripo_1566b070_2c22_4a8d_9905_0a242aa47d32.005",
			"primitives":[
				{
					"attributes":{
						"POSITION":16,
						"NORMAL":17,
						"TEXCOORD_0":18
					},
					"indices":19,
					"material":0
				}
			]
		},
		{
			"name":"tripo_1566b070_2c22_4a8d_9905_0a242aa47d32.006",
			"primitives":[
				{
					"attributes":{
						"POSITION":20,
						"NORMAL":21,
						"TEXCOORD_0":22
					},
					"indices":23,
					"material":0
				}
			]
		},
		{
			"name":"tripo_1566b070_2c22_4a8d_9905_0a242aa47d32.007",
			"primitives":[
				{
					"attributes":{
						"POSITION":24,
						"NORMAL":25,
						"TEXCOORD_0":26
					},
					"indices":27,
					"material":0
				}
			]
		},
		{
			"name":"tripo_1566b070_2c22_4a8d_9905_0a242aa47d32.008",
			"primitives":[
				{
					"attributes":{
						"POSITION":28,
						"NORMAL":29,
						"TEXCOORD_0":30
					},
					"indices":31,
					"material":0
				}
			]
		},
		{
			"name":"tripo_1566b070_2c22_4a8d_9905_0a242aa47d32.009",
			"primitives":[
				{
					"attributes":{
						"POSITION":32,
						"NORMAL":33,
						"TEXCOORD_0":34
					},
					"indices":35,
					"material":0
				}
			]
		}
	],
	"textures":[
		{
			"sampler":0,
			"source":0
		}
	],
	"images":[
		{
			"mimeType":"image/jpeg",
			"name":"flowers",
			"uri":"flowers.jpg"
		}
	],
	"accessors":[
		{
			"bufferView":0,
			"componentType":5126,
			"count":2350,
			"max":[
				0.08150822669267654,
				0.21992091834545135,
				0.06896541267633438
			],
			"min":[
				-0.0909963920712471,
				0.001463425694964826,
				-0.06885158270597458
			],
			"type":"VEC3"
		},
		{
			"bufferView":1,
			"componentType":5126,
			"count":2350,
			"type":"VEC3"
		},
		{
			"bufferView":2,
			"componentType":5126,
			"count":2350,
			"type":"VEC2"
		},
		{
			"bufferView":3,
			"componentType":5123,
			"count":3255,
			"type":"SCALAR"
		},
		{
			"bufferView":4,
			"componentType":5126,
			"count":729,
			"max":[
				0.0846155658364296,
				0.23681640625,
				0.08940032124519348
			],
			"min":[
				-0.08686444908380508,
				-0.0008851673919707537,
				-0.09104593843221664
			],
			"type":"VEC3"
		},
		{
			"bufferView":5,
			"componentType":5126,
			"count":729,
			"type":"VEC3"
		},
		{
			"bufferView":6,
			"componentType":5126,
			"count":729,
			"type":"VEC2"
		},
		{
			"bufferView":7,
			"componentType":5123,
			"count":882,
			"type":"SCALAR"
		},
		{
			"bufferView":8,
			"componentType":5126,
			"count":908,
			"max":[
				0.09236098825931549,
				0.22894293069839478,
				0.12034991383552551
			],
			"min":[
				-0.10929962992668152,
				0,
				-0.11884888261556625
			],
			"type":"VEC3"
		},
		{
			"bufferView":9,
			"componentType":5126,
			"count":908,
			"type":"VEC3"
		},
		{
			"bufferView":10,
			"componentType":5126,
			"count":908,
			"type":"VEC2"
		},
		{
			"bufferView":11,
			"componentType":5123,
			"count":1131,
			"type":"SCALAR"
		},
		{
			"bufferView":12,
			"componentType":5126,
			"count":697,
			"max":[
				0.11054413765668869,
				0.20753848552703857,
				0.08803506940603256
			],
			"min":[
				-0.11043232679367065,
				-0.0019488332327455282,
				-0.11404942721128464
			],
			"type":"VEC3"
		},
		{
			"bufferView":13,
			"componentType":5126,
			"count":697,
			"type":"VEC3"
		},
		{
			"bufferView":14,
			"componentType":5126,
			"count":697,
			"type":"VEC2"
		},
		{
			"bufferView":15,
			"componentType":5123,
			"count":888,
			"type":"SCALAR"
		},
		{
			"bufferView":16,
			"componentType":5126,
			"count":1112,
			"max":[
				0.07195986062288284,
				0.20751953125,
				0.0841122716665268
			],
			"min":[
				-0.08403057605028152,
				-0.0009484118199907243,
				-0.08529581129550934
			],
			"type":"VEC3"
		},
		{
			"bufferView":17,
			"componentType":5126,
			"count":1112,
			"type":"VEC3"
		},
		{
			"bufferView":18,
			"componentType":5126,
			"count":1112,
			"type":"VEC2"
		},
		{
			"bufferView":19,
			"componentType":5123,
			"count":1386,
			"type":"SCALAR"
		},
		{
			"bufferView":20,
			"componentType":5126,
			"count":564,
			"max":[
				0.11654031276702881,
				0.22432778775691986,
				0.14519140124320984
			],
			"min":[
				-0.1184362843632698,
				7.283991726581007e-05,
				-0.14192937314510345
			],
			"type":"VEC3"
		},
		{
			"bufferView":21,
			"componentType":5126,
			"count":564,
			"type":"VEC3"
		},
		{
			"bufferView":22,
			"componentType":5126,
			"count":564,
			"type":"VEC2"
		},
		{
			"bufferView":23,
			"componentType":5123,
			"count":900,
			"type":"SCALAR"
		},
		{
			"bufferView":24,
			"componentType":5126,
			"count":741,
			"max":[
				0.11001084744930267,
				0.23464208841323853,
				0.18104645609855652
			],
			"min":[
				-0.10965917259454727,
				0.0011634993134066463,
				-0.18052896857261658
			],
			"type":"VEC3"
		},
		{
			"bufferView":25,
			"componentType":5126,
			"count":741,
			"type":"VEC3"
		},
		{
			"bufferView":26,
			"componentType":5126,
			"count":741,
			"type":"VEC2"
		},
		{
			"bufferView":27,
			"componentType":5123,
			"count":894,
			"type":"SCALAR"
		},
		{
			"bufferView":28,
			"componentType":5126,
			"count":642,
			"max":[
				0.09737535566091537,
				0.2132246345281601,
				0.09102979302406311
			],
			"min":[
				-0.08284890651702881,
				-0.0042535108514130116,
				-0.10009359568357468
			],
			"type":"VEC3"
		},
		{
			"bufferView":29,
			"componentType":5126,
			"count":642,
			"type":"VEC3"
		},
		{
			"bufferView":30,
			"componentType":5126,
			"count":642,
			"type":"VEC2"
		},
		{
			"bufferView":31,
			"componentType":5123,
			"count":876,
			"type":"SCALAR"
		},
		{
			"bufferView":32,
			"componentType":5126,
			"count":923,
			"max":[
				0.10144076496362686,
				0.22972428798675537,
				0.1183895468711853
			],
			"min":[
				-0.10731874406337738,
				-0.009237824007868767,
				-0.10873209685087204
			],
			"type":"VEC3"
		},
		{
			"bufferView":33,
			"componentType":5126,
			"count":923,
			"type":"VEC3"
		},
		{
			"bufferView":34,
			"componentType":5126,
			"count":923,
			"type":"VEC2"
		},
		{
			"bufferView":35,
			"componentType":5123,
			"count":1176,
			"type":"SCALAR"
		}
	],
	"bufferViews":[
		{
			"buffer":0,
			"byteLength":28200,
			"byteOffset":0,
			"target":34962
		},
		{
			"buffer":0,
			"byteLength":28200,
			"byteOffset":28200,
			"target":34962
		},
		{
			"buffer":0,
			"byteLength":18800,
			"byteOffset":56400,
			"target":34962
		},
		{
			"buffer":0,
			"byteLength":6510,
			"byteOffset":75200,
			"target":34963
		},
		{
			"buffer":0,
			"byteLength":8748,
			"byteOffset":81712,
			"target":34962
		},
		{
			"buffer":0,
			"byteLength":8748,
			"byteOffset":90460,
			"target":34962
		},
		{
			"buffer":0,
			"byteLength":5832,
			"byteOffset":99208,
			"target":34962
		},
		{
			"buffer":0,
			"byteLength":1764,
			"byteOffset":105040,
			"target":34963
		},
		{
			"buffer":0,
			"byteLength":10896,
			"byteOffset":106804,
			"target":34962
		},
		{
			"buffer":0,
			"byteLength":10896,
			"byteOffset":117700,
			"target":34962
		},
		{
			"buffer":0,
			"byteLength":7264,
			"byteOffset":128596,
			"target":34962
		},
		{
			"buffer":0,
			"byteLength":2262,
			"byteOffset":135860,
			"target":34963
		},
		{
			"buffer":0,
			"byteLength":8364,
			"byteOffset":138124,
			"target":34962
		},
		{
			"buffer":0,
			"byteLength":8364,
			"byteOffset":146488,
			"target":34962
		},
		{
			"buffer":0,
			"byteLength":5576,
			"byteOffset":154852,
			"target":34962
		},
		{
			"buffer":0,
			"byteLength":1776,
			"byteOffset":160428,
			"target":34963
		},
		{
			"buffer":0,
			"byteLength":13344,
			"byteOffset":162204,
			"target":34962
		},
		{
			"buffer":0,
			"byteLength":13344,
			"byteOffset":175548,
			"target":34962
		},
		{
			"buffer":0,
			"byteLength":8896,
			"byteOffset":188892,
			"target":34962
		},
		{
			"buffer":0,
			"byteLength":2772,
			"byteOffset":197788,
			"target":34963
		},
		{
			"buffer":0,
			"byteLength":6768,
			"byteOffset":200560,
			"target":34962
		},
		{
			"buffer":0,
			"byteLength":6768,
			"byteOffset":207328,
			"target":34962
		},
		{
			"buffer":0,
			"byteLength":4512,
			"byteOffset":214096,
			"target":34962
		},
		{
			"buffer":0,
			"byteLength":1800,
			"byteOffset":218608,
			"target":34963
		},
		{
			"buffer":0,
			"byteLength":8892,
			"byteOffset":220408,
			"target":34962
		},
		{
			"buffer":0,
			"byteLength":8892,
			"byteOffset":229300,
			"target":34962
		},
		{
			"buffer":0,
			"byteLength":5928,
			"byteOffset":238192,
			"target":34962
		},
		{
			"buffer":0,
			"byteLength":1788,
			"byteOffset":244120,
			"target":34963
		},
		{
			"buffer":0,
			"byteLength":7704,
			"byteOffset":245908,
			"target":34962
		},
		{
			"buffer":0,
			"byteLength":7704,
			"byteOffset":253612,
			"target":34962
		},
		{
			"buffer":0,
			"byteLength":5136,
			"byteOffset":261316,
			"target":34962
		},
		{
			"buffer":0,
			"byteLength":1752,
			"byteOffset":266452,
			"target":34963
		},
		{
			"buffer":0,
			"byteLength":11076,
			"byteOffset":268204,
			"target":34962
		},
		{
			"buffer":0,
			"byteLength":11076,
			"byteOffset":279280,
			"target":34962
		},
		{
			"buffer":0,
			"byteLength":7384,
			"byteOffset":290356,
			"target":34962
		},
		{
			"buffer":0,
			"byteLength":2352,
			"byteOffset":297740,
			"target":34963
		}
	],
	"samplers":[
		{
			"magFilter":9729,
			"minFilter":9987
		}
	],
	"buffers":[
		{
			"byteLength":300092,
			"uri":"tri300.bin"
		}
	]
}
