{
	"asset":{
		"generator":"Khronos glTF Blender I/O v4.0.44",
		"version":"2.0"
	},
	"extensionsUsed":[
		"KHR_materials_specular"
	],
	"scene":0,
	"scenes":[
		{
			"name":"Scene",
			"nodes":[
				9
			]
		}
	],
	"nodes":[
		{
			"mesh":0,
			"name":"0:lupine",
			"translation":[
				3.200000047683716,
				0,
				0
			]
		},
		{
			"mesh":1,
			"name":"1:paintbrush",
			"translation":[
				3.200000047683716,
				0,
				0
			]
		},
		{
			"mesh":2,
			"name":"2:yarrow",
			"translation":[
				3.200000047683716,
				0,
				0
			]
		},
		{
			"mesh":3,
			"name":"3:columbine",
			"translation":[
				3.200000047683716,
				0,
				0
			]
		},
		{
			"mesh":4,
			"name":"4:thistle",
			"translation":[
				3.200000047683716,
				0,
				0
			]
		},
		{
			"mesh":5,
			"name":"5:yucca",
			"translation":[
				3.200000047683716,
				0,
				0
			]
		},
		{
			"mesh":6,
			"name":"6:snowdrops",
			"translation":[
				3.200000047683716,
				0,
				0
			]
		},
		{
			"mesh":7,
			"name":"7:violets",
			"translation":[
				3.200000047683716,
				0,
				0
			]
		},
		{
			"mesh":8,
			"name":"8:marsh marigold",
			"translation":[
				3.200000047683716,
				0,
				0
			]
		},
		{
			"children":[
				0,
				1,
				2,
				3,
				4,
				5,
				6,
				7,
				8
			],
			"name":"RootNode"
		}
	],
	"materials":[
		{
			"doubleSided":true,
			"extensions":{
				"KHR_materials_specular":{
					"specularColorFactor":[
						0.800000011920929,
						0.800000011920929,
						0.800000011920929
					]
				}
			},
			"name":"tripo_1566b070_2c22_4a8d_9905_0a242aa47d32",
			"pbrMetallicRoughness":{
				"baseColorFactor":[
					0.800000011920929,
					0.800000011920929,
					0.800000011920929,
					1
				],
				"baseColorTexture":{
					"index":0
				},
				"metallicFactor":0,
				"roughnessFactor":0.5
			}
		}
	],
	"meshes":[
		{
			"name":"tripo_1566b070_2c22_4a8d_9905_0a242aa47d32.001",
			"primitives":[
				{
					"attributes":{
						"POSITION":0,
						"NORMAL":1,
						"TEXCOORD_0":2
					},
					"indices":3,
					"material":0
				}
			]
		},
		{
			"name":"tripo_1566b070_2c22_4a8d_9905_0a242aa47d32.002",
			"primitives":[
				{
					"attributes":{
						"POSITION":4,
						"NORMAL":5,
						"TEXCOORD_0":6
					},
					"indices":7,
					"material":0
				}
			]
		},
		{
			"name":"tripo_1566b070_2c22_4a8d_9905_0a242aa47d32.003",
			"primitives":[
				{
					"attributes":{
						"POSITION":8,
						"NORMAL":9,
						"TEXCOORD_0":10
					},
					"indices":11,
					"material":0
				}
			]
		},
		{
			"name":"tripo_1566b070_2c22_4a8d_9905_0a242aa47d32.004",
			"primitives":[
				{
					"attributes":{
						"POSITION":12,
						"NORMAL":13,
						"TEXCOORD_0":14
					},
					"indices":15,
					"material":0
				}
			]
		},
		{
			"name":"tripo_1566b070_2c22_4a8d_9905_0a242aa47d32.005",
			"primitives":[
				{
					"attributes":{
						"POSITION":16,
						"NORMAL":17,
						"TEXCOORD_0":18
					},
					"indices":19,
					"material":0
				}
			]
		},
		{
			"name":"tripo_1566b070_2c22_4a8d_9905_0a242aa47d32.006",
			"primitives":[
				{
					"attributes":{
						"POSITION":20,
						"NORMAL":21,
						"TEXCOORD_0":22
					},
					"indices":23,
					"material":0
				}
			]
		},
		{
			"name":"tripo_1566b070_2c22_4a8d_9905_0a242aa47d32.007",
			"primitives":[
				{
					"attributes":{
						"POSITION":24,
						"NORMAL":25,
						"TEXCOORD_0":26
					},
					"indices":27,
					"material":0
				}
			]
		},
		{
			"name":"tripo_1566b070_2c22_4a8d_9905_0a242aa47d32.008",
			"primitives":[
				{
					"attributes":{
						"POSITION":28,
						"NORMAL":29,
						"TEXCOORD_0":30
					},
					"indices":31,
					"material":0
				}
			]
		},
		{
			"name":"tripo_1566b070_2c22_4a8d_9905_0a242aa47d32.009",
			"primitives":[
				{
					"attributes":{
						"POSITION":32,
						"NORMAL":33,
						"TEXCOORD_0":34
					},
					"indices":35,
					"material":0
				}
			]
		}
	],
	"textures":[
		{
			"sampler":0,
			"source":0
		}
	],
	"images":[
		{
			"mimeType":"image/jpeg",
			"name":"flowers",
			"uri":"flowers.jpg"
		}
	],
	"accessors":[
		{
			"bufferView":0,
			"componentType":5126,
			"count":2352,
			"max":[
				0.07753326743841171,
				0.21994905173778534,
				0.06895472854375839
			],
			"min":[
				-0.08753134310245514,
				0.0014520122203975916,
				-0.0688496008515358
			],
			"type":"VEC3"
		},
		{
			"bufferView":1,
			"componentType":5126,
			"count":2352,
			"type":"VEC3"
		},
		{
			"bufferView":2,
			"componentType":5126,
			"count":2352,
			"type":"VEC2"
		},
		{
			"bufferView":3,
			"componentType":5123,
			"count":3240,
			"type":"SCALAR"
		},
		{
			"bufferView":4,
			"componentType":5126,
			"count":1220,
			"max":[
				0.10020200908184052,
				0.23681640625,
				0.09267104417085648
			],
			"min":[
				-0.09834732115268707,
				-0.0008712683920748532,
				-0.0935058668255806
			],
			"type":"VEC3"
		},
		{
			"bufferView":5,
			"componentType":5126,
			"count":1220,
			"type":"VEC3"
		},
		{
			"bufferView":6,
			"componentType":5126,
			"count":1220,
			"type":"VEC2"
		},
		{
			"bufferView":7,
			"componentType":5123,
			"count":1782,
			"type":"SCALAR"
		},
		{
			"bufferView":8,
			"componentType":5126,
			"count":1324,
			"max":[
				0.10576164722442627,
				0.2332785725593567,
				0.11931395530700684
			],
			"min":[
				-0.1092991977930069,
				0,
				-0.1187904104590416
			],
			"type":"VEC3"
		},
		{
			"bufferView":9,
			"componentType":5126,
			"count":1324,
			"type":"VEC3"
		},
		{
			"bufferView":10,
			"componentType":5126,
			"count":1324,
			"type":"VEC2"
		},
		{
			"bufferView":11,
			"componentType":5123,
			"count":1728,
			"type":"SCALAR"
		},
		{
			"bufferView":12,
			"componentType":5126,
			"count":1276,
			"max":[
				0.11160095781087875,
				0.24095462262630463,
				0.1162109225988388
			],
			"min":[
				-0.11192257702350616,
				0.0003350401239003986,
				-0.11617035418748856
			],
			"type":"VEC3"
		},
		{
			"bufferView":13,
			"componentType":5126,
			"count":1276,
			"type":"VEC3"
		},
		{
			"bufferView":14,
			"componentType":5126,
			"count":1276,
			"type":"VEC2"
		},
		{
			"bufferView":15,
			"componentType":5123,
			"count":1785,
			"type":"SCALAR"
		},
		{
			"bufferView":16,
			"componentType":5126,
			"count":1383,
			"max":[
				0.09912756085395813,
				0.23595422506332397,
				0.09957493841648102
			],
			"min":[
				-0.09998769313097,
				-0.0009499125299043953,
				-0.1006733849644661
			],
			"type":"VEC3"
		},
		{
			"bufferView":17,
			"componentType":5126,
			"count":1383,
			"type":"VEC3"
		},
		{
			"bufferView":18,
			"componentType":5126,
			"count":1383,
			"type":"VEC2"
		},
		{
			"bufferView":19,
			"componentType":5123,
			"count":1785,
			"type":"SCALAR"
		},
		{
			"bufferView":20,
			"componentType":5126,
			"count":942,
			"max":[
				0.11855379492044449,
				0.22723694145679474,
				0.14480623602867126
			],
			"min":[
				-0.11746406555175781,
				2.533534097892698e-05,
				-0.14422613382339478
			],
			"type":"VEC3"
		},
		{
			"bufferView":21,
			"componentType":5126,
			"count":942,
			"type":"VEC3"
		},
		{
			"bufferView":22,
			"componentType":5126,
			"count":942,
			"type":"VEC2"
		},
		{
			"bufferView":23,
			"componentType":5123,
			"count":1800,
			"type":"SCALAR"
		},
		{
			"bufferView":24,
			"componentType":5126,
			"count":1285,
			"max":[
				0.10791752487421036,
				0.23506301641464233,
				0.1809888482093811
			],
			"min":[
				-0.109619140625,
				-0.0007946878904476762,
				-0.18101418018341064
			],
			"type":"VEC3"
		},
		{
			"bufferView":25,
			"componentType":5126,
			"count":1285,
			"type":"VEC3"
		},
		{
			"bufferView":26,
			"componentType":5126,
			"count":1285,
			"type":"VEC2"
		},
		{
			"bufferView":27,
			"componentType":5123,
			"count":1800,
			"type":"SCALAR"
		},
		{
			"bufferView":28,
			"componentType":5126,
			"count":1205,
			"max":[
				0.10509227216243744,
				0.21960031986236572,
				0.11287786811590195
			],
			"min":[
				-0.1037823036313057,
				-0.0004940881626680493,
				-0.11633185297250748
			],
			"type":"VEC3"
		},
		{
			"bufferView":29,
			"componentType":5126,
			"count":1205,
			"type":"VEC3"
		},
		{
			"bufferView":30,
			"componentType":5126,
			"count":1205,
			"type":"VEC2"
		},
		{
			"bufferView":31,
			"componentType":5123,
			"count":1797,
			"type":"SCALAR"
		},
		{
			"bufferView":32,
			"componentType":5126,
			"count":1294,
			"max":[
				0.1204243004322052,
				0.23021924495697021,
				0.11825991421937943
			],
			"min":[
				-0.12181301414966583,
				-0.0009982859482988715,
				-0.11621434986591339
			],
			"type":"VEC3"
		},
		{
			"bufferView":33,
			"componentType":5126,
			"count":1294,
			"type":"VEC3"
		},
		{
			"bufferView":34,
			"componentType":5126,
			"count":1294,
			"type":"VEC2"
		},
		{
			"bufferView":35,
			"componentType":5123,
			"count":1692,
			"type":"SCALAR"
		}
	],
	"bufferViews":[
		{
			"buffer":0,
			"byteLength":28224,
			"byteOffset":0,
			"target":34962
		},
		{
			"buffer":0,
			"byteLength":28224,
			"byteOffset":28224,
			"target":34962
		},
		{
			"buffer":0,
			"byteLength":18816,
			"byteOffset":56448,
			"target":34962
		},
		{
			"buffer":0,
			"byteLength":6480,
			"byteOffset":75264,
			"target":34963
		},
		{
			"buffer":0,
			"byteLength":14640,
			"byteOffset":81744,
			"target":34962
		},
		{
			"buffer":0,
			"byteLength":14640,
			"byteOffset":96384,
			"target":34962
		},
		{
			"buffer":0,
			"byteLength":9760,
			"byteOffset":111024,
			"target":34962
		},
		{
			"buffer":0,
			"byteLength":3564,
			"byteOffset":120784,
			"target":34963
		},
		{
			"buffer":0,
			"byteLength":15888,
			"byteOffset":124348,
			"target":34962
		},
		{
			"buffer":0,
			"byteLength":15888,
			"byteOffset":140236,
			"target":34962
		},
		{
			"buffer":0,
			"byteLength":10592,
			"byteOffset":156124,
			"target":34962
		},
		{
			"buffer":0,
			"byteLength":3456,
			"byteOffset":166716,
			"target":34963
		},
		{
			"buffer":0,
			"byteLength":15312,
			"byteOffset":170172,
			"target":34962
		},
		{
			"buffer":0,
			"byteLength":15312,
			"byteOffset":185484,
			"target":34962
		},
		{
			"buffer":0,
			"byteLength":10208,
			"byteOffset":200796,
			"target":34962
		},
		{
			"buffer":0,
			"byteLength":3570,
			"byteOffset":211004,
			"target":34963
		},
		{
			"buffer":0,
			"byteLength":16596,
			"byteOffset":214576,
			"target":34962
		},
		{
			"buffer":0,
			"byteLength":16596,
			"byteOffset":231172,
			"target":34962
		},
		{
			"buffer":0,
			"byteLength":11064,
			"byteOffset":247768,
			"target":34962
		},
		{
			"buffer":0,
			"byteLength":3570,
			"byteOffset":258832,
			"target":34963
		},
		{
			"buffer":0,
			"byteLength":11304,
			"byteOffset":262404,
			"target":34962
		},
		{
			"buffer":0,
			"byteLength":11304,
			"byteOffset":273708,
			"target":34962
		},
		{
			"buffer":0,
			"byteLength":7536,
			"byteOffset":285012,
			"target":34962
		},
		{
			"buffer":0,
			"byteLength":3600,
			"byteOffset":292548,
			"target":34963
		},
		{
			"buffer":0,
			"byteLength":15420,
			"byteOffset":296148,
			"target":34962
		},
		{
			"buffer":0,
			"byteLength":15420,
			"byteOffset":311568,
			"target":34962
		},
		{
			"buffer":0,
			"byteLength":10280,
			"byteOffset":326988,
			"target":34962
		},
		{
			"buffer":0,
			"byteLength":3600,
			"byteOffset":337268,
			"target":34963
		},
		{
			"buffer":0,
			"byteLength":14460,
			"byteOffset":340868,
			"target":34962
		},
		{
			"buffer":0,
			"byteLength":14460,
			"byteOffset":355328,
			"target":34962
		},
		{
			"buffer":0,
			"byteLength":9640,
			"byteOffset":369788,
			"target":34962
		},
		{
			"buffer":0,
			"byteLength":3594,
			"byteOffset":379428,
			"target":34963
		},
		{
			"buffer":0,
			"byteLength":15528,
			"byteOffset":383024,
			"target":34962
		},
		{
			"buffer":0,
			"byteLength":15528,
			"byteOffset":398552,
			"target":34962
		},
		{
			"buffer":0,
			"byteLength":10352,
			"byteOffset":414080,
			"target":34962
		},
		{
			"buffer":0,
			"byteLength":3384,
			"byteOffset":424432,
			"target":34963
		}
	],
	"samplers":[
		{
			"magFilter":9729,
			"minFilter":9987
		}
	],
	"buffers":[
		{
			"byteLength":427816,
			"uri":"tri600.bin"
		}
	]
}
