{
	"asset":{
		"generator":"Khronos glTF Blender I/O v4.0.44",
		"version":"2.0"
	},
	"extensionsUsed":[
		"KHR_materials_specular"
	],
	"scene":0,
	"scenes":[
		{
			"name":"Scene",
			"nodes":[
				9
			]
		}
	],
	"nodes":[
		{
			"mesh":0,
			"name":"0:lupine",
			"translation":[
				3.200000047683716,
				0,
				0
			]
		},
		{
			"mesh":1,
			"name":"1:paintbrush",
			"translation":[
				3.200000047683716,
				0,
				0
			]
		},
		{
			"mesh":2,
			"name":"2:yarrow",
			"translation":[
				3.200000047683716,
				0,
				0
			]
		},
		{
			"mesh":3,
			"name":"3:columbine",
			"translation":[
				3.200000047683716,
				0,
				0
			]
		},
		{
			"mesh":4,
			"name":"4:thistle",
			"translation":[
				3.200000047683716,
				0,
				0
			]
		},
		{
			"mesh":5,
			"name":"5:yucca",
			"translation":[
				3.200000047683716,
				0,
				0
			]
		},
		{
			"mesh":6,
			"name":"6:snowdrops",
			"translation":[
				3.200000047683716,
				0,
				0
			]
		},
		{
			"mesh":7,
			"name":"7:violets",
			"translation":[
				3.200000047683716,
				0,
				0
			]
		},
		{
			"mesh":8,
			"name":"8:marsh marigold",
			"translation":[
				3.200000047683716,
				0,
				0
			]
		},
		{
			"children":[
				0,
				1,
				2,
				3,
				4,
				5,
				6,
				7,
				8
			],
			"name":"RootNode"
		}
	],
	"materials":[
		{
			"doubleSided":true,
			"extensions":{
				"KHR_materials_specular":{
					"specularColorFactor":[
						0.800000011920929,
						0.800000011920929,
						0.800000011920929
					]
				}
			},
			"name":"tripo_1566b070_2c22_4a8d_9905_0a242aa47d32",
			"pbrMetallicRoughness":{
				"baseColorFactor":[
					0.800000011920929,
					0.800000011920929,
					0.800000011920929,
					1
				],
				"baseColorTexture":{
					"index":0
				},
				"metallicFactor":0,
				"roughnessFactor":0.5
			}
		}
	],
	"meshes":[
		{
			"name":"tripo_1566b070_2c22_4a8d_9905_0a242aa47d32.001",
			"primitives":[
				{
					"attributes":{
						"POSITION":0,
						"NORMAL":1,
						"TEXCOORD_0":2
					},
					"indices":3,
					"material":0
				}
			]
		},
		{
			"name":"tripo_1566b070_2c22_4a8d_9905_0a242aa47d32.002",
			"primitives":[
				{
					"attributes":{
						"POSITION":4,
						"NORMAL":5,
						"TEXCOORD_0":6
					},
					"indices":7,
					"material":0
				}
			]
		},
		{
			"name":"tripo_1566b070_2c22_4a8d_9905_0a242aa47d32.003",
			"primitives":[
				{
					"attributes":{
						"POSITION":8,
						"NORMAL":9,
						"TEXCOORD_0":10
					},
					"indices":11,
					"material":0
				}
			]
		},
		{
			"name":"tripo_1566b070_2c22_4a8d_9905_0a242aa47d32.004",
			"primitives":[
				{
					"attributes":{
						"POSITION":12,
						"NORMAL":13,
						"TEXCOORD_0":14
					},
					"indices":15,
					"material":0
				}
			]
		},
		{
			"name":"tripo_1566b070_2c22_4a8d_9905_0a242aa47d32.005",
			"primitives":[
				{
					"attributes":{
						"POSITION":16,
						"NORMAL":17,
						"TEXCOORD_0":18
					},
					"indices":19,
					"material":0
				}
			]
		},
		{
			"name":"tripo_1566b070_2c22_4a8d_9905_0a242aa47d32.006",
			"primitives":[
				{
					"attributes":{
						"POSITION":20,
						"NORMAL":21,
						"TEXCOORD_0":22
					},
					"indices":23,
					"material":0
				}
			]
		},
		{
			"name":"tripo_1566b070_2c22_4a8d_9905_0a242aa47d32.007",
			"primitives":[
				{
					"attributes":{
						"POSITION":24,
						"NORMAL":25,
						"TEXCOORD_0":26
					},
					"indices":27,
					"material":0
				}
			]
		},
		{
			"name":"tripo_1566b070_2c22_4a8d_9905_0a242aa47d32.008",
			"primitives":[
				{
					"attributes":{
						"POSITION":28,
						"NORMAL":29,
						"TEXCOORD_0":30
					},
					"indices":31,
					"material":0
				}
			]
		},
		{
			"name":"tripo_1566b070_2c22_4a8d_9905_0a242aa47d32.009",
			"primitives":[
				{
					"attributes":{
						"POSITION":32,
						"NORMAL":33,
						"TEXCOORD_0":34
					},
					"indices":35,
					"material":0
				}
			]
		}
	],
	"textures":[
		{
			"sampler":0,
			"source":0
		}
	],
	"images":[
		{
			"mimeType":"image/jpeg",
			"name":"flowers",
			"uri":"flowers.jpg"
		}
	],
	"accessors":[
		{
			"bufferView":0,
			"componentType":5126,
			"count":1867,
			"max":[
				0.07753326743841171,
				0.21992091834545135,
				0.06896541267633438
			],
			"min":[
				-0.0909963920712471,
				0.001463425694964826,
				-0.06885158270597458
			],
			"type":"VEC3"
		},
		{
			"bufferView":1,
			"componentType":5126,
			"count":1867,
			"type":"VEC3"
		},
		{
			"bufferView":2,
			"componentType":5126,
			"count":1867,
			"type":"VEC2"
		},
		{
			"bufferView":3,
			"componentType":5123,
			"count":2682,
			"type":"SCALAR"
		},
		{
			"bufferView":4,
			"componentType":5126,
			"count":1619,
			"max":[
				0.10020200908184052,
				0.23681640625,
				0.0935058668255806
			],
			"min":[
				-0.098876953125,
				0,
				-0.0935058668255806
			],
			"type":"VEC3"
		},
		{
			"bufferView":5,
			"componentType":5126,
			"count":1619,
			"type":"VEC3"
		},
		{
			"bufferView":6,
			"componentType":5126,
			"count":1619,
			"type":"VEC2"
		},
		{
			"bufferView":7,
			"componentType":5123,
			"count":2685,
			"type":"SCALAR"
		},
		{
			"bufferView":8,
			"componentType":5126,
			"count":1850,
			"max":[
				0.10917086899280548,
				0.2349957972764969,
				0.11931395530700684
			],
			"min":[
				-0.10819172859191895,
				0,
				-0.11948955059051514
			],
			"type":"VEC3"
		},
		{
			"bufferView":9,
			"componentType":5126,
			"count":1850,
			"type":"VEC3"
		},
		{
			"bufferView":10,
			"componentType":5126,
			"count":1850,
			"type":"VEC2"
		},
		{
			"bufferView":11,
			"componentType":5123,
			"count":2625,
			"type":"SCALAR"
		},
		{
			"bufferView":12,
			"componentType":5126,
			"count":1748,
			"max":[
				0.1116042509675026,
				0.24365758895874023,
				0.1162109225988388
			],
			"min":[
				-0.11192257702350616,
				0.00011052266927435994,
				-0.11615661531686783
			],
			"type":"VEC3"
		},
		{
			"bufferView":13,
			"componentType":5126,
			"count":1748,
			"type":"VEC3"
		},
		{
			"bufferView":14,
			"componentType":5126,
			"count":1748,
			"type":"VEC2"
		},
		{
			"bufferView":15,
			"componentType":5123,
			"count":2691,
			"type":"SCALAR"
		},
		{
			"bufferView":16,
			"componentType":5126,
			"count":1973,
			"max":[
				0.09909144043922424,
				0.2359626293182373,
				0.09953241795301437
			],
			"min":[
				-0.10006210952997208,
				-0.0009484118199907243,
				-0.1006733849644661
			],
			"type":"VEC3"
		},
		{
			"bufferView":17,
			"componentType":5126,
			"count":1973,
			"type":"VEC3"
		},
		{
			"bufferView":18,
			"componentType":5126,
			"count":1973,
			"type":"VEC2"
		},
		{
			"bufferView":19,
			"componentType":5123,
			"count":2679,
			"type":"SCALAR"
		},
		{
			"bufferView":20,
			"componentType":5126,
			"count":1255,
			"max":[
				0.11892621964216232,
				0.2261250615119934,
				0.14531482756137848
			],
			"min":[
				-0.11896023899316788,
				0,
				-0.1439826935529709
			],
			"type":"VEC3"
		},
		{
			"bufferView":21,
			"componentType":5126,
			"count":1255,
			"type":"VEC3"
		},
		{
			"bufferView":22,
			"componentType":5126,
			"count":1255,
			"type":"VEC2"
		},
		{
			"bufferView":23,
			"componentType":5123,
			"count":2700,
			"type":"SCALAR"
		},
		{
			"bufferView":24,
			"componentType":5126,
			"count":1710,
			"max":[
				0.10974709689617157,
				0.23498031497001648,
				0.18212977051734924
			],
			"min":[
				-0.109619140625,
				-0.0007144606206566095,
				-0.18101978302001953
			],
			"type":"VEC3"
		},
		{
			"bufferView":25,
			"componentType":5126,
			"count":1710,
			"type":"VEC3"
		},
		{
			"bufferView":26,
			"componentType":5126,
			"count":1710,
			"type":"VEC2"
		},
		{
			"bufferView":27,
			"componentType":5123,
			"count":2697,
			"type":"SCALAR"
		},
		{
			"bufferView":28,
			"componentType":5126,
			"count":1694,
			"max":[
				0.10364097356796265,
				0.21866552531719208,
				0.11541084945201874
			],
			"min":[
				-0.10461007058620453,
				-0.000321520579745993,
				-0.11537304520606995
			],
			"type":"VEC3"
		},
		{
			"bufferView":29,
			"componentType":5126,
			"count":1694,
			"type":"VEC3"
		},
		{
			"bufferView":30,
			"componentType":5126,
			"count":1694,
			"type":"VEC2"
		},
		{
			"bufferView":31,
			"componentType":5123,
			"count":2700,
			"type":"SCALAR"
		},
		{
			"bufferView":32,
			"componentType":5126,
			"count":1871,
			"max":[
				0.11946991831064224,
				0.23109430074691772,
				0.11681623756885529
			],
			"min":[
				-0.11915582418441772,
				-0.00031794377719052136,
				-0.11626414209604263
			],
			"type":"VEC3"
		},
		{
			"bufferView":33,
			"componentType":5126,
			"count":1871,
			"type":"VEC3"
		},
		{
			"bufferView":34,
			"componentType":5126,
			"count":1871,
			"type":"VEC2"
		},
		{
			"bufferView":35,
			"componentType":5123,
			"count":2616,
			"type":"SCALAR"
		}
	],
	"bufferViews":[
		{
			"buffer":0,
			"byteLength":22404,
			"byteOffset":0,
			"target":34962
		},
		{
			"buffer":0,
			"byteLength":22404,
			"byteOffset":22404,
			"target":34962
		},
		{
			"buffer":0,
			"byteLength":14936,
			"byteOffset":44808,
			"target":34962
		},
		{
			"buffer":0,
			"byteLength":5364,
			"byteOffset":59744,
			"target":34963
		},
		{
			"buffer":0,
			"byteLength":19428,
			"byteOffset":65108,
			"target":34962
		},
		{
			"buffer":0,
			"byteLength":19428,
			"byteOffset":84536,
			"target":34962
		},
		{
			"buffer":0,
			"byteLength":12952,
			"byteOffset":103964,
			"target":34962
		},
		{
			"buffer":0,
			"byteLength":5370,
			"byteOffset":116916,
			"target":34963
		},
		{
			"buffer":0,
			"byteLength":22200,
			"byteOffset":122288,
			"target":34962
		},
		{
			"buffer":0,
			"byteLength":22200,
			"byteOffset":144488,
			"target":34962
		},
		{
			"buffer":0,
			"byteLength":14800,
			"byteOffset":166688,
			"target":34962
		},
		{
			"buffer":0,
			"byteLength":5250,
			"byteOffset":181488,
			"target":34963
		},
		{
			"buffer":0,
			"byteLength":20976,
			"byteOffset":186740,
			"target":34962
		},
		{
			"buffer":0,
			"byteLength":20976,
			"byteOffset":207716,
			"target":34962
		},
		{
			"buffer":0,
			"byteLength":13984,
			"byteOffset":228692,
			"target":34962
		},
		{
			"buffer":0,
			"byteLength":5382,
			"byteOffset":242676,
			"target":34963
		},
		{
			"buffer":0,
			"byteLength":23676,
			"byteOffset":248060,
			"target":34962
		},
		{
			"buffer":0,
			"byteLength":23676,
			"byteOffset":271736,
			"target":34962
		},
		{
			"buffer":0,
			"byteLength":15784,
			"byteOffset":295412,
			"target":34962
		},
		{
			"buffer":0,
			"byteLength":5358,
			"byteOffset":311196,
			"target":34963
		},
		{
			"buffer":0,
			"byteLength":15060,
			"byteOffset":316556,
			"target":34962
		},
		{
			"buffer":0,
			"byteLength":15060,
			"byteOffset":331616,
			"target":34962
		},
		{
			"buffer":0,
			"byteLength":10040,
			"byteOffset":346676,
			"target":34962
		},
		{
			"buffer":0,
			"byteLength":5400,
			"byteOffset":356716,
			"target":34963
		},
		{
			"buffer":0,
			"byteLength":20520,
			"byteOffset":362116,
			"target":34962
		},
		{
			"buffer":0,
			"byteLength":20520,
			"byteOffset":382636,
			"target":34962
		},
		{
			"buffer":0,
			"byteLength":13680,
			"byteOffset":403156,
			"target":34962
		},
		{
			"buffer":0,
			"byteLength":5394,
			"byteOffset":416836,
			"target":34963
		},
		{
			"buffer":0,
			"byteLength":20328,
			"byteOffset":422232,
			"target":34962
		},
		{
			"buffer":0,
			"byteLength":20328,
			"byteOffset":442560,
			"target":34962
		},
		{
			"buffer":0,
			"byteLength":13552,
			"byteOffset":462888,
			"target":34962
		},
		{
			"buffer":0,
			"byteLength":5400,
			"byteOffset":476440,
			"target":34963
		},
		{
			"buffer":0,
			"byteLength":22452,
			"byteOffset":481840,
			"target":34962
		},
		{
			"buffer":0,
			"byteLength":22452,
			"byteOffset":504292,
			"target":34962
		},
		{
			"buffer":0,
			"byteLength":14968,
			"byteOffset":526744,
			"target":34962
		},
		{
			"buffer":0,
			"byteLength":5232,
			"byteOffset":541712,
			"target":34963
		}
	],
	"samplers":[
		{
			"magFilter":9729,
			"minFilter":9987
		}
	],
	"buffers":[
		{
			"byteLength":546944,
			"uri":"tri900.bin"
		}
	]
}
