{
	"asset":{
		"generator":"Khronos glTF Blender I/O v4.0.44",
		"version":"2.0"
	},
	"extensionsUsed":[
		"KHR_materials_specular"
	],
	"scene":0,
	"scenes":[
		{
			"name":"Scene",
			"nodes":[
				9
			]
		}
	],
	"nodes":[
		{
			"mesh":0,
			"name":"0:bunchgrass",
			"translation":[
				3.200000047683716,
				0,
				0
			]
		},
		{
			"mesh":1,
			"name":"1:reeds",
			"translation":[
				3.200000047683716,
				0,
				0
			]
		},
		{
			"mesh":2,
			"name":"2:dry grass",
			"translation":[
				3.200000047683716,
				0,
				0
			]
		},
		{
			"mesh":3,
			"name":"3:broad-leaf hosta",
			"translation":[
				3.200000047683716,
				0,
				0
			]
		},
		{
			"mesh":4,
			"name":"4:clover",
			"translation":[
				3.200000047683716,
				0,
				0
			]
		},
		{
			"mesh":5,
			"name":"5:wild strawberry",
			"translation":[
				3.200000047683716,
				0,
				0
			]
		},
		{
			"mesh":6,
			"name":"6:dandelion",
			"translation":[
				3.200000047683716,
				0,
				0
			]
		},
		{
			"mesh":7,
			"name":"7:plantain",
			"translation":[
				3.200000047683716,
				0,
				0
			]
		},
		{
			"mesh":8,
			"name":"8:purple-top grass",
			"translation":[
				3.200000047683716,
				0,
				0
			]
		},
		{
			"children":[
				0,
				1,
				2,
				3,
				4,
				5,
				6,
				7,
				8
			],
			"name":"RootNode"
		}
	],
	"materials":[
		{
			"doubleSided":true,
			"extensions":{
				"KHR_materials_specular":{
					"specularColorFactor":[
						0.800000011920929,
						0.800000011920929,
						0.800000011920929
					]
				}
			},
			"name":"tripo_3e62f4ee_f659_486c_81fc_55de62da6876",
			"pbrMetallicRoughness":{
				"baseColorFactor":[
					0.800000011920929,
					0.800000011920929,
					0.800000011920929,
					1
				],
				"baseColorTexture":{
					"index":0
				},
				"metallicFactor":0,
				"roughnessFactor":0.5
			}
		}
	],
	"meshes":[
		{
			"name":"tripo_3e62f4ee_f659_486c_81fc_55de62da6876.001",
			"primitives":[
				{
					"attributes":{
						"POSITION":0,
						"NORMAL":1,
						"TEXCOORD_0":2
					},
					"indices":3,
					"material":0
				}
			]
		},
		{
			"name":"tripo_3e62f4ee_f659_486c_81fc_55de62da6876.002",
			"primitives":[
				{
					"attributes":{
						"POSITION":4,
						"NORMAL":5,
						"TEXCOORD_0":6
					},
					"indices":7,
					"material":0
				}
			]
		},
		{
			"name":"tripo_3e62f4ee_f659_486c_81fc_55de62da6876.003",
			"primitives":[
				{
					"attributes":{
						"POSITION":8,
						"NORMAL":9,
						"TEXCOORD_0":10
					},
					"indices":11,
					"material":0
				}
			]
		},
		{
			"name":"tripo_3e62f4ee_f659_486c_81fc_55de62da6876.004",
			"primitives":[
				{
					"attributes":{
						"POSITION":12,
						"NORMAL":13,
						"TEXCOORD_0":14
					},
					"indices":15,
					"material":0
				}
			]
		},
		{
			"name":"tripo_3e62f4ee_f659_486c_81fc_55de62da6876.005",
			"primitives":[
				{
					"attributes":{
						"POSITION":16,
						"NORMAL":17,
						"TEXCOORD_0":18
					},
					"indices":19,
					"material":0
				}
			]
		},
		{
			"name":"tripo_3e62f4ee_f659_486c_81fc_55de62da6876.006",
			"primitives":[
				{
					"attributes":{
						"POSITION":20,
						"NORMAL":21,
						"TEXCOORD_0":22
					},
					"indices":23,
					"material":0
				}
			]
		},
		{
			"name":"tripo_3e62f4ee_f659_486c_81fc_55de62da6876.007",
			"primitives":[
				{
					"attributes":{
						"POSITION":24,
						"NORMAL":25,
						"TEXCOORD_0":26
					},
					"indices":27,
					"material":0
				}
			]
		},
		{
			"name":"tripo_3e62f4ee_f659_486c_81fc_55de62da6876.008",
			"primitives":[
				{
					"attributes":{
						"POSITION":28,
						"NORMAL":29,
						"TEXCOORD_0":30
					},
					"indices":31,
					"material":0
				}
			]
		},
		{
			"name":"tripo_3e62f4ee_f659_486c_81fc_55de62da6876.009",
			"primitives":[
				{
					"attributes":{
						"POSITION":32,
						"NORMAL":33,
						"TEXCOORD_0":34
					},
					"indices":35,
					"material":0
				}
			]
		}
	],
	"textures":[
		{
			"sampler":0,
			"source":0
		}
	],
	"images":[
		{
			"mimeType":"image/jpeg",
			"name":"grassesLow",
			"uri":"grassesLow.jpg"
		}
	],
	"accessors":[
		{
			"bufferView":0,
			"componentType":5126,
			"count":2421,
			"max":[
				0.136962890625,
				0.28564453125,
				0.154541015625
			],
			"min":[
				-0.136962890625,
				0,
				-0.154541015625
			],
			"type":"VEC3"
		},
		{
			"bufferView":1,
			"componentType":5126,
			"count":2421,
			"type":"VEC3"
		},
		{
			"bufferView":2,
			"componentType":5126,
			"count":2421,
			"type":"VEC2"
		},
		{
			"bufferView":3,
			"componentType":5123,
			"count":5298,
			"type":"SCALAR"
		},
		{
			"bufferView":4,
			"componentType":5126,
			"count":3301,
			"max":[
				0.142333984375,
				0.24853515625,
				0.17529296875
			],
			"min":[
				-0.142333984375,
				0,
				-0.17529296875
			],
			"type":"VEC3"
		},
		{
			"bufferView":5,
			"componentType":5126,
			"count":3301,
			"type":"VEC3"
		},
		{
			"bufferView":6,
			"componentType":5126,
			"count":3301,
			"type":"VEC2"
		},
		{
			"bufferView":7,
			"componentType":5123,
			"count":7809,
			"type":"SCALAR"
		},
		{
			"bufferView":8,
			"componentType":5126,
			"count":2396,
			"max":[
				0.1357421875,
				0.27685546875,
				0.15283203125
			],
			"min":[
				-0.1357421875,
				0,
				-0.15283203125
			],
			"type":"VEC3"
		},
		{
			"bufferView":9,
			"componentType":5126,
			"count":2396,
			"type":"VEC3"
		},
		{
			"bufferView":10,
			"componentType":5126,
			"count":2396,
			"type":"VEC2"
		},
		{
			"bufferView":11,
			"componentType":5123,
			"count":5268,
			"type":"SCALAR"
		},
		{
			"bufferView":12,
			"componentType":5126,
			"count":5295,
			"max":[
				0.153076171875,
				0.22998046875,
				0.169921875
			],
			"min":[
				-0.153076171875,
				0,
				-0.169921875
			],
			"type":"VEC3"
		},
		{
			"bufferView":13,
			"componentType":5126,
			"count":5295,
			"type":"VEC3"
		},
		{
			"bufferView":14,
			"componentType":5126,
			"count":5295,
			"type":"VEC2"
		},
		{
			"bufferView":15,
			"componentType":5123,
			"count":13059,
			"type":"SCALAR"
		},
		{
			"bufferView":16,
			"componentType":5126,
			"count":8939,
			"max":[
				0.142578125,
				0.18994140625,
				0.12158203125
			],
			"min":[
				-0.142578125,
				0,
				-0.12158203125
			],
			"type":"VEC3"
		},
		{
			"bufferView":17,
			"componentType":5126,
			"count":8939,
			"type":"VEC3"
		},
		{
			"bufferView":18,
			"componentType":5126,
			"count":8939,
			"type":"VEC2"
		},
		{
			"bufferView":19,
			"componentType":5123,
			"count":18927,
			"type":"SCALAR"
		},
		{
			"bufferView":20,
			"componentType":5126,
			"count":7086,
			"max":[
				0.14892578125,
				0.1884765625,
				0.14794921875
			],
			"min":[
				-0.14892578125,
				0,
				-0.14794921875
			],
			"type":"VEC3"
		},
		{
			"bufferView":21,
			"componentType":5126,
			"count":7086,
			"type":"VEC3"
		},
		{
			"bufferView":22,
			"componentType":5126,
			"count":7086,
			"type":"VEC2"
		},
		{
			"bufferView":23,
			"componentType":5123,
			"count":15087,
			"type":"SCALAR"
		},
		{
			"bufferView":24,
			"componentType":5126,
			"count":8708,
			"max":[
				0.142333984375,
				0.26220703125,
				0.145751953125
			],
			"min":[
				-0.142333984375,
				0,
				-0.145751953125
			],
			"type":"VEC3"
		},
		{
			"bufferView":25,
			"componentType":5126,
			"count":8708,
			"type":"VEC3"
		},
		{
			"bufferView":26,
			"componentType":5126,
			"count":8708,
			"type":"VEC2"
		},
		{
			"bufferView":27,
			"componentType":5123,
			"count":19989,
			"type":"SCALAR"
		},
		{
			"bufferView":28,
			"componentType":5126,
			"count":3813,
			"max":[
				0.151611328125,
				0.27001953125,
				0.13916015625
			],
			"min":[
				-0.151611328125,
				0,
				-0.13916015625
			],
			"type":"VEC3"
		},
		{
			"bufferView":29,
			"componentType":5126,
			"count":3813,
			"type":"VEC3"
		},
		{
			"bufferView":30,
			"componentType":5126,
			"count":3813,
			"type":"VEC2"
		},
		{
			"bufferView":31,
			"componentType":5123,
			"count":9561,
			"type":"SCALAR"
		},
		{
			"bufferView":32,
			"componentType":5126,
			"count":13413,
			"max":[
				0.147705078125,
				0.259765625,
				0.14501953125
			],
			"min":[
				-0.147705078125,
				0,
				-0.14501953125
			],
			"type":"VEC3"
		},
		{
			"bufferView":33,
			"componentType":5126,
			"count":13413,
			"type":"VEC3"
		},
		{
			"bufferView":34,
			"componentType":5126,
			"count":13413,
			"type":"VEC2"
		},
		{
			"bufferView":35,
			"componentType":5123,
			"count":25479,
			"type":"SCALAR"
		}
	],
	"bufferViews":[
		{
			"buffer":0,
			"byteLength":29052,
			"byteOffset":0,
			"target":34962
		},
		{
			"buffer":0,
			"byteLength":29052,
			"byteOffset":29052,
			"target":34962
		},
		{
			"buffer":0,
			"byteLength":19368,
			"byteOffset":58104,
			"target":34962
		},
		{
			"buffer":0,
			"byteLength":10596,
			"byteOffset":77472,
			"target":34963
		},
		{
			"buffer":0,
			"byteLength":39612,
			"byteOffset":88068,
			"target":34962
		},
		{
			"buffer":0,
			"byteLength":39612,
			"byteOffset":127680,
			"target":34962
		},
		{
			"buffer":0,
			"byteLength":26408,
			"byteOffset":167292,
			"target":34962
		},
		{
			"buffer":0,
			"byteLength":15618,
			"byteOffset":193700,
			"target":34963
		},
		{
			"buffer":0,
			"byteLength":28752,
			"byteOffset":209320,
			"target":34962
		},
		{
			"buffer":0,
			"byteLength":28752,
			"byteOffset":238072,
			"target":34962
		},
		{
			"buffer":0,
			"byteLength":19168,
			"byteOffset":266824,
			"target":34962
		},
		{
			"buffer":0,
			"byteLength":10536,
			"byteOffset":285992,
			"target":34963
		},
		{
			"buffer":0,
			"byteLength":63540,
			"byteOffset":296528,
			"target":34962
		},
		{
			"buffer":0,
			"byteLength":63540,
			"byteOffset":360068,
			"target":34962
		},
		{
			"buffer":0,
			"byteLength":42360,
			"byteOffset":423608,
			"target":34962
		},
		{
			"buffer":0,
			"byteLength":26118,
			"byteOffset":465968,
			"target":34963
		},
		{
			"buffer":0,
			"byteLength":107268,
			"byteOffset":492088,
			"target":34962
		},
		{
			"buffer":0,
			"byteLength":107268,
			"byteOffset":599356,
			"target":34962
		},
		{
			"buffer":0,
			"byteLength":71512,
			"byteOffset":706624,
			"target":34962
		},
		{
			"buffer":0,
			"byteLength":37854,
			"byteOffset":778136,
			"target":34963
		},
		{
			"buffer":0,
			"byteLength":85032,
			"byteOffset":815992,
			"target":34962
		},
		{
			"buffer":0,
			"byteLength":85032,
			"byteOffset":901024,
			"target":34962
		},
		{
			"buffer":0,
			"byteLength":56688,
			"byteOffset":986056,
			"target":34962
		},
		{
			"buffer":0,
			"byteLength":30174,
			"byteOffset":1042744,
			"target":34963
		},
		{
			"buffer":0,
			"byteLength":104496,
			"byteOffset":1072920,
			"target":34962
		},
		{
			"buffer":0,
			"byteLength":104496,
			"byteOffset":1177416,
			"target":34962
		},
		{
			"buffer":0,
			"byteLength":69664,
			"byteOffset":1281912,
			"target":34962
		},
		{
			"buffer":0,
			"byteLength":39978,
			"byteOffset":1351576,
			"target":34963
		},
		{
			"buffer":0,
			"byteLength":45756,
			"byteOffset":1391556,
			"target":34962
		},
		{
			"buffer":0,
			"byteLength":45756,
			"byteOffset":1437312,
			"target":34962
		},
		{
			"buffer":0,
			"byteLength":30504,
			"byteOffset":1483068,
			"target":34962
		},
		{
			"buffer":0,
			"byteLength":19122,
			"byteOffset":1513572,
			"target":34963
		},
		{
			"buffer":0,
			"byteLength":160956,
			"byteOffset":1532696,
			"target":34962
		},
		{
			"buffer":0,
			"byteLength":160956,
			"byteOffset":1693652,
			"target":34962
		},
		{
			"buffer":0,
			"byteLength":107304,
			"byteOffset":1854608,
			"target":34962
		},
		{
			"buffer":0,
			"byteLength":50958,
			"byteOffset":1961912,
			"target":34963
		}
	],
	"samplers":[
		{
			"magFilter":9729,
			"minFilter":9987
		}
	],
	"buffers":[
		{
			"byteLength":2012872,
			"uri":"fixed.bin"
		}
	]
}
