{
	"asset":{
		"generator":"Khronos glTF Blender I/O v4.0.44",
		"version":"2.0"
	},
	"extensionsUsed":[
		"KHR_materials_specular"
	],
	"scene":0,
	"scenes":[
		{
			"name":"Scene",
			"nodes":[
				9
			]
		}
	],
	"nodes":[
		{
			"mesh":0,
			"name":"0:bunchgrass",
			"translation":[
				3.200000047683716,
				0,
				0
			]
		},
		{
			"mesh":1,
			"name":"1:reeds",
			"translation":[
				3.200000047683716,
				0,
				0
			]
		},
		{
			"mesh":2,
			"name":"2:dry grass",
			"translation":[
				3.200000047683716,
				0,
				0
			]
		},
		{
			"mesh":3,
			"name":"3:broad-leaf hosta",
			"translation":[
				3.200000047683716,
				0,
				0
			]
		},
		{
			"mesh":4,
			"name":"4:clover",
			"translation":[
				3.200000047683716,
				0,
				0
			]
		},
		{
			"mesh":5,
			"name":"5:wild strawberry",
			"translation":[
				3.200000047683716,
				0,
				0
			]
		},
		{
			"mesh":6,
			"name":"6:dandelion",
			"translation":[
				3.200000047683716,
				0,
				0
			]
		},
		{
			"mesh":7,
			"name":"7:plantain",
			"translation":[
				3.200000047683716,
				0,
				0
			]
		},
		{
			"mesh":8,
			"name":"8:purple-top grass",
			"translation":[
				3.200000047683716,
				0,
				0
			]
		},
		{
			"children":[
				0,
				1,
				2,
				3,
				4,
				5,
				6,
				7,
				8
			],
			"name":"RootNode"
		}
	],
	"materials":[
		{
			"doubleSided":true,
			"extensions":{
				"KHR_materials_specular":{
					"specularColorFactor":[
						0.800000011920929,
						0.800000011920929,
						0.800000011920929
					]
				}
			},
			"name":"tripo_3e62f4ee_f659_486c_81fc_55de62da6876",
			"pbrMetallicRoughness":{
				"baseColorFactor":[
					0.800000011920929,
					0.800000011920929,
					0.800000011920929,
					1
				],
				"baseColorTexture":{
					"index":0
				},
				"metallicFactor":0,
				"roughnessFactor":0.5
			}
		}
	],
	"meshes":[
		{
			"name":"tripo_3e62f4ee_f659_486c_81fc_55de62da6876.001",
			"primitives":[
				{
					"attributes":{
						"POSITION":0,
						"NORMAL":1,
						"TEXCOORD_0":2
					},
					"indices":3,
					"material":0
				}
			]
		},
		{
			"name":"tripo_3e62f4ee_f659_486c_81fc_55de62da6876.002",
			"primitives":[
				{
					"attributes":{
						"POSITION":4,
						"NORMAL":5,
						"TEXCOORD_0":6
					},
					"indices":7,
					"material":0
				}
			]
		},
		{
			"name":"tripo_3e62f4ee_f659_486c_81fc_55de62da6876.003",
			"primitives":[
				{
					"attributes":{
						"POSITION":8,
						"NORMAL":9,
						"TEXCOORD_0":10
					},
					"indices":11,
					"material":0
				}
			]
		},
		{
			"name":"tripo_3e62f4ee_f659_486c_81fc_55de62da6876.004",
			"primitives":[
				{
					"attributes":{
						"POSITION":12,
						"NORMAL":13,
						"TEXCOORD_0":14
					},
					"indices":15,
					"material":0
				}
			]
		},
		{
			"name":"tripo_3e62f4ee_f659_486c_81fc_55de62da6876.005",
			"primitives":[
				{
					"attributes":{
						"POSITION":16,
						"NORMAL":17,
						"TEXCOORD_0":18
					},
					"indices":19,
					"material":0
				}
			]
		},
		{
			"name":"tripo_3e62f4ee_f659_486c_81fc_55de62da6876.006",
			"primitives":[
				{
					"attributes":{
						"POSITION":20,
						"NORMAL":21,
						"TEXCOORD_0":22
					},
					"indices":23,
					"material":0
				}
			]
		},
		{
			"name":"tripo_3e62f4ee_f659_486c_81fc_55de62da6876.007",
			"primitives":[
				{
					"attributes":{
						"POSITION":24,
						"NORMAL":25,
						"TEXCOORD_0":26
					},
					"indices":27,
					"material":0
				}
			]
		},
		{
			"name":"tripo_3e62f4ee_f659_486c_81fc_55de62da6876.008",
			"primitives":[
				{
					"attributes":{
						"POSITION":28,
						"NORMAL":29,
						"TEXCOORD_0":30
					},
					"indices":31,
					"material":0
				}
			]
		},
		{
			"name":"tripo_3e62f4ee_f659_486c_81fc_55de62da6876.009",
			"primitives":[
				{
					"attributes":{
						"POSITION":32,
						"NORMAL":33,
						"TEXCOORD_0":34
					},
					"indices":35,
					"material":0
				}
			]
		}
	],
	"textures":[
		{
			"sampler":0,
			"source":0
		}
	],
	"images":[
		{
			"mimeType":"image/jpeg",
			"name":"grassesLow",
			"uri":"grassesLow.jpg"
		}
	],
	"accessors":[
		{
			"bufferView":0,
			"componentType":5126,
			"count":620,
			"max":[
				0.13535933196544647,
				0.28564453125,
				0.1555939018726349
			],
			"min":[
				-0.12665864825248718,
				-0.0003913919208571315,
				-0.1442871391773224
			],
			"type":"VEC3"
		},
		{
			"bufferView":1,
			"componentType":5126,
			"count":620,
			"type":"VEC3"
		},
		{
			"bufferView":2,
			"componentType":5126,
			"count":620,
			"type":"VEC2"
		},
		{
			"bufferView":3,
			"componentType":5123,
			"count":900,
			"type":"SCALAR"
		},
		{
			"bufferView":4,
			"componentType":5126,
			"count":631,
			"max":[
				0.14157406985759735,
				0.24242283403873444,
				0.17543335258960724
			],
			"min":[
				-0.14235182106494904,
				-0.002304792171344161,
				-0.16457390785217285
			],
			"type":"VEC3"
		},
		{
			"bufferView":5,
			"componentType":5126,
			"count":631,
			"type":"VEC3"
		},
		{
			"bufferView":6,
			"componentType":5126,
			"count":631,
			"type":"VEC2"
		},
		{
			"bufferView":7,
			"componentType":5123,
			"count":897,
			"type":"SCALAR"
		},
		{
			"bufferView":8,
			"componentType":5126,
			"count":617,
			"max":[
				0.1325261890888214,
				0.27685546875,
				0.1508827954530716
			],
			"min":[
				-0.13338801264762878,
				-0.0002616862184368074,
				-0.1401463896036148
			],
			"type":"VEC3"
		},
		{
			"bufferView":9,
			"componentType":5126,
			"count":617,
			"type":"VEC3"
		},
		{
			"bufferView":10,
			"componentType":5126,
			"count":617,
			"type":"VEC2"
		},
		{
			"bufferView":11,
			"componentType":5123,
			"count":897,
			"type":"SCALAR"
		},
		{
			"bufferView":12,
			"componentType":5126,
			"count":684,
			"max":[
				0.1552140861749649,
				0.23098450899124146,
				0.16748695075511932
			],
			"min":[
				-0.1524265855550766,
				0.000528262578882277,
				-0.17587746679782867
			],
			"type":"VEC3"
		},
		{
			"bufferView":13,
			"componentType":5126,
			"count":684,
			"type":"VEC3"
		},
		{
			"bufferView":14,
			"componentType":5126,
			"count":684,
			"type":"VEC2"
		},
		{
			"bufferView":15,
			"componentType":5123,
			"count":897,
			"type":"SCALAR"
		},
		{
			"bufferView":16,
			"componentType":5126,
			"count":704,
			"max":[
				0.14269617199897766,
				0.16280245780944824,
				0.0997546836733818
			],
			"min":[
				-0.142578125,
				-0.013342884369194508,
				-0.11669921875
			],
			"type":"VEC3"
		},
		{
			"bufferView":17,
			"componentType":5126,
			"count":704,
			"type":"VEC3"
		},
		{
			"bufferView":18,
			"componentType":5126,
			"count":704,
			"type":"VEC2"
		},
		{
			"bufferView":19,
			"componentType":5123,
			"count":870,
			"type":"SCALAR"
		},
		{
			"bufferView":20,
			"componentType":5126,
			"count":671,
			"max":[
				0.14425790309906006,
				0.1791972666978836,
				0.14083579182624817
			],
			"min":[
				-0.1403471976518631,
				0.0012040096335113049,
				-0.14337296783924103
			],
			"type":"VEC3"
		},
		{
			"bufferView":21,
			"componentType":5126,
			"count":671,
			"type":"VEC3"
		},
		{
			"bufferView":22,
			"componentType":5126,
			"count":671,
			"type":"VEC2"
		},
		{
			"bufferView":23,
			"componentType":5123,
			"count":846,
			"type":"SCALAR"
		},
		{
			"bufferView":24,
			"componentType":5126,
			"count":685,
			"max":[
				0.13334132730960846,
				0.2628212571144104,
				0.0905006006360054
			],
			"min":[
				-0.1061830148100853,
				-0.022329358384013176,
				-0.09259548783302307
			],
			"type":"VEC3"
		},
		{
			"bufferView":25,
			"componentType":5126,
			"count":685,
			"type":"VEC3"
		},
		{
			"bufferView":26,
			"componentType":5126,
			"count":685,
			"type":"VEC2"
		},
		{
			"bufferView":27,
			"componentType":5123,
			"count":876,
			"type":"SCALAR"
		},
		{
			"bufferView":28,
			"componentType":5126,
			"count":587,
			"max":[
				0.15217894315719604,
				0.2727176249027252,
				0.14102959632873535
			],
			"min":[
				-0.1514023244380951,
				-0.0010795340640470386,
				-0.13963273167610168
			],
			"type":"VEC3"
		},
		{
			"bufferView":29,
			"componentType":5126,
			"count":587,
			"type":"VEC3"
		},
		{
			"bufferView":30,
			"componentType":5126,
			"count":587,
			"type":"VEC2"
		},
		{
			"bufferView":31,
			"componentType":5123,
			"count":900,
			"type":"SCALAR"
		},
		{
			"bufferView":32,
			"componentType":5126,
			"count":626,
			"max":[
				0.092529296875,
				0.25971895456314087,
				0.09487992525100708
			],
			"min":[
				-0.09851368516683578,
				0.005348594393581152,
				-0.10964484512805939
			],
			"type":"VEC3"
		},
		{
			"bufferView":33,
			"componentType":5126,
			"count":626,
			"type":"VEC3"
		},
		{
			"bufferView":34,
			"componentType":5126,
			"count":626,
			"type":"VEC2"
		},
		{
			"bufferView":35,
			"componentType":5123,
			"count":807,
			"type":"SCALAR"
		}
	],
	"bufferViews":[
		{
			"buffer":0,
			"byteLength":7440,
			"byteOffset":0,
			"target":34962
		},
		{
			"buffer":0,
			"byteLength":7440,
			"byteOffset":7440,
			"target":34962
		},
		{
			"buffer":0,
			"byteLength":4960,
			"byteOffset":14880,
			"target":34962
		},
		{
			"buffer":0,
			"byteLength":1800,
			"byteOffset":19840,
			"target":34963
		},
		{
			"buffer":0,
			"byteLength":7572,
			"byteOffset":21640,
			"target":34962
		},
		{
			"buffer":0,
			"byteLength":7572,
			"byteOffset":29212,
			"target":34962
		},
		{
			"buffer":0,
			"byteLength":5048,
			"byteOffset":36784,
			"target":34962
		},
		{
			"buffer":0,
			"byteLength":1794,
			"byteOffset":41832,
			"target":34963
		},
		{
			"buffer":0,
			"byteLength":7404,
			"byteOffset":43628,
			"target":34962
		},
		{
			"buffer":0,
			"byteLength":7404,
			"byteOffset":51032,
			"target":34962
		},
		{
			"buffer":0,
			"byteLength":4936,
			"byteOffset":58436,
			"target":34962
		},
		{
			"buffer":0,
			"byteLength":1794,
			"byteOffset":63372,
			"target":34963
		},
		{
			"buffer":0,
			"byteLength":8208,
			"byteOffset":65168,
			"target":34962
		},
		{
			"buffer":0,
			"byteLength":8208,
			"byteOffset":73376,
			"target":34962
		},
		{
			"buffer":0,
			"byteLength":5472,
			"byteOffset":81584,
			"target":34962
		},
		{
			"buffer":0,
			"byteLength":1794,
			"byteOffset":87056,
			"target":34963
		},
		{
			"buffer":0,
			"byteLength":8448,
			"byteOffset":88852,
			"target":34962
		},
		{
			"buffer":0,
			"byteLength":8448,
			"byteOffset":97300,
			"target":34962
		},
		{
			"buffer":0,
			"byteLength":5632,
			"byteOffset":105748,
			"target":34962
		},
		{
			"buffer":0,
			"byteLength":1740,
			"byteOffset":111380,
			"target":34963
		},
		{
			"buffer":0,
			"byteLength":8052,
			"byteOffset":113120,
			"target":34962
		},
		{
			"buffer":0,
			"byteLength":8052,
			"byteOffset":121172,
			"target":34962
		},
		{
			"buffer":0,
			"byteLength":5368,
			"byteOffset":129224,
			"target":34962
		},
		{
			"buffer":0,
			"byteLength":1692,
			"byteOffset":134592,
			"target":34963
		},
		{
			"buffer":0,
			"byteLength":8220,
			"byteOffset":136284,
			"target":34962
		},
		{
			"buffer":0,
			"byteLength":8220,
			"byteOffset":144504,
			"target":34962
		},
		{
			"buffer":0,
			"byteLength":5480,
			"byteOffset":152724,
			"target":34962
		},
		{
			"buffer":0,
			"byteLength":1752,
			"byteOffset":158204,
			"target":34963
		},
		{
			"buffer":0,
			"byteLength":7044,
			"byteOffset":159956,
			"target":34962
		},
		{
			"buffer":0,
			"byteLength":7044,
			"byteOffset":167000,
			"target":34962
		},
		{
			"buffer":0,
			"byteLength":4696,
			"byteOffset":174044,
			"target":34962
		},
		{
			"buffer":0,
			"byteLength":1800,
			"byteOffset":178740,
			"target":34963
		},
		{
			"buffer":0,
			"byteLength":7512,
			"byteOffset":180540,
			"target":34962
		},
		{
			"buffer":0,
			"byteLength":7512,
			"byteOffset":188052,
			"target":34962
		},
		{
			"buffer":0,
			"byteLength":5008,
			"byteOffset":195564,
			"target":34962
		},
		{
			"buffer":0,
			"byteLength":1614,
			"byteOffset":200572,
			"target":34963
		}
	],
	"samplers":[
		{
			"magFilter":9729,
			"minFilter":9987
		}
	],
	"buffers":[
		{
			"byteLength":202188,
			"uri":"tri300.bin"
		}
	]
}
