{
	"asset":{
		"generator":"Khronos glTF Blender I/O v4.0.44",
		"version":"2.0"
	},
	"extensionsUsed":[
		"KHR_materials_specular"
	],
	"scene":0,
	"scenes":[
		{
			"name":"Scene",
			"nodes":[
				9
			]
		}
	],
	"nodes":[
		{
			"mesh":0,
			"name":"0:bunchgrass",
			"translation":[
				3.200000047683716,
				0,
				0
			]
		},
		{
			"mesh":1,
			"name":"1:reeds",
			"translation":[
				3.200000047683716,
				0,
				0
			]
		},
		{
			"mesh":2,
			"name":"2:dry grass",
			"translation":[
				3.200000047683716,
				0,
				0
			]
		},
		{
			"mesh":3,
			"name":"3:broad-leaf hosta",
			"translation":[
				3.200000047683716,
				0,
				0
			]
		},
		{
			"mesh":4,
			"name":"4:clover",
			"translation":[
				3.200000047683716,
				0,
				0
			]
		},
		{
			"mesh":5,
			"name":"5:wild strawberry",
			"translation":[
				3.200000047683716,
				0,
				0
			]
		},
		{
			"mesh":6,
			"name":"6:dandelion",
			"translation":[
				3.200000047683716,
				0,
				0
			]
		},
		{
			"mesh":7,
			"name":"7:plantain",
			"translation":[
				3.200000047683716,
				0,
				0
			]
		},
		{
			"mesh":8,
			"name":"8:purple-top grass",
			"translation":[
				3.200000047683716,
				0,
				0
			]
		},
		{
			"children":[
				0,
				1,
				2,
				3,
				4,
				5,
				6,
				7,
				8
			],
			"name":"RootNode"
		}
	],
	"materials":[
		{
			"doubleSided":true,
			"extensions":{
				"KHR_materials_specular":{
					"specularColorFactor":[
						0.800000011920929,
						0.800000011920929,
						0.800000011920929
					]
				}
			},
			"name":"tripo_3e62f4ee_f659_486c_81fc_55de62da6876",
			"pbrMetallicRoughness":{
				"baseColorFactor":[
					0.800000011920929,
					0.800000011920929,
					0.800000011920929,
					1
				],
				"baseColorTexture":{
					"index":0
				},
				"metallicFactor":0,
				"roughnessFactor":0.5
			}
		}
	],
	"meshes":[
		{
			"name":"tripo_3e62f4ee_f659_486c_81fc_55de62da6876.001",
			"primitives":[
				{
					"attributes":{
						"POSITION":0,
						"NORMAL":1,
						"TEXCOORD_0":2
					},
					"indices":3,
					"material":0
				}
			]
		},
		{
			"name":"tripo_3e62f4ee_f659_486c_81fc_55de62da6876.002",
			"primitives":[
				{
					"attributes":{
						"POSITION":4,
						"NORMAL":5,
						"TEXCOORD_0":6
					},
					"indices":7,
					"material":0
				}
			]
		},
		{
			"name":"tripo_3e62f4ee_f659_486c_81fc_55de62da6876.003",
			"primitives":[
				{
					"attributes":{
						"POSITION":8,
						"NORMAL":9,
						"TEXCOORD_0":10
					},
					"indices":11,
					"material":0
				}
			]
		},
		{
			"name":"tripo_3e62f4ee_f659_486c_81fc_55de62da6876.004",
			"primitives":[
				{
					"attributes":{
						"POSITION":12,
						"NORMAL":13,
						"TEXCOORD_0":14
					},
					"indices":15,
					"material":0
				}
			]
		},
		{
			"name":"tripo_3e62f4ee_f659_486c_81fc_55de62da6876.005",
			"primitives":[
				{
					"attributes":{
						"POSITION":16,
						"NORMAL":17,
						"TEXCOORD_0":18
					},
					"indices":19,
					"material":0
				}
			]
		},
		{
			"name":"tripo_3e62f4ee_f659_486c_81fc_55de62da6876.006",
			"primitives":[
				{
					"attributes":{
						"POSITION":20,
						"NORMAL":21,
						"TEXCOORD_0":22
					},
					"indices":23,
					"material":0
				}
			]
		},
		{
			"name":"tripo_3e62f4ee_f659_486c_81fc_55de62da6876.007",
			"primitives":[
				{
					"attributes":{
						"POSITION":24,
						"NORMAL":25,
						"TEXCOORD_0":26
					},
					"indices":27,
					"material":0
				}
			]
		},
		{
			"name":"tripo_3e62f4ee_f659_486c_81fc_55de62da6876.008",
			"primitives":[
				{
					"attributes":{
						"POSITION":28,
						"NORMAL":29,
						"TEXCOORD_0":30
					},
					"indices":31,
					"material":0
				}
			]
		},
		{
			"name":"tripo_3e62f4ee_f659_486c_81fc_55de62da6876.009",
			"primitives":[
				{
					"attributes":{
						"POSITION":32,
						"NORMAL":33,
						"TEXCOORD_0":34
					},
					"indices":35,
					"material":0
				}
			]
		}
	],
	"textures":[
		{
			"sampler":0,
			"source":0
		}
	],
	"images":[
		{
			"mimeType":"image/jpeg",
			"name":"grassesLow",
			"uri":"grassesLow.jpg"
		}
	],
	"accessors":[
		{
			"bufferView":0,
			"componentType":5126,
			"count":1047,
			"max":[
				0.135498046875,
				0.28564453125,
				0.15559984743595123
			],
			"min":[
				-0.136962890625,
				0.00039662548806518316,
				-0.1442871391773224
			],
			"type":"VEC3"
		},
		{
			"bufferView":1,
			"componentType":5126,
			"count":1047,
			"type":"VEC3"
		},
		{
			"bufferView":2,
			"componentType":5126,
			"count":1047,
			"type":"VEC2"
		},
		{
			"bufferView":3,
			"componentType":5123,
			"count":1800,
			"type":"SCALAR"
		},
		{
			"bufferView":4,
			"componentType":5126,
			"count":1071,
			"max":[
				0.14177656173706055,
				0.24853515625,
				0.17529296875
			],
			"min":[
				-0.14235182106494904,
				0,
				-0.17529296875
			],
			"type":"VEC3"
		},
		{
			"bufferView":5,
			"componentType":5126,
			"count":1071,
			"type":"VEC3"
		},
		{
			"bufferView":6,
			"componentType":5126,
			"count":1071,
			"type":"VEC2"
		},
		{
			"bufferView":7,
			"componentType":5123,
			"count":1800,
			"type":"SCALAR"
		},
		{
			"bufferView":8,
			"componentType":5126,
			"count":1047,
			"max":[
				0.13525390625,
				0.27685546875,
				0.15283203125
			],
			"min":[
				-0.1357421875,
				0.0012321773683652282,
				-0.1450195610523224
			],
			"type":"VEC3"
		},
		{
			"bufferView":9,
			"componentType":5126,
			"count":1047,
			"type":"VEC3"
		},
		{
			"bufferView":10,
			"componentType":5126,
			"count":1047,
			"type":"VEC2"
		},
		{
			"bufferView":11,
			"componentType":5123,
			"count":1797,
			"type":"SCALAR"
		},
		{
			"bufferView":12,
			"componentType":5126,
			"count":1160,
			"max":[
				0.15306159853935242,
				0.2312128096818924,
				0.16745918989181519
			],
			"min":[
				-0.1529340147972107,
				0.0005315858288668096,
				-0.16986680030822754
			],
			"type":"VEC3"
		},
		{
			"bufferView":13,
			"componentType":5126,
			"count":1160,
			"type":"VEC3"
		},
		{
			"bufferView":14,
			"componentType":5126,
			"count":1160,
			"type":"VEC2"
		},
		{
			"bufferView":15,
			"componentType":5123,
			"count":1800,
			"type":"SCALAR"
		},
		{
			"bufferView":16,
			"componentType":5126,
			"count":1467,
			"max":[
				0.14269617199897766,
				0.18994140625,
				0.11839798837900162
			],
			"min":[
				-0.142578125,
				-0.013315729796886444,
				-0.11669921875
			],
			"type":"VEC3"
		},
		{
			"bufferView":17,
			"componentType":5126,
			"count":1467,
			"type":"VEC3"
		},
		{
			"bufferView":18,
			"componentType":5126,
			"count":1467,
			"type":"VEC2"
		},
		{
			"bufferView":19,
			"componentType":5123,
			"count":1764,
			"type":"SCALAR"
		},
		{
			"bufferView":20,
			"componentType":5126,
			"count":1340,
			"max":[
				0.14433807134628296,
				0.18979424238204956,
				0.142578125
			],
			"min":[
				-0.14036273956298828,
				0.001953125,
				-0.14270071685314178
			],
			"type":"VEC3"
		},
		{
			"bufferView":21,
			"componentType":5126,
			"count":1340,
			"type":"VEC3"
		},
		{
			"bufferView":22,
			"componentType":5126,
			"count":1340,
			"type":"VEC2"
		},
		{
			"bufferView":23,
			"componentType":5123,
			"count":1755,
			"type":"SCALAR"
		},
		{
			"bufferView":24,
			"componentType":5126,
			"count":1275,
			"max":[
				0.14199356734752655,
				0.2628539502620697,
				0.1456661969423294
			],
			"min":[
				-0.1408676654100418,
				-0.007747464347630739,
				-0.14491426944732666
			],
			"type":"VEC3"
		},
		{
			"bufferView":25,
			"componentType":5126,
			"count":1275,
			"type":"VEC3"
		},
		{
			"bufferView":26,
			"componentType":5126,
			"count":1275,
			"type":"VEC2"
		},
		{
			"bufferView":27,
			"componentType":5123,
			"count":1773,
			"type":"SCALAR"
		},
		{
			"bufferView":28,
			"componentType":5126,
			"count":1055,
			"max":[
				0.15187664330005646,
				0.27081528306007385,
				0.13916015625
			],
			"min":[
				-0.151611328125,
				-0.00039633800042793155,
				-0.13975264132022858
			],
			"type":"VEC3"
		},
		{
			"bufferView":29,
			"componentType":5126,
			"count":1055,
			"type":"VEC3"
		},
		{
			"bufferView":30,
			"componentType":5126,
			"count":1055,
			"type":"VEC2"
		},
		{
			"bufferView":31,
			"componentType":5123,
			"count":1800,
			"type":"SCALAR"
		},
		{
			"bufferView":32,
			"componentType":5126,
			"count":3533,
			"max":[
				0.14783501625061035,
				0.25973090529441833,
				0.1425369530916214
			],
			"min":[
				-0.14794160425662994,
				-0.0028662667609751225,
				-0.14211027324199677
			],
			"type":"VEC3"
		},
		{
			"bufferView":33,
			"componentType":5126,
			"count":3533,
			"type":"VEC3"
		},
		{
			"bufferView":34,
			"componentType":5126,
			"count":3533,
			"type":"VEC2"
		},
		{
			"bufferView":35,
			"componentType":5123,
			"count":4527,
			"type":"SCALAR"
		}
	],
	"bufferViews":[
		{
			"buffer":0,
			"byteLength":12564,
			"byteOffset":0,
			"target":34962
		},
		{
			"buffer":0,
			"byteLength":12564,
			"byteOffset":12564,
			"target":34962
		},
		{
			"buffer":0,
			"byteLength":8376,
			"byteOffset":25128,
			"target":34962
		},
		{
			"buffer":0,
			"byteLength":3600,
			"byteOffset":33504,
			"target":34963
		},
		{
			"buffer":0,
			"byteLength":12852,
			"byteOffset":37104,
			"target":34962
		},
		{
			"buffer":0,
			"byteLength":12852,
			"byteOffset":49956,
			"target":34962
		},
		{
			"buffer":0,
			"byteLength":8568,
			"byteOffset":62808,
			"target":34962
		},
		{
			"buffer":0,
			"byteLength":3600,
			"byteOffset":71376,
			"target":34963
		},
		{
			"buffer":0,
			"byteLength":12564,
			"byteOffset":74976,
			"target":34962
		},
		{
			"buffer":0,
			"byteLength":12564,
			"byteOffset":87540,
			"target":34962
		},
		{
			"buffer":0,
			"byteLength":8376,
			"byteOffset":100104,
			"target":34962
		},
		{
			"buffer":0,
			"byteLength":3594,
			"byteOffset":108480,
			"target":34963
		},
		{
			"buffer":0,
			"byteLength":13920,
			"byteOffset":112076,
			"target":34962
		},
		{
			"buffer":0,
			"byteLength":13920,
			"byteOffset":125996,
			"target":34962
		},
		{
			"buffer":0,
			"byteLength":9280,
			"byteOffset":139916,
			"target":34962
		},
		{
			"buffer":0,
			"byteLength":3600,
			"byteOffset":149196,
			"target":34963
		},
		{
			"buffer":0,
			"byteLength":17604,
			"byteOffset":152796,
			"target":34962
		},
		{
			"buffer":0,
			"byteLength":17604,
			"byteOffset":170400,
			"target":34962
		},
		{
			"buffer":0,
			"byteLength":11736,
			"byteOffset":188004,
			"target":34962
		},
		{
			"buffer":0,
			"byteLength":3528,
			"byteOffset":199740,
			"target":34963
		},
		{
			"buffer":0,
			"byteLength":16080,
			"byteOffset":203268,
			"target":34962
		},
		{
			"buffer":0,
			"byteLength":16080,
			"byteOffset":219348,
			"target":34962
		},
		{
			"buffer":0,
			"byteLength":10720,
			"byteOffset":235428,
			"target":34962
		},
		{
			"buffer":0,
			"byteLength":3510,
			"byteOffset":246148,
			"target":34963
		},
		{
			"buffer":0,
			"byteLength":15300,
			"byteOffset":249660,
			"target":34962
		},
		{
			"buffer":0,
			"byteLength":15300,
			"byteOffset":264960,
			"target":34962
		},
		{
			"buffer":0,
			"byteLength":10200,
			"byteOffset":280260,
			"target":34962
		},
		{
			"buffer":0,
			"byteLength":3546,
			"byteOffset":290460,
			"target":34963
		},
		{
			"buffer":0,
			"byteLength":12660,
			"byteOffset":294008,
			"target":34962
		},
		{
			"buffer":0,
			"byteLength":12660,
			"byteOffset":306668,
			"target":34962
		},
		{
			"buffer":0,
			"byteLength":8440,
			"byteOffset":319328,
			"target":34962
		},
		{
			"buffer":0,
			"byteLength":3600,
			"byteOffset":327768,
			"target":34963
		},
		{
			"buffer":0,
			"byteLength":42396,
			"byteOffset":331368,
			"target":34962
		},
		{
			"buffer":0,
			"byteLength":42396,
			"byteOffset":373764,
			"target":34962
		},
		{
			"buffer":0,
			"byteLength":28264,
			"byteOffset":416160,
			"target":34962
		},
		{
			"buffer":0,
			"byteLength":9054,
			"byteOffset":444424,
			"target":34963
		}
	],
	"samplers":[
		{
			"magFilter":9729,
			"minFilter":9987
		}
	],
	"buffers":[
		{
			"byteLength":453480,
			"uri":"tri600.bin"
		}
	]
}
