{
	"asset":{
		"generator":"Khronos glTF Blender I/O v4.0.44",
		"version":"2.0"
	},
	"extensionsUsed":[
		"KHR_materials_specular"
	],
	"scene":0,
	"scenes":[
		{
			"name":"Scene",
			"nodes":[
				9
			]
		}
	],
	"nodes":[
		{
			"mesh":0,
			"name":"0:bunchgrass",
			"translation":[
				3.200000047683716,
				0,
				0
			]
		},
		{
			"mesh":1,
			"name":"1:reeds",
			"translation":[
				3.200000047683716,
				0,
				0
			]
		},
		{
			"mesh":2,
			"name":"2:dry grass",
			"translation":[
				3.200000047683716,
				0,
				0
			]
		},
		{
			"mesh":3,
			"name":"3:broad-leaf hosta",
			"translation":[
				3.200000047683716,
				0,
				0
			]
		},
		{
			"mesh":4,
			"name":"4:clover",
			"translation":[
				3.200000047683716,
				0,
				0
			]
		},
		{
			"mesh":5,
			"name":"5:wild strawberry",
			"translation":[
				3.200000047683716,
				0,
				0
			]
		},
		{
			"mesh":6,
			"name":"6:dandelion",
			"translation":[
				3.200000047683716,
				0,
				0
			]
		},
		{
			"mesh":7,
			"name":"7:plantain",
			"translation":[
				3.200000047683716,
				0,
				0
			]
		},
		{
			"mesh":8,
			"name":"8:purple-top grass",
			"translation":[
				3.200000047683716,
				0,
				0
			]
		},
		{
			"children":[
				0,
				1,
				2,
				3,
				4,
				5,
				6,
				7,
				8
			],
			"name":"RootNode"
		}
	],
	"materials":[
		{
			"doubleSided":true,
			"extensions":{
				"KHR_materials_specular":{
					"specularColorFactor":[
						0.800000011920929,
						0.800000011920929,
						0.800000011920929
					]
				}
			},
			"name":"tripo_3e62f4ee_f659_486c_81fc_55de62da6876",
			"pbrMetallicRoughness":{
				"baseColorFactor":[
					0.800000011920929,
					0.800000011920929,
					0.800000011920929,
					1
				],
				"baseColorTexture":{
					"index":0
				},
				"metallicFactor":0,
				"roughnessFactor":0.5
			}
		}
	],
	"meshes":[
		{
			"name":"tripo_3e62f4ee_f659_486c_81fc_55de62da6876.001",
			"primitives":[
				{
					"attributes":{
						"POSITION":0,
						"NORMAL":1,
						"TEXCOORD_0":2
					},
					"indices":3,
					"material":0
				}
			]
		},
		{
			"name":"tripo_3e62f4ee_f659_486c_81fc_55de62da6876.002",
			"primitives":[
				{
					"attributes":{
						"POSITION":4,
						"NORMAL":5,
						"TEXCOORD_0":6
					},
					"indices":7,
					"material":0
				}
			]
		},
		{
			"name":"tripo_3e62f4ee_f659_486c_81fc_55de62da6876.003",
			"primitives":[
				{
					"attributes":{
						"POSITION":8,
						"NORMAL":9,
						"TEXCOORD_0":10
					},
					"indices":11,
					"material":0
				}
			]
		},
		{
			"name":"tripo_3e62f4ee_f659_486c_81fc_55de62da6876.004",
			"primitives":[
				{
					"attributes":{
						"POSITION":12,
						"NORMAL":13,
						"TEXCOORD_0":14
					},
					"indices":15,
					"material":0
				}
			]
		},
		{
			"name":"tripo_3e62f4ee_f659_486c_81fc_55de62da6876.005",
			"primitives":[
				{
					"attributes":{
						"POSITION":16,
						"NORMAL":17,
						"TEXCOORD_0":18
					},
					"indices":19,
					"material":0
				}
			]
		},
		{
			"name":"tripo_3e62f4ee_f659_486c_81fc_55de62da6876.006",
			"primitives":[
				{
					"attributes":{
						"POSITION":20,
						"NORMAL":21,
						"TEXCOORD_0":22
					},
					"indices":23,
					"material":0
				}
			]
		},
		{
			"name":"tripo_3e62f4ee_f659_486c_81fc_55de62da6876.007",
			"primitives":[
				{
					"attributes":{
						"POSITION":24,
						"NORMAL":25,
						"TEXCOORD_0":26
					},
					"indices":27,
					"material":0
				}
			]
		},
		{
			"name":"tripo_3e62f4ee_f659_486c_81fc_55de62da6876.008",
			"primitives":[
				{
					"attributes":{
						"POSITION":28,
						"NORMAL":29,
						"TEXCOORD_0":30
					},
					"indices":31,
					"material":0
				}
			]
		},
		{
			"name":"tripo_3e62f4ee_f659_486c_81fc_55de62da6876.009",
			"primitives":[
				{
					"attributes":{
						"POSITION":32,
						"NORMAL":33,
						"TEXCOORD_0":34
					},
					"indices":35,
					"material":0
				}
			]
		}
	],
	"textures":[
		{
			"sampler":0,
			"source":0
		}
	],
	"images":[
		{
			"mimeType":"image/jpeg",
			"name":"grassesLow",
			"uri":"grassesLow.jpg"
		}
	],
	"accessors":[
		{
			"bufferView":0,
			"componentType":5126,
			"count":1428,
			"max":[
				0.135498046875,
				0.28564453125,
				0.154541015625
			],
			"min":[
				-0.136962890625,
				0.0008182958117686212,
				-0.1442871391773224
			],
			"type":"VEC3"
		},
		{
			"bufferView":1,
			"componentType":5126,
			"count":1428,
			"type":"VEC3"
		},
		{
			"bufferView":2,
			"componentType":5126,
			"count":1428,
			"type":"VEC2"
		},
		{
			"bufferView":3,
			"componentType":5123,
			"count":2700,
			"type":"SCALAR"
		},
		{
			"bufferView":4,
			"componentType":5126,
			"count":1459,
			"max":[
				0.142333984375,
				0.24853515625,
				0.17529296875
			],
			"min":[
				-0.142333984375,
				0,
				-0.17529296875
			],
			"type":"VEC3"
		},
		{
			"bufferView":5,
			"componentType":5126,
			"count":1459,
			"type":"VEC3"
		},
		{
			"bufferView":6,
			"componentType":5126,
			"count":1459,
			"type":"VEC2"
		},
		{
			"bufferView":7,
			"componentType":5123,
			"count":2697,
			"type":"SCALAR"
		},
		{
			"bufferView":8,
			"componentType":5126,
			"count":1430,
			"max":[
				0.13525390625,
				0.27685546875,
				0.15283203125
			],
			"min":[
				-0.1357421875,
				0.0015155216678977013,
				-0.1450195610523224
			],
			"type":"VEC3"
		},
		{
			"bufferView":9,
			"componentType":5126,
			"count":1430,
			"type":"VEC3"
		},
		{
			"bufferView":10,
			"componentType":5126,
			"count":1430,
			"type":"VEC2"
		},
		{
			"bufferView":11,
			"componentType":5123,
			"count":2700,
			"type":"SCALAR"
		},
		{
			"bufferView":12,
			"componentType":5126,
			"count":1542,
			"max":[
				0.15290440618991852,
				0.22975459694862366,
				0.16924521327018738
			],
			"min":[
				-0.1527462750673294,
				0.0002769559505395591,
				-0.16890017688274384
			],
			"type":"VEC3"
		},
		{
			"bufferView":13,
			"componentType":5126,
			"count":1542,
			"type":"VEC3"
		},
		{
			"bufferView":14,
			"componentType":5126,
			"count":1542,
			"type":"VEC2"
		},
		{
			"bufferView":15,
			"componentType":5123,
			"count":2697,
			"type":"SCALAR"
		},
		{
			"bufferView":16,
			"componentType":5126,
			"count":2003,
			"max":[
				0.14269617199897766,
				0.18994140625,
				0.11839798837900162
			],
			"min":[
				-0.142578125,
				8.686530054546893e-05,
				-0.11709319800138474
			],
			"type":"VEC3"
		},
		{
			"bufferView":17,
			"componentType":5126,
			"count":2003,
			"type":"VEC3"
		},
		{
			"bufferView":18,
			"componentType":5126,
			"count":2003,
			"type":"VEC2"
		},
		{
			"bufferView":19,
			"componentType":5123,
			"count":2670,
			"type":"SCALAR"
		},
		{
			"bufferView":20,
			"componentType":5126,
			"count":1898,
			"max":[
				0.1458558291196823,
				0.189838707447052,
				0.15024659037590027
			],
			"min":[
				-0.14884193241596222,
				0.001675416948273778,
				-0.14721862971782684
			],
			"type":"VEC3"
		},
		{
			"bufferView":21,
			"componentType":5126,
			"count":1898,
			"type":"VEC3"
		},
		{
			"bufferView":22,
			"componentType":5126,
			"count":1898,
			"type":"VEC2"
		},
		{
			"bufferView":23,
			"componentType":5123,
			"count":2691,
			"type":"SCALAR"
		},
		{
			"bufferView":24,
			"componentType":5126,
			"count":1808,
			"max":[
				0.14215818047523499,
				0.2628212571144104,
				0.14566670358181
			],
			"min":[
				-0.14085863530635834,
				-0.0023444874677807093,
				-0.14506931602954865
			],
			"type":"VEC3"
		},
		{
			"bufferView":25,
			"componentType":5126,
			"count":1808,
			"type":"VEC3"
		},
		{
			"bufferView":26,
			"componentType":5126,
			"count":1808,
			"type":"VEC2"
		},
		{
			"bufferView":27,
			"componentType":5123,
			"count":2673,
			"type":"SCALAR"
		},
		{
			"bufferView":28,
			"componentType":5126,
			"count":1484,
			"max":[
				0.15175528824329376,
				0.2699643075466156,
				0.13916015625
			],
			"min":[
				-0.151611328125,
				-0.0004133402544539422,
				-0.13976295292377472
			],
			"type":"VEC3"
		},
		{
			"bufferView":29,
			"componentType":5126,
			"count":1484,
			"type":"VEC3"
		},
		{
			"bufferView":30,
			"componentType":5126,
			"count":1484,
			"type":"VEC2"
		},
		{
			"bufferView":31,
			"componentType":5123,
			"count":2697,
			"type":"SCALAR"
		},
		{
			"bufferView":32,
			"componentType":5126,
			"count":3558,
			"max":[
				0.147831991314888,
				0.25971895456314087,
				0.14285336434841156
			],
			"min":[
				-0.1479417234659195,
				-0.002867345232516527,
				-0.14296087622642517
			],
			"type":"VEC3"
		},
		{
			"bufferView":33,
			"componentType":5126,
			"count":3558,
			"type":"VEC3"
		},
		{
			"bufferView":34,
			"componentType":5126,
			"count":3558,
			"type":"VEC2"
		},
		{
			"bufferView":35,
			"componentType":5123,
			"count":4551,
			"type":"SCALAR"
		}
	],
	"bufferViews":[
		{
			"buffer":0,
			"byteLength":17136,
			"byteOffset":0,
			"target":34962
		},
		{
			"buffer":0,
			"byteLength":17136,
			"byteOffset":17136,
			"target":34962
		},
		{
			"buffer":0,
			"byteLength":11424,
			"byteOffset":34272,
			"target":34962
		},
		{
			"buffer":0,
			"byteLength":5400,
			"byteOffset":45696,
			"target":34963
		},
		{
			"buffer":0,
			"byteLength":17508,
			"byteOffset":51096,
			"target":34962
		},
		{
			"buffer":0,
			"byteLength":17508,
			"byteOffset":68604,
			"target":34962
		},
		{
			"buffer":0,
			"byteLength":11672,
			"byteOffset":86112,
			"target":34962
		},
		{
			"buffer":0,
			"byteLength":5394,
			"byteOffset":97784,
			"target":34963
		},
		{
			"buffer":0,
			"byteLength":17160,
			"byteOffset":103180,
			"target":34962
		},
		{
			"buffer":0,
			"byteLength":17160,
			"byteOffset":120340,
			"target":34962
		},
		{
			"buffer":0,
			"byteLength":11440,
			"byteOffset":137500,
			"target":34962
		},
		{
			"buffer":0,
			"byteLength":5400,
			"byteOffset":148940,
			"target":34963
		},
		{
			"buffer":0,
			"byteLength":18504,
			"byteOffset":154340,
			"target":34962
		},
		{
			"buffer":0,
			"byteLength":18504,
			"byteOffset":172844,
			"target":34962
		},
		{
			"buffer":0,
			"byteLength":12336,
			"byteOffset":191348,
			"target":34962
		},
		{
			"buffer":0,
			"byteLength":5394,
			"byteOffset":203684,
			"target":34963
		},
		{
			"buffer":0,
			"byteLength":24036,
			"byteOffset":209080,
			"target":34962
		},
		{
			"buffer":0,
			"byteLength":24036,
			"byteOffset":233116,
			"target":34962
		},
		{
			"buffer":0,
			"byteLength":16024,
			"byteOffset":257152,
			"target":34962
		},
		{
			"buffer":0,
			"byteLength":5340,
			"byteOffset":273176,
			"target":34963
		},
		{
			"buffer":0,
			"byteLength":22776,
			"byteOffset":278516,
			"target":34962
		},
		{
			"buffer":0,
			"byteLength":22776,
			"byteOffset":301292,
			"target":34962
		},
		{
			"buffer":0,
			"byteLength":15184,
			"byteOffset":324068,
			"target":34962
		},
		{
			"buffer":0,
			"byteLength":5382,
			"byteOffset":339252,
			"target":34963
		},
		{
			"buffer":0,
			"byteLength":21696,
			"byteOffset":344636,
			"target":34962
		},
		{
			"buffer":0,
			"byteLength":21696,
			"byteOffset":366332,
			"target":34962
		},
		{
			"buffer":0,
			"byteLength":14464,
			"byteOffset":388028,
			"target":34962
		},
		{
			"buffer":0,
			"byteLength":5346,
			"byteOffset":402492,
			"target":34963
		},
		{
			"buffer":0,
			"byteLength":17808,
			"byteOffset":407840,
			"target":34962
		},
		{
			"buffer":0,
			"byteLength":17808,
			"byteOffset":425648,
			"target":34962
		},
		{
			"buffer":0,
			"byteLength":11872,
			"byteOffset":443456,
			"target":34962
		},
		{
			"buffer":0,
			"byteLength":5394,
			"byteOffset":455328,
			"target":34963
		},
		{
			"buffer":0,
			"byteLength":42696,
			"byteOffset":460724,
			"target":34962
		},
		{
			"buffer":0,
			"byteLength":42696,
			"byteOffset":503420,
			"target":34962
		},
		{
			"buffer":0,
			"byteLength":28464,
			"byteOffset":546116,
			"target":34962
		},
		{
			"buffer":0,
			"byteLength":9102,
			"byteOffset":574580,
			"target":34963
		}
	],
	"samplers":[
		{
			"magFilter":9729,
			"minFilter":9987
		}
	],
	"buffers":[
		{
			"byteLength":583684,
			"uri":"tri900.bin"
		}
	]
}
