{
	"asset":{
		"generator":"Khronos glTF Blender I/O v4.0.44",
		"version":"2.0"
	},
	"extensionsUsed":[
		"KHR_materials_specular"
	],
	"scene":0,
	"scenes":[
		{
			"name":"Scene",
			"nodes":[
				9
			]
		}
	],
	"nodes":[
		{
			"mesh":0,
			"name":"0:sagebrush",
			"translation":[
				3.200000047683716,
				0,
				0
			]
		},
		{
			"mesh":1,
			"name":"1:low juniper",
			"translation":[
				3.200000047683716,
				0,
				0
			]
		},
		{
			"mesh":2,
			"name":"2:sprig shrub",
			"translation":[
				3.200000047683716,
				0,
				0
			]
		},
		{
			"mesh":3,
			"name":"3:wild rose",
			"translation":[
				3.200000047683716,
				0,
				0
			]
		},
		{
			"mesh":4,
			"name":"4:spruce sapling",
			"translation":[
				3.200000047683716,
				0,
				0
			]
		},
		{
			"mesh":5,
			"name":"5:cattails",
			"translation":[
				3.200000047683716,
				0,
				0
			]
		},
		{
			"mesh":6,
			"name":"6:flowering shrub",
			"translation":[
				3.200000047683716,
				0,
				0
			]
		},
		{
			"mesh":7,
			"name":"7:grass clump",
			"translation":[
				3.200000047683716,
				0,
				0
			]
		},
		{
			"mesh":8,
			"name":"8:leafy shrub",
			"translation":[
				3.200000047683716,
				0,
				0
			]
		},
		{
			"children":[
				0,
				1,
				2,
				3,
				4,
				5,
				6,
				7,
				8
			],
			"name":"RootNode"
		}
	],
	"materials":[
		{
			"doubleSided":true,
			"extensions":{
				"KHR_materials_specular":{
					"specularColorFactor":[
						0.800000011920929,
						0.800000011920929,
						0.800000011920929
					]
				}
			},
			"name":"df777f02_2301_40ec_9eeb_b4aa37ee88ef",
			"pbrMetallicRoughness":{
				"baseColorFactor":[
					0.800000011920929,
					0.800000011920929,
					0.800000011920929,
					1
				],
				"baseColorTexture":{
					"index":0
				},
				"metallicFactor":0,
				"roughnessFactor":0.5
			}
		}
	],
	"meshes":[
		{
			"name":"df777f02_2301_40ec_9eeb_b4aa37ee88ef.001",
			"primitives":[
				{
					"attributes":{
						"POSITION":0,
						"NORMAL":1,
						"TEXCOORD_0":2
					},
					"indices":3,
					"material":0
				}
			]
		},
		{
			"name":"df777f02_2301_40ec_9eeb_b4aa37ee88ef.002",
			"primitives":[
				{
					"attributes":{
						"POSITION":4,
						"NORMAL":5,
						"TEXCOORD_0":6
					},
					"indices":7,
					"material":0
				}
			]
		},
		{
			"name":"df777f02_2301_40ec_9eeb_b4aa37ee88ef.003",
			"primitives":[
				{
					"attributes":{
						"POSITION":8,
						"NORMAL":9,
						"TEXCOORD_0":10
					},
					"indices":11,
					"material":0
				}
			]
		},
		{
			"name":"df777f02_2301_40ec_9eeb_b4aa37ee88ef.004",
			"primitives":[
				{
					"attributes":{
						"POSITION":12,
						"NORMAL":13,
						"TEXCOORD_0":14
					},
					"indices":15,
					"material":0
				}
			]
		},
		{
			"name":"df777f02_2301_40ec_9eeb_b4aa37ee88ef.005",
			"primitives":[
				{
					"attributes":{
						"POSITION":16,
						"NORMAL":17,
						"TEXCOORD_0":18
					},
					"indices":19,
					"material":0
				}
			]
		},
		{
			"name":"df777f02_2301_40ec_9eeb_b4aa37ee88ef.006",
			"primitives":[
				{
					"attributes":{
						"POSITION":20,
						"NORMAL":21,
						"TEXCOORD_0":22
					},
					"indices":23,
					"material":0
				}
			]
		},
		{
			"name":"df777f02_2301_40ec_9eeb_b4aa37ee88ef.007",
			"primitives":[
				{
					"attributes":{
						"POSITION":24,
						"NORMAL":25,
						"TEXCOORD_0":26
					},
					"indices":27,
					"material":0
				}
			]
		},
		{
			"name":"df777f02_2301_40ec_9eeb_b4aa37ee88ef.008",
			"primitives":[
				{
					"attributes":{
						"POSITION":28,
						"NORMAL":29,
						"TEXCOORD_0":30
					},
					"indices":31,
					"material":0
				}
			]
		},
		{
			"name":"df777f02_2301_40ec_9eeb_b4aa37ee88ef.009",
			"primitives":[
				{
					"attributes":{
						"POSITION":32,
						"NORMAL":33,
						"TEXCOORD_0":34
					},
					"indices":35,
					"material":0
				}
			]
		}
	],
	"textures":[
		{
			"sampler":0,
			"source":0
		}
	],
	"images":[
		{
			"mimeType":"image/jpeg",
			"name":"shrubs",
			"uri":"shrubs.jpg"
		}
	],
	"accessors":[
		{
			"bufferView":0,
			"componentType":5126,
			"count":8156,
			"max":[
				0.08642578125,
				0.1748046875,
				0.088623046875
			],
			"min":[
				-0.08642578125,
				0,
				-0.088623046875
			],
			"type":"VEC3"
		},
		{
			"bufferView":1,
			"componentType":5126,
			"count":8156,
			"type":"VEC3"
		},
		{
			"bufferView":2,
			"componentType":5126,
			"count":8156,
			"type":"VEC2"
		},
		{
			"bufferView":3,
			"componentType":5123,
			"count":16188,
			"type":"SCALAR"
		},
		{
			"bufferView":4,
			"componentType":5126,
			"count":8917,
			"max":[
				0.1015625,
				0.1005859375,
				0.09912109375
			],
			"min":[
				-0.1015625,
				0,
				-0.09912109375
			],
			"type":"VEC3"
		},
		{
			"bufferView":5,
			"componentType":5126,
			"count":8917,
			"type":"VEC3"
		},
		{
			"bufferView":6,
			"componentType":5126,
			"count":8917,
			"type":"VEC2"
		},
		{
			"bufferView":7,
			"componentType":5123,
			"count":16128,
			"type":"SCALAR"
		},
		{
			"bufferView":8,
			"componentType":5126,
			"count":6889,
			"max":[
				0.096435546875,
				0.1826171875,
				0.1064453125
			],
			"min":[
				-0.096435546875,
				0,
				-0.1064453125
			],
			"type":"VEC3"
		},
		{
			"bufferView":9,
			"componentType":5126,
			"count":6889,
			"type":"VEC3"
		},
		{
			"bufferView":10,
			"componentType":5126,
			"count":6889,
			"type":"VEC2"
		},
		{
			"bufferView":11,
			"componentType":5123,
			"count":14292,
			"type":"SCALAR"
		},
		{
			"bufferView":12,
			"componentType":5126,
			"count":8762,
			"max":[
				0.088134765625,
				0.1533203125,
				0.094970703125
			],
			"min":[
				-0.088134765625,
				0,
				-0.094970703125
			],
			"type":"VEC3"
		},
		{
			"bufferView":13,
			"componentType":5126,
			"count":8762,
			"type":"VEC3"
		},
		{
			"bufferView":14,
			"componentType":5126,
			"count":8762,
			"type":"VEC2"
		},
		{
			"bufferView":15,
			"componentType":5123,
			"count":17574,
			"type":"SCALAR"
		},
		{
			"bufferView":16,
			"componentType":5126,
			"count":3868,
			"max":[
				0.077392578125,
				0.19140625,
				0.078369140625
			],
			"min":[
				-0.077392578125,
				0,
				-0.078369140625
			],
			"type":"VEC3"
		},
		{
			"bufferView":17,
			"componentType":5126,
			"count":3868,
			"type":"VEC3"
		},
		{
			"bufferView":18,
			"componentType":5126,
			"count":3868,
			"type":"VEC2"
		},
		{
			"bufferView":19,
			"componentType":5123,
			"count":7938,
			"type":"SCALAR"
		},
		{
			"bufferView":20,
			"componentType":5126,
			"count":2127,
			"max":[
				0.081298828125,
				0.19189453125,
				0.083984375
			],
			"min":[
				-0.081298828125,
				0,
				-0.083984375
			],
			"type":"VEC3"
		},
		{
			"bufferView":21,
			"componentType":5126,
			"count":2127,
			"type":"VEC3"
		},
		{
			"bufferView":22,
			"componentType":5126,
			"count":2127,
			"type":"VEC2"
		},
		{
			"bufferView":23,
			"componentType":5123,
			"count":4521,
			"type":"SCALAR"
		},
		{
			"bufferView":24,
			"componentType":5126,
			"count":11730,
			"max":[
				0.09326171875,
				0.1591796875,
				0.098388671875
			],
			"min":[
				-0.09326171875,
				0,
				-0.098388671875
			],
			"type":"VEC3"
		},
		{
			"bufferView":25,
			"componentType":5126,
			"count":11730,
			"type":"VEC3"
		},
		{
			"bufferView":26,
			"componentType":5126,
			"count":11730,
			"type":"VEC2"
		},
		{
			"bufferView":27,
			"componentType":5123,
			"count":23745,
			"type":"SCALAR"
		},
		{
			"bufferView":28,
			"componentType":5126,
			"count":8425,
			"max":[
				0.097412109375,
				0.16650390625,
				0.099853515625
			],
			"min":[
				-0.097412109375,
				0,
				-0.099853515625
			],
			"type":"VEC3"
		},
		{
			"bufferView":29,
			"componentType":5126,
			"count":8425,
			"type":"VEC3"
		},
		{
			"bufferView":30,
			"componentType":5126,
			"count":8425,
			"type":"VEC2"
		},
		{
			"bufferView":31,
			"componentType":5123,
			"count":17154,
			"type":"SCALAR"
		},
		{
			"bufferView":32,
			"componentType":5126,
			"count":7247,
			"max":[
				0.0986328125,
				0.1650390625,
				0.10595703125
			],
			"min":[
				-0.0986328125,
				0,
				-0.10595703125
			],
			"type":"VEC3"
		},
		{
			"bufferView":33,
			"componentType":5126,
			"count":7247,
			"type":"VEC3"
		},
		{
			"bufferView":34,
			"componentType":5126,
			"count":7247,
			"type":"VEC2"
		},
		{
			"bufferView":35,
			"componentType":5123,
			"count":14562,
			"type":"SCALAR"
		}
	],
	"bufferViews":[
		{
			"buffer":0,
			"byteLength":97872,
			"byteOffset":0,
			"target":34962
		},
		{
			"buffer":0,
			"byteLength":97872,
			"byteOffset":97872,
			"target":34962
		},
		{
			"buffer":0,
			"byteLength":65248,
			"byteOffset":195744,
			"target":34962
		},
		{
			"buffer":0,
			"byteLength":32376,
			"byteOffset":260992,
			"target":34963
		},
		{
			"buffer":0,
			"byteLength":107004,
			"byteOffset":293368,
			"target":34962
		},
		{
			"buffer":0,
			"byteLength":107004,
			"byteOffset":400372,
			"target":34962
		},
		{
			"buffer":0,
			"byteLength":71336,
			"byteOffset":507376,
			"target":34962
		},
		{
			"buffer":0,
			"byteLength":32256,
			"byteOffset":578712,
			"target":34963
		},
		{
			"buffer":0,
			"byteLength":82668,
			"byteOffset":610968,
			"target":34962
		},
		{
			"buffer":0,
			"byteLength":82668,
			"byteOffset":693636,
			"target":34962
		},
		{
			"buffer":0,
			"byteLength":55112,
			"byteOffset":776304,
			"target":34962
		},
		{
			"buffer":0,
			"byteLength":28584,
			"byteOffset":831416,
			"target":34963
		},
		{
			"buffer":0,
			"byteLength":105144,
			"byteOffset":860000,
			"target":34962
		},
		{
			"buffer":0,
			"byteLength":105144,
			"byteOffset":965144,
			"target":34962
		},
		{
			"buffer":0,
			"byteLength":70096,
			"byteOffset":1070288,
			"target":34962
		},
		{
			"buffer":0,
			"byteLength":35148,
			"byteOffset":1140384,
			"target":34963
		},
		{
			"buffer":0,
			"byteLength":46416,
			"byteOffset":1175532,
			"target":34962
		},
		{
			"buffer":0,
			"byteLength":46416,
			"byteOffset":1221948,
			"target":34962
		},
		{
			"buffer":0,
			"byteLength":30944,
			"byteOffset":1268364,
			"target":34962
		},
		{
			"buffer":0,
			"byteLength":15876,
			"byteOffset":1299308,
			"target":34963
		},
		{
			"buffer":0,
			"byteLength":25524,
			"byteOffset":1315184,
			"target":34962
		},
		{
			"buffer":0,
			"byteLength":25524,
			"byteOffset":1340708,
			"target":34962
		},
		{
			"buffer":0,
			"byteLength":17016,
			"byteOffset":1366232,
			"target":34962
		},
		{
			"buffer":0,
			"byteLength":9042,
			"byteOffset":1383248,
			"target":34963
		},
		{
			"buffer":0,
			"byteLength":140760,
			"byteOffset":1392292,
			"target":34962
		},
		{
			"buffer":0,
			"byteLength":140760,
			"byteOffset":1533052,
			"target":34962
		},
		{
			"buffer":0,
			"byteLength":93840,
			"byteOffset":1673812,
			"target":34962
		},
		{
			"buffer":0,
			"byteLength":47490,
			"byteOffset":1767652,
			"target":34963
		},
		{
			"buffer":0,
			"byteLength":101100,
			"byteOffset":1815144,
			"target":34962
		},
		{
			"buffer":0,
			"byteLength":101100,
			"byteOffset":1916244,
			"target":34962
		},
		{
			"buffer":0,
			"byteLength":67400,
			"byteOffset":2017344,
			"target":34962
		},
		{
			"buffer":0,
			"byteLength":34308,
			"byteOffset":2084744,
			"target":34963
		},
		{
			"buffer":0,
			"byteLength":86964,
			"byteOffset":2119052,
			"target":34962
		},
		{
			"buffer":0,
			"byteLength":86964,
			"byteOffset":2206016,
			"target":34962
		},
		{
			"buffer":0,
			"byteLength":57976,
			"byteOffset":2292980,
			"target":34962
		},
		{
			"buffer":0,
			"byteLength":29124,
			"byteOffset":2350956,
			"target":34963
		}
	],
	"samplers":[
		{
			"magFilter":9729,
			"minFilter":9987
		}
	],
	"buffers":[
		{
			"byteLength":2380080,
			"uri":"fixed.bin"
		}
	]
}
