{
	"asset":{
		"generator":"Khronos glTF Blender I/O v4.0.44",
		"version":"2.0"
	},
	"extensionsUsed":[
		"KHR_materials_specular"
	],
	"scene":0,
	"scenes":[
		{
			"name":"Scene",
			"nodes":[
				9
			]
		}
	],
	"nodes":[
		{
			"mesh":0,
			"name":"0:sagebrush",
			"translation":[
				3.200000047683716,
				0,
				0
			]
		},
		{
			"mesh":1,
			"name":"1:low juniper",
			"translation":[
				3.200000047683716,
				0,
				0
			]
		},
		{
			"mesh":2,
			"name":"2:sprig shrub",
			"translation":[
				3.200000047683716,
				0,
				0
			]
		},
		{
			"mesh":3,
			"name":"3:wild rose",
			"translation":[
				3.200000047683716,
				0,
				0
			]
		},
		{
			"mesh":4,
			"name":"4:spruce sapling",
			"translation":[
				3.200000047683716,
				0,
				0
			]
		},
		{
			"mesh":5,
			"name":"5:cattails",
			"translation":[
				3.200000047683716,
				0,
				0
			]
		},
		{
			"mesh":6,
			"name":"6:flowering shrub",
			"translation":[
				3.200000047683716,
				0,
				0
			]
		},
		{
			"mesh":7,
			"name":"7:grass clump",
			"translation":[
				3.200000047683716,
				0,
				0
			]
		},
		{
			"mesh":8,
			"name":"8:leafy shrub",
			"translation":[
				3.200000047683716,
				0,
				0
			]
		},
		{
			"children":[
				0,
				1,
				2,
				3,
				4,
				5,
				6,
				7,
				8
			],
			"name":"RootNode"
		}
	],
	"materials":[
		{
			"doubleSided":true,
			"extensions":{
				"KHR_materials_specular":{
					"specularColorFactor":[
						0.800000011920929,
						0.800000011920929,
						0.800000011920929
					]
				}
			},
			"name":"df777f02_2301_40ec_9eeb_b4aa37ee88ef",
			"pbrMetallicRoughness":{
				"baseColorFactor":[
					0.800000011920929,
					0.800000011920929,
					0.800000011920929,
					1
				],
				"baseColorTexture":{
					"index":0
				},
				"metallicFactor":0,
				"roughnessFactor":0.5
			}
		}
	],
	"meshes":[
		{
			"name":"df777f02_2301_40ec_9eeb_b4aa37ee88ef.001",
			"primitives":[
				{
					"attributes":{
						"POSITION":0,
						"NORMAL":1,
						"TEXCOORD_0":2
					},
					"indices":3,
					"material":0
				}
			]
		},
		{
			"name":"df777f02_2301_40ec_9eeb_b4aa37ee88ef.002",
			"primitives":[
				{
					"attributes":{
						"POSITION":4,
						"NORMAL":5,
						"TEXCOORD_0":6
					},
					"indices":7,
					"material":0
				}
			]
		},
		{
			"name":"df777f02_2301_40ec_9eeb_b4aa37ee88ef.003",
			"primitives":[
				{
					"attributes":{
						"POSITION":8,
						"NORMAL":9,
						"TEXCOORD_0":10
					},
					"indices":11,
					"material":0
				}
			]
		},
		{
			"name":"df777f02_2301_40ec_9eeb_b4aa37ee88ef.004",
			"primitives":[
				{
					"attributes":{
						"POSITION":12,
						"NORMAL":13,
						"TEXCOORD_0":14
					},
					"indices":15,
					"material":0
				}
			]
		},
		{
			"name":"df777f02_2301_40ec_9eeb_b4aa37ee88ef.005",
			"primitives":[
				{
					"attributes":{
						"POSITION":16,
						"NORMAL":17,
						"TEXCOORD_0":18
					},
					"indices":19,
					"material":0
				}
			]
		},
		{
			"name":"df777f02_2301_40ec_9eeb_b4aa37ee88ef.006",
			"primitives":[
				{
					"attributes":{
						"POSITION":20,
						"NORMAL":21,
						"TEXCOORD_0":22
					},
					"indices":23,
					"material":0
				}
			]
		},
		{
			"name":"df777f02_2301_40ec_9eeb_b4aa37ee88ef.007",
			"primitives":[
				{
					"attributes":{
						"POSITION":24,
						"NORMAL":25,
						"TEXCOORD_0":26
					},
					"indices":27,
					"material":0
				}
			]
		},
		{
			"name":"df777f02_2301_40ec_9eeb_b4aa37ee88ef.008",
			"primitives":[
				{
					"attributes":{
						"POSITION":28,
						"NORMAL":29,
						"TEXCOORD_0":30
					},
					"indices":31,
					"material":0
				}
			]
		},
		{
			"name":"df777f02_2301_40ec_9eeb_b4aa37ee88ef.009",
			"primitives":[
				{
					"attributes":{
						"POSITION":32,
						"NORMAL":33,
						"TEXCOORD_0":34
					},
					"indices":35,
					"material":0
				}
			]
		}
	],
	"textures":[
		{
			"sampler":0,
			"source":0
		}
	],
	"images":[
		{
			"mimeType":"image/jpeg",
			"name":"shrubs",
			"uri":"shrubs.jpg"
		}
	],
	"accessors":[
		{
			"bufferView":0,
			"componentType":5126,
			"count":8059,
			"max":[
				0.08642578125,
				0.1748046875,
				0.088623046875
			],
			"min":[
				-0.08642578125,
				0,
				-0.088623046875
			],
			"type":"VEC3"
		},
		{
			"bufferView":1,
			"componentType":5126,
			"count":8059,
			"type":"VEC3"
		},
		{
			"bufferView":2,
			"componentType":5126,
			"count":8059,
			"type":"VEC2"
		},
		{
			"bufferView":3,
			"componentType":5123,
			"count":15852,
			"type":"SCALAR"
		},
		{
			"bufferView":4,
			"componentType":5126,
			"count":8830,
			"max":[
				0.1015625,
				0.1005859375,
				0.09912109375
			],
			"min":[
				-0.1015625,
				0,
				-0.09912109375
			],
			"type":"VEC3"
		},
		{
			"bufferView":5,
			"componentType":5126,
			"count":8830,
			"type":"VEC3"
		},
		{
			"bufferView":6,
			"componentType":5126,
			"count":8830,
			"type":"VEC2"
		},
		{
			"bufferView":7,
			"componentType":5123,
			"count":15861,
			"type":"SCALAR"
		},
		{
			"bufferView":8,
			"componentType":5126,
			"count":6550,
			"max":[
				0.096435546875,
				0.1826171875,
				0.1064453125
			],
			"min":[
				-0.096435546875,
				0,
				-0.1064453125
			],
			"type":"VEC3"
		},
		{
			"bufferView":9,
			"componentType":5126,
			"count":6550,
			"type":"VEC3"
		},
		{
			"bufferView":10,
			"componentType":5126,
			"count":6550,
			"type":"VEC2"
		},
		{
			"bufferView":11,
			"componentType":5123,
			"count":13257,
			"type":"SCALAR"
		},
		{
			"bufferView":12,
			"componentType":5126,
			"count":8625,
			"max":[
				0.088134765625,
				0.1533203125,
				0.094970703125
			],
			"min":[
				-0.088134765625,
				0,
				-0.094970703125
			],
			"type":"VEC3"
		},
		{
			"bufferView":13,
			"componentType":5126,
			"count":8625,
			"type":"VEC3"
		},
		{
			"bufferView":14,
			"componentType":5126,
			"count":8625,
			"type":"VEC2"
		},
		{
			"bufferView":15,
			"componentType":5123,
			"count":17142,
			"type":"SCALAR"
		},
		{
			"bufferView":16,
			"componentType":5126,
			"count":3830,
			"max":[
				0.077392578125,
				0.19140625,
				0.078369140625
			],
			"min":[
				-0.077392578125,
				0,
				-0.078369140625
			],
			"type":"VEC3"
		},
		{
			"bufferView":17,
			"componentType":5126,
			"count":3830,
			"type":"VEC3"
		},
		{
			"bufferView":18,
			"componentType":5126,
			"count":3830,
			"type":"VEC2"
		},
		{
			"bufferView":19,
			"componentType":5123,
			"count":7800,
			"type":"SCALAR"
		},
		{
			"bufferView":20,
			"componentType":5126,
			"count":2022,
			"max":[
				0.081298828125,
				0.19189453125,
				0.083984375
			],
			"min":[
				-0.081298828125,
				0,
				-0.083984375
			],
			"type":"VEC3"
		},
		{
			"bufferView":21,
			"componentType":5126,
			"count":2022,
			"type":"VEC3"
		},
		{
			"bufferView":22,
			"componentType":5126,
			"count":2022,
			"type":"VEC2"
		},
		{
			"bufferView":23,
			"componentType":5123,
			"count":4200,
			"type":"SCALAR"
		},
		{
			"bufferView":24,
			"componentType":5126,
			"count":11536,
			"max":[
				0.09326171875,
				0.1591796875,
				0.098388671875
			],
			"min":[
				-0.09326171875,
				0,
				-0.098388671875
			],
			"type":"VEC3"
		},
		{
			"bufferView":25,
			"componentType":5126,
			"count":11536,
			"type":"VEC3"
		},
		{
			"bufferView":26,
			"componentType":5126,
			"count":11536,
			"type":"VEC2"
		},
		{
			"bufferView":27,
			"componentType":5123,
			"count":23136,
			"type":"SCALAR"
		},
		{
			"bufferView":28,
			"componentType":5126,
			"count":8080,
			"max":[
				0.097412109375,
				0.16650390625,
				0.099853515625
			],
			"min":[
				-0.097412109375,
				0,
				-0.099853515625
			],
			"type":"VEC3"
		},
		{
			"bufferView":29,
			"componentType":5126,
			"count":8080,
			"type":"VEC3"
		},
		{
			"bufferView":30,
			"componentType":5126,
			"count":8080,
			"type":"VEC2"
		},
		{
			"bufferView":31,
			"componentType":5123,
			"count":16074,
			"type":"SCALAR"
		},
		{
			"bufferView":32,
			"componentType":5126,
			"count":7098,
			"max":[
				0.0986328125,
				0.1650390625,
				0.10595703125
			],
			"min":[
				-0.0986328125,
				0,
				-0.10595703125
			],
			"type":"VEC3"
		},
		{
			"bufferView":33,
			"componentType":5126,
			"count":7098,
			"type":"VEC3"
		},
		{
			"bufferView":34,
			"componentType":5126,
			"count":7098,
			"type":"VEC2"
		},
		{
			"bufferView":35,
			"componentType":5123,
			"count":14103,
			"type":"SCALAR"
		}
	],
	"bufferViews":[
		{
			"buffer":0,
			"byteLength":96708,
			"byteOffset":0,
			"target":34962
		},
		{
			"buffer":0,
			"byteLength":96708,
			"byteOffset":96708,
			"target":34962
		},
		{
			"buffer":0,
			"byteLength":64472,
			"byteOffset":193416,
			"target":34962
		},
		{
			"buffer":0,
			"byteLength":31704,
			"byteOffset":257888,
			"target":34963
		},
		{
			"buffer":0,
			"byteLength":105960,
			"byteOffset":289592,
			"target":34962
		},
		{
			"buffer":0,
			"byteLength":105960,
			"byteOffset":395552,
			"target":34962
		},
		{
			"buffer":0,
			"byteLength":70640,
			"byteOffset":501512,
			"target":34962
		},
		{
			"buffer":0,
			"byteLength":31722,
			"byteOffset":572152,
			"target":34963
		},
		{
			"buffer":0,
			"byteLength":78600,
			"byteOffset":603876,
			"target":34962
		},
		{
			"buffer":0,
			"byteLength":78600,
			"byteOffset":682476,
			"target":34962
		},
		{
			"buffer":0,
			"byteLength":52400,
			"byteOffset":761076,
			"target":34962
		},
		{
			"buffer":0,
			"byteLength":26514,
			"byteOffset":813476,
			"target":34963
		},
		{
			"buffer":0,
			"byteLength":103500,
			"byteOffset":839992,
			"target":34962
		},
		{
			"buffer":0,
			"byteLength":103500,
			"byteOffset":943492,
			"target":34962
		},
		{
			"buffer":0,
			"byteLength":69000,
			"byteOffset":1046992,
			"target":34962
		},
		{
			"buffer":0,
			"byteLength":34284,
			"byteOffset":1115992,
			"target":34963
		},
		{
			"buffer":0,
			"byteLength":45960,
			"byteOffset":1150276,
			"target":34962
		},
		{
			"buffer":0,
			"byteLength":45960,
			"byteOffset":1196236,
			"target":34962
		},
		{
			"buffer":0,
			"byteLength":30640,
			"byteOffset":1242196,
			"target":34962
		},
		{
			"buffer":0,
			"byteLength":15600,
			"byteOffset":1272836,
			"target":34963
		},
		{
			"buffer":0,
			"byteLength":24264,
			"byteOffset":1288436,
			"target":34962
		},
		{
			"buffer":0,
			"byteLength":24264,
			"byteOffset":1312700,
			"target":34962
		},
		{
			"buffer":0,
			"byteLength":16176,
			"byteOffset":1336964,
			"target":34962
		},
		{
			"buffer":0,
			"byteLength":8400,
			"byteOffset":1353140,
			"target":34963
		},
		{
			"buffer":0,
			"byteLength":138432,
			"byteOffset":1361540,
			"target":34962
		},
		{
			"buffer":0,
			"byteLength":138432,
			"byteOffset":1499972,
			"target":34962
		},
		{
			"buffer":0,
			"byteLength":92288,
			"byteOffset":1638404,
			"target":34962
		},
		{
			"buffer":0,
			"byteLength":46272,
			"byteOffset":1730692,
			"target":34963
		},
		{
			"buffer":0,
			"byteLength":96960,
			"byteOffset":1776964,
			"target":34962
		},
		{
			"buffer":0,
			"byteLength":96960,
			"byteOffset":1873924,
			"target":34962
		},
		{
			"buffer":0,
			"byteLength":64640,
			"byteOffset":1970884,
			"target":34962
		},
		{
			"buffer":0,
			"byteLength":32148,
			"byteOffset":2035524,
			"target":34963
		},
		{
			"buffer":0,
			"byteLength":85176,
			"byteOffset":2067672,
			"target":34962
		},
		{
			"buffer":0,
			"byteLength":85176,
			"byteOffset":2152848,
			"target":34962
		},
		{
			"buffer":0,
			"byteLength":56784,
			"byteOffset":2238024,
			"target":34962
		},
		{
			"buffer":0,
			"byteLength":28206,
			"byteOffset":2294808,
			"target":34963
		}
	],
	"samplers":[
		{
			"magFilter":9729,
			"minFilter":9987
		}
	],
	"buffers":[
		{
			"byteLength":2323016,
			"uri":"planar.bin"
		}
	]
}
