{
	"asset":{
		"generator":"Khronos glTF Blender I/O v4.0.44",
		"version":"2.0"
	},
	"extensionsUsed":[
		"KHR_materials_specular"
	],
	"scene":0,
	"scenes":[
		{
			"name":"Scene",
			"nodes":[
				9
			]
		}
	],
	"nodes":[
		{
			"mesh":0,
			"name":"0:sagebrush",
			"translation":[
				3.200000047683716,
				0,
				0
			]
		},
		{
			"mesh":1,
			"name":"1:low juniper",
			"translation":[
				3.200000047683716,
				0,
				0
			]
		},
		{
			"mesh":2,
			"name":"2:sprig shrub",
			"translation":[
				3.200000047683716,
				0,
				0
			]
		},
		{
			"mesh":3,
			"name":"3:wild rose",
			"translation":[
				3.200000047683716,
				0,
				0
			]
		},
		{
			"mesh":4,
			"name":"4:spruce sapling",
			"translation":[
				3.200000047683716,
				0,
				0
			]
		},
		{
			"mesh":5,
			"name":"5:cattails",
			"translation":[
				3.200000047683716,
				0,
				0
			]
		},
		{
			"mesh":6,
			"name":"6:flowering shrub",
			"translation":[
				3.200000047683716,
				0,
				0
			]
		},
		{
			"mesh":7,
			"name":"7:grass clump",
			"translation":[
				3.200000047683716,
				0,
				0
			]
		},
		{
			"mesh":8,
			"name":"8:leafy shrub",
			"translation":[
				3.200000047683716,
				0,
				0
			]
		},
		{
			"children":[
				0,
				1,
				2,
				3,
				4,
				5,
				6,
				7,
				8
			],
			"name":"RootNode"
		}
	],
	"materials":[
		{
			"doubleSided":true,
			"extensions":{
				"KHR_materials_specular":{
					"specularColorFactor":[
						0.800000011920929,
						0.800000011920929,
						0.800000011920929
					]
				}
			},
			"name":"df777f02_2301_40ec_9eeb_b4aa37ee88ef",
			"pbrMetallicRoughness":{
				"baseColorFactor":[
					0.800000011920929,
					0.800000011920929,
					0.800000011920929,
					1
				],
				"baseColorTexture":{
					"index":0
				},
				"metallicFactor":0,
				"roughnessFactor":0.5
			}
		}
	],
	"meshes":[
		{
			"name":"df777f02_2301_40ec_9eeb_b4aa37ee88ef.001",
			"primitives":[
				{
					"attributes":{
						"POSITION":0,
						"NORMAL":1,
						"TEXCOORD_0":2
					},
					"indices":3,
					"material":0
				}
			]
		},
		{
			"name":"df777f02_2301_40ec_9eeb_b4aa37ee88ef.002",
			"primitives":[
				{
					"attributes":{
						"POSITION":4,
						"NORMAL":5,
						"TEXCOORD_0":6
					},
					"indices":7,
					"material":0
				}
			]
		},
		{
			"name":"df777f02_2301_40ec_9eeb_b4aa37ee88ef.003",
			"primitives":[
				{
					"attributes":{
						"POSITION":8,
						"NORMAL":9,
						"TEXCOORD_0":10
					},
					"indices":11,
					"material":0
				}
			]
		},
		{
			"name":"df777f02_2301_40ec_9eeb_b4aa37ee88ef.004",
			"primitives":[
				{
					"attributes":{
						"POSITION":12,
						"NORMAL":13,
						"TEXCOORD_0":14
					},
					"indices":15,
					"material":0
				}
			]
		},
		{
			"name":"df777f02_2301_40ec_9eeb_b4aa37ee88ef.005",
			"primitives":[
				{
					"attributes":{
						"POSITION":16,
						"NORMAL":17,
						"TEXCOORD_0":18
					},
					"indices":19,
					"material":0
				}
			]
		},
		{
			"name":"df777f02_2301_40ec_9eeb_b4aa37ee88ef.006",
			"primitives":[
				{
					"attributes":{
						"POSITION":20,
						"NORMAL":21,
						"TEXCOORD_0":22
					},
					"indices":23,
					"material":0
				}
			]
		},
		{
			"name":"df777f02_2301_40ec_9eeb_b4aa37ee88ef.007",
			"primitives":[
				{
					"attributes":{
						"POSITION":24,
						"NORMAL":25,
						"TEXCOORD_0":26
					},
					"indices":27,
					"material":0
				}
			]
		},
		{
			"name":"df777f02_2301_40ec_9eeb_b4aa37ee88ef.008",
			"primitives":[
				{
					"attributes":{
						"POSITION":28,
						"NORMAL":29,
						"TEXCOORD_0":30
					},
					"indices":31,
					"material":0
				}
			]
		},
		{
			"name":"df777f02_2301_40ec_9eeb_b4aa37ee88ef.009",
			"primitives":[
				{
					"attributes":{
						"POSITION":32,
						"NORMAL":33,
						"TEXCOORD_0":34
					},
					"indices":35,
					"material":0
				}
			]
		}
	],
	"textures":[
		{
			"sampler":0,
			"source":0
		}
	],
	"images":[
		{
			"mimeType":"image/jpeg",
			"name":"shrubs",
			"uri":"shrubs.jpg"
		}
	],
	"accessors":[
		{
			"bufferView":0,
			"componentType":5126,
			"count":2373,
			"max":[
				0.08544921875,
				0.1531626284122467,
				0.0861816331744194
			],
			"min":[
				-0.08642578125,
				-4.3166070099687204e-05,
				-0.0881347730755806
			],
			"type":"VEC3"
		},
		{
			"bufferView":1,
			"componentType":5126,
			"count":2373,
			"type":"VEC3"
		},
		{
			"bufferView":2,
			"componentType":5126,
			"count":2373,
			"type":"VEC2"
		},
		{
			"bufferView":3,
			"componentType":5123,
			"count":3459,
			"type":"SCALAR"
		},
		{
			"bufferView":4,
			"componentType":5126,
			"count":3548,
			"max":[
				0.10066888481378555,
				0.10039646923542023,
				0.09906568378210068
			],
			"min":[
				-0.10054707527160645,
				0.005232475232332945,
				-0.09796419739723206
			],
			"type":"VEC3"
		},
		{
			"bufferView":5,
			"componentType":5126,
			"count":3548,
			"type":"VEC3"
		},
		{
			"bufferView":6,
			"componentType":5126,
			"count":3548,
			"type":"VEC2"
		},
		{
			"bufferView":7,
			"componentType":5123,
			"count":4596,
			"type":"SCALAR"
		},
		{
			"bufferView":8,
			"componentType":5126,
			"count":1503,
			"max":[
				0.08978842198848724,
				0.18188954889774323,
				0.10082853585481644
			],
			"min":[
				-0.09502814710140228,
				-0.0036322770174592733,
				-0.10297178477048874
			],
			"type":"VEC3"
		},
		{
			"bufferView":9,
			"componentType":5126,
			"count":1503,
			"type":"VEC3"
		},
		{
			"bufferView":10,
			"componentType":5126,
			"count":1503,
			"type":"VEC2"
		},
		{
			"bufferView":11,
			"componentType":5123,
			"count":2046,
			"type":"SCALAR"
		},
		{
			"bufferView":12,
			"componentType":5126,
			"count":2484,
			"max":[
				0.078733891248703,
				0.1531101018190384,
				0.09378977119922638
			],
			"min":[
				-0.07960497587919235,
				-0.002154560759663582,
				-0.09152944386005402
			],
			"type":"VEC3"
		},
		{
			"bufferView":13,
			"componentType":5126,
			"count":2484,
			"type":"VEC3"
		},
		{
			"bufferView":14,
			"componentType":5126,
			"count":2484,
			"type":"VEC2"
		},
		{
			"bufferView":15,
			"componentType":5123,
			"count":3945,
			"type":"SCALAR"
		},
		{
			"bufferView":16,
			"componentType":5126,
			"count":1320,
			"max":[
				0.07727965712547302,
				0.19117051362991333,
				0.07779034227132797
			],
			"min":[
				-0.07743064314126968,
				0.0004808327939826995,
				-0.07840784639120102
			],
			"type":"VEC3"
		},
		{
			"bufferView":17,
			"componentType":5126,
			"count":1320,
			"type":"VEC3"
		},
		{
			"bufferView":18,
			"componentType":5126,
			"count":1320,
			"type":"VEC2"
		},
		{
			"bufferView":19,
			"componentType":5123,
			"count":1800,
			"type":"SCALAR"
		},
		{
			"bufferView":20,
			"componentType":5126,
			"count":1138,
			"max":[
				0.081298828125,
				0.19189453125,
				0.083984375
			],
			"min":[
				-0.081298828125,
				-6.903663597768173e-05,
				-0.083984375
			],
			"type":"VEC3"
		},
		{
			"bufferView":21,
			"componentType":5126,
			"count":1138,
			"type":"VEC3"
		},
		{
			"bufferView":22,
			"componentType":5126,
			"count":1138,
			"type":"VEC2"
		},
		{
			"bufferView":23,
			"componentType":5123,
			"count":1797,
			"type":"SCALAR"
		},
		{
			"bufferView":24,
			"componentType":5126,
			"count":3112,
			"max":[
				0.09152579307556152,
				0.15599565207958221,
				0.09195967018604279
			],
			"min":[
				-0.09106007218360901,
				-0.004502969328314066,
				-0.09212042391300201
			],
			"type":"VEC3"
		},
		{
			"bufferView":25,
			"componentType":5126,
			"count":3112,
			"type":"VEC3"
		},
		{
			"bufferView":26,
			"componentType":5126,
			"count":3112,
			"type":"VEC2"
		},
		{
			"bufferView":27,
			"componentType":5123,
			"count":4665,
			"type":"SCALAR"
		},
		{
			"bufferView":28,
			"componentType":5126,
			"count":3254,
			"max":[
				0.1649996042251587,
				0.16654807329177856,
				0.10024386644363403
			],
			"min":[
				-0.094482421875,
				0.0007499338244087994,
				-0.0876464918255806
			],
			"type":"VEC3"
		},
		{
			"bufferView":29,
			"componentType":5126,
			"count":3254,
			"type":"VEC3"
		},
		{
			"bufferView":30,
			"componentType":5126,
			"count":3254,
			"type":"VEC2"
		},
		{
			"bufferView":31,
			"componentType":5123,
			"count":4356,
			"type":"SCALAR"
		},
		{
			"bufferView":32,
			"componentType":5126,
			"count":1757,
			"max":[
				0.09397498518228531,
				0.16156397759914398,
				0.09685664623975754
			],
			"min":[
				-0.09631999582052231,
				-0.010780333541333675,
				-0.09887275844812393
			],
			"type":"VEC3"
		},
		{
			"bufferView":33,
			"componentType":5126,
			"count":1757,
			"type":"VEC3"
		},
		{
			"bufferView":34,
			"componentType":5126,
			"count":1757,
			"type":"VEC2"
		},
		{
			"bufferView":35,
			"componentType":5123,
			"count":2421,
			"type":"SCALAR"
		}
	],
	"bufferViews":[
		{
			"buffer":0,
			"byteLength":28476,
			"byteOffset":0,
			"target":34962
		},
		{
			"buffer":0,
			"byteLength":28476,
			"byteOffset":28476,
			"target":34962
		},
		{
			"buffer":0,
			"byteLength":18984,
			"byteOffset":56952,
			"target":34962
		},
		{
			"buffer":0,
			"byteLength":6918,
			"byteOffset":75936,
			"target":34963
		},
		{
			"buffer":0,
			"byteLength":42576,
			"byteOffset":82856,
			"target":34962
		},
		{
			"buffer":0,
			"byteLength":42576,
			"byteOffset":125432,
			"target":34962
		},
		{
			"buffer":0,
			"byteLength":28384,
			"byteOffset":168008,
			"target":34962
		},
		{
			"buffer":0,
			"byteLength":9192,
			"byteOffset":196392,
			"target":34963
		},
		{
			"buffer":0,
			"byteLength":18036,
			"byteOffset":205584,
			"target":34962
		},
		{
			"buffer":0,
			"byteLength":18036,
			"byteOffset":223620,
			"target":34962
		},
		{
			"buffer":0,
			"byteLength":12024,
			"byteOffset":241656,
			"target":34962
		},
		{
			"buffer":0,
			"byteLength":4092,
			"byteOffset":253680,
			"target":34963
		},
		{
			"buffer":0,
			"byteLength":29808,
			"byteOffset":257772,
			"target":34962
		},
		{
			"buffer":0,
			"byteLength":29808,
			"byteOffset":287580,
			"target":34962
		},
		{
			"buffer":0,
			"byteLength":19872,
			"byteOffset":317388,
			"target":34962
		},
		{
			"buffer":0,
			"byteLength":7890,
			"byteOffset":337260,
			"target":34963
		},
		{
			"buffer":0,
			"byteLength":15840,
			"byteOffset":345152,
			"target":34962
		},
		{
			"buffer":0,
			"byteLength":15840,
			"byteOffset":360992,
			"target":34962
		},
		{
			"buffer":0,
			"byteLength":10560,
			"byteOffset":376832,
			"target":34962
		},
		{
			"buffer":0,
			"byteLength":3600,
			"byteOffset":387392,
			"target":34963
		},
		{
			"buffer":0,
			"byteLength":13656,
			"byteOffset":390992,
			"target":34962
		},
		{
			"buffer":0,
			"byteLength":13656,
			"byteOffset":404648,
			"target":34962
		},
		{
			"buffer":0,
			"byteLength":9104,
			"byteOffset":418304,
			"target":34962
		},
		{
			"buffer":0,
			"byteLength":3594,
			"byteOffset":427408,
			"target":34963
		},
		{
			"buffer":0,
			"byteLength":37344,
			"byteOffset":431004,
			"target":34962
		},
		{
			"buffer":0,
			"byteLength":37344,
			"byteOffset":468348,
			"target":34962
		},
		{
			"buffer":0,
			"byteLength":24896,
			"byteOffset":505692,
			"target":34962
		},
		{
			"buffer":0,
			"byteLength":9330,
			"byteOffset":530588,
			"target":34963
		},
		{
			"buffer":0,
			"byteLength":39048,
			"byteOffset":539920,
			"target":34962
		},
		{
			"buffer":0,
			"byteLength":39048,
			"byteOffset":578968,
			"target":34962
		},
		{
			"buffer":0,
			"byteLength":26032,
			"byteOffset":618016,
			"target":34962
		},
		{
			"buffer":0,
			"byteLength":8712,
			"byteOffset":644048,
			"target":34963
		},
		{
			"buffer":0,
			"byteLength":21084,
			"byteOffset":652760,
			"target":34962
		},
		{
			"buffer":0,
			"byteLength":21084,
			"byteOffset":673844,
			"target":34962
		},
		{
			"buffer":0,
			"byteLength":14056,
			"byteOffset":694928,
			"target":34962
		},
		{
			"buffer":0,
			"byteLength":4842,
			"byteOffset":708984,
			"target":34963
		}
	],
	"samplers":[
		{
			"magFilter":9729,
			"minFilter":9987
		}
	],
	"buffers":[
		{
			"byteLength":713828,
			"uri":"tri600.bin"
		}
	]
}
