{
	"asset":{
		"generator":"Khronos glTF Blender I/O v4.0.44",
		"version":"2.0"
	},
	"extensionsUsed":[
		"KHR_materials_specular"
	],
	"scene":0,
	"scenes":[
		{
			"name":"Scene",
			"nodes":[
				9
			]
		}
	],
	"nodes":[
		{
			"mesh":0,
			"name":"0:sagebrush",
			"translation":[
				3.200000047683716,
				0,
				0
			]
		},
		{
			"mesh":1,
			"name":"1:low juniper",
			"translation":[
				3.200000047683716,
				0,
				0
			]
		},
		{
			"mesh":2,
			"name":"2:sprig shrub",
			"translation":[
				3.200000047683716,
				0,
				0
			]
		},
		{
			"mesh":3,
			"name":"3:wild rose",
			"translation":[
				3.200000047683716,
				0,
				0
			]
		},
		{
			"mesh":4,
			"name":"4:spruce sapling",
			"translation":[
				3.200000047683716,
				0,
				0
			]
		},
		{
			"mesh":5,
			"name":"5:cattails",
			"translation":[
				3.200000047683716,
				0,
				0
			]
		},
		{
			"mesh":6,
			"name":"6:flowering shrub",
			"translation":[
				3.200000047683716,
				0,
				0
			]
		},
		{
			"mesh":7,
			"name":"7:grass clump",
			"translation":[
				3.200000047683716,
				0,
				0
			]
		},
		{
			"mesh":8,
			"name":"8:leafy shrub",
			"translation":[
				3.200000047683716,
				0,
				0
			]
		},
		{
			"children":[
				0,
				1,
				2,
				3,
				4,
				5,
				6,
				7,
				8
			],
			"name":"RootNode"
		}
	],
	"materials":[
		{
			"doubleSided":true,
			"extensions":{
				"KHR_materials_specular":{
					"specularColorFactor":[
						0.800000011920929,
						0.800000011920929,
						0.800000011920929
					]
				}
			},
			"name":"df777f02_2301_40ec_9eeb_b4aa37ee88ef",
			"pbrMetallicRoughness":{
				"baseColorFactor":[
					0.800000011920929,
					0.800000011920929,
					0.800000011920929,
					1
				],
				"baseColorTexture":{
					"index":0
				},
				"metallicFactor":0,
				"roughnessFactor":0.5
			}
		}
	],
	"meshes":[
		{
			"name":"df777f02_2301_40ec_9eeb_b4aa37ee88ef.001",
			"primitives":[
				{
					"attributes":{
						"POSITION":0,
						"NORMAL":1,
						"TEXCOORD_0":2
					},
					"indices":3,
					"material":0
				}
			]
		},
		{
			"name":"df777f02_2301_40ec_9eeb_b4aa37ee88ef.002",
			"primitives":[
				{
					"attributes":{
						"POSITION":4,
						"NORMAL":5,
						"TEXCOORD_0":6
					},
					"indices":7,
					"material":0
				}
			]
		},
		{
			"name":"df777f02_2301_40ec_9eeb_b4aa37ee88ef.003",
			"primitives":[
				{
					"attributes":{
						"POSITION":8,
						"NORMAL":9,
						"TEXCOORD_0":10
					},
					"indices":11,
					"material":0
				}
			]
		},
		{
			"name":"df777f02_2301_40ec_9eeb_b4aa37ee88ef.004",
			"primitives":[
				{
					"attributes":{
						"POSITION":12,
						"NORMAL":13,
						"TEXCOORD_0":14
					},
					"indices":15,
					"material":0
				}
			]
		},
		{
			"name":"df777f02_2301_40ec_9eeb_b4aa37ee88ef.005",
			"primitives":[
				{
					"attributes":{
						"POSITION":16,
						"NORMAL":17,
						"TEXCOORD_0":18
					},
					"indices":19,
					"material":0
				}
			]
		},
		{
			"name":"df777f02_2301_40ec_9eeb_b4aa37ee88ef.006",
			"primitives":[
				{
					"attributes":{
						"POSITION":20,
						"NORMAL":21,
						"TEXCOORD_0":22
					},
					"indices":23,
					"material":0
				}
			]
		},
		{
			"name":"df777f02_2301_40ec_9eeb_b4aa37ee88ef.007",
			"primitives":[
				{
					"attributes":{
						"POSITION":24,
						"NORMAL":25,
						"TEXCOORD_0":26
					},
					"indices":27,
					"material":0
				}
			]
		},
		{
			"name":"df777f02_2301_40ec_9eeb_b4aa37ee88ef.008",
			"primitives":[
				{
					"attributes":{
						"POSITION":28,
						"NORMAL":29,
						"TEXCOORD_0":30
					},
					"indices":31,
					"material":0
				}
			]
		},
		{
			"name":"df777f02_2301_40ec_9eeb_b4aa37ee88ef.009",
			"primitives":[
				{
					"attributes":{
						"POSITION":32,
						"NORMAL":33,
						"TEXCOORD_0":34
					},
					"indices":35,
					"material":0
				}
			]
		}
	],
	"textures":[
		{
			"sampler":0,
			"source":0
		}
	],
	"images":[
		{
			"mimeType":"image/jpeg",
			"name":"shrubs",
			"uri":"shrubs.jpg"
		}
	],
	"accessors":[
		{
			"bufferView":0,
			"componentType":5126,
			"count":1681,
			"max":[
				0.08544921875,
				0.1531626284122467,
				0.0861816331744194
			],
			"min":[
				-0.08642578125,
				-4.3166070099687204e-05,
				-0.0881347730755806
			],
			"type":"VEC3"
		},
		{
			"bufferView":1,
			"componentType":5126,
			"count":1681,
			"type":"VEC3"
		},
		{
			"bufferView":2,
			"componentType":5126,
			"count":1681,
			"type":"VEC2"
		},
		{
			"bufferView":3,
			"componentType":5123,
			"count":2508,
			"type":"SCALAR"
		},
		{
			"bufferView":4,
			"componentType":5126,
			"count":1978,
			"max":[
				0.10066888481378555,
				0.10039646923542023,
				0.09906568378210068
			],
			"min":[
				-0.0809703916311264,
				0.00830963347107172,
				-0.0854492262005806
			],
			"type":"VEC3"
		},
		{
			"bufferView":5,
			"componentType":5126,
			"count":1978,
			"type":"VEC3"
		},
		{
			"bufferView":6,
			"componentType":5126,
			"count":1978,
			"type":"VEC2"
		},
		{
			"bufferView":7,
			"componentType":5123,
			"count":2535,
			"type":"SCALAR"
		},
		{
			"bufferView":8,
			"componentType":5126,
			"count":1984,
			"max":[
				0.09658318012952805,
				0.1811937540769577,
				0.1047179102897644
			],
			"min":[
				-0.09711497277021408,
				-0.00017518989625386894,
				-0.10554246604442596
			],
			"type":"VEC3"
		},
		{
			"bufferView":9,
			"componentType":5126,
			"count":1984,
			"type":"VEC3"
		},
		{
			"bufferView":10,
			"componentType":5126,
			"count":1984,
			"type":"VEC2"
		},
		{
			"bufferView":11,
			"componentType":5123,
			"count":2694,
			"type":"SCALAR"
		},
		{
			"bufferView":12,
			"componentType":5126,
			"count":1568,
			"max":[
				0.06893335282802582,
				0.14008356630802155,
				0.09378977119922638
			],
			"min":[
				-0.07103654742240906,
				0.00037557774339802563,
				-0.09152944386005402
			],
			"type":"VEC3"
		},
		{
			"bufferView":13,
			"componentType":5126,
			"count":1568,
			"type":"VEC3"
		},
		{
			"bufferView":14,
			"componentType":5126,
			"count":1568,
			"type":"VEC2"
		},
		{
			"bufferView":15,
			"componentType":5123,
			"count":2556,
			"type":"SCALAR"
		},
		{
			"bufferView":16,
			"componentType":5126,
			"count":1745,
			"max":[
				0.07716524600982666,
				0.19117051362991333,
				0.07814037799835205
			],
			"min":[
				-0.07744567096233368,
				0.0004808327939826995,
				-0.07840784639120102
			],
			"type":"VEC3"
		},
		{
			"bufferView":17,
			"componentType":5126,
			"count":1745,
			"type":"VEC3"
		},
		{
			"bufferView":18,
			"componentType":5126,
			"count":1745,
			"type":"VEC2"
		},
		{
			"bufferView":19,
			"componentType":5123,
			"count":2697,
			"type":"SCALAR"
		},
		{
			"bufferView":20,
			"componentType":5126,
			"count":1487,
			"max":[
				0.081298828125,
				0.19189453125,
				0.083984375
			],
			"min":[
				-0.081298828125,
				-6.903663597768173e-05,
				-0.083984375
			],
			"type":"VEC3"
		},
		{
			"bufferView":21,
			"componentType":5126,
			"count":1487,
			"type":"VEC3"
		},
		{
			"bufferView":22,
			"componentType":5126,
			"count":1487,
			"type":"VEC2"
		},
		{
			"bufferView":23,
			"componentType":5123,
			"count":2697,
			"type":"SCALAR"
		},
		{
			"bufferView":24,
			"componentType":5126,
			"count":1701,
			"max":[
				0.09152579307556152,
				0.1280713975429535,
				0.09195967018604279
			],
			"min":[
				-0.09106007218360901,
				0.001067846897058189,
				-0.09212042391300201
			],
			"type":"VEC3"
		},
		{
			"bufferView":25,
			"componentType":5126,
			"count":1701,
			"type":"VEC3"
		},
		{
			"bufferView":26,
			"componentType":5126,
			"count":1701,
			"type":"VEC2"
		},
		{
			"bufferView":27,
			"componentType":5123,
			"count":2496,
			"type":"SCALAR"
		},
		{
			"bufferView":28,
			"componentType":5126,
			"count":1931,
			"max":[
				0.1649996042251587,
				0.16654807329177856,
				0.10024386644363403
			],
			"min":[
				-0.094482421875,
				0.0007499338244087994,
				-0.0876464918255806
			],
			"type":"VEC3"
		},
		{
			"bufferView":29,
			"componentType":5126,
			"count":1931,
			"type":"VEC3"
		},
		{
			"bufferView":30,
			"componentType":5126,
			"count":1931,
			"type":"VEC2"
		},
		{
			"bufferView":31,
			"componentType":5123,
			"count":2658,
			"type":"SCALAR"
		},
		{
			"bufferView":32,
			"componentType":5126,
			"count":1961,
			"max":[
				0.09435396641492844,
				0.16285523772239685,
				0.09761614352464676
			],
			"min":[
				-0.0976506695151329,
				-0.010780333541333675,
				-0.10161648690700531
			],
			"type":"VEC3"
		},
		{
			"bufferView":33,
			"componentType":5126,
			"count":1961,
			"type":"VEC3"
		},
		{
			"bufferView":34,
			"componentType":5126,
			"count":1961,
			"type":"VEC2"
		},
		{
			"bufferView":35,
			"componentType":5123,
			"count":2697,
			"type":"SCALAR"
		}
	],
	"bufferViews":[
		{
			"buffer":0,
			"byteLength":20172,
			"byteOffset":0,
			"target":34962
		},
		{
			"buffer":0,
			"byteLength":20172,
			"byteOffset":20172,
			"target":34962
		},
		{
			"buffer":0,
			"byteLength":13448,
			"byteOffset":40344,
			"target":34962
		},
		{
			"buffer":0,
			"byteLength":5016,
			"byteOffset":53792,
			"target":34963
		},
		{
			"buffer":0,
			"byteLength":23736,
			"byteOffset":58808,
			"target":34962
		},
		{
			"buffer":0,
			"byteLength":23736,
			"byteOffset":82544,
			"target":34962
		},
		{
			"buffer":0,
			"byteLength":15824,
			"byteOffset":106280,
			"target":34962
		},
		{
			"buffer":0,
			"byteLength":5070,
			"byteOffset":122104,
			"target":34963
		},
		{
			"buffer":0,
			"byteLength":23808,
			"byteOffset":127176,
			"target":34962
		},
		{
			"buffer":0,
			"byteLength":23808,
			"byteOffset":150984,
			"target":34962
		},
		{
			"buffer":0,
			"byteLength":15872,
			"byteOffset":174792,
			"target":34962
		},
		{
			"buffer":0,
			"byteLength":5388,
			"byteOffset":190664,
			"target":34963
		},
		{
			"buffer":0,
			"byteLength":18816,
			"byteOffset":196052,
			"target":34962
		},
		{
			"buffer":0,
			"byteLength":18816,
			"byteOffset":214868,
			"target":34962
		},
		{
			"buffer":0,
			"byteLength":12544,
			"byteOffset":233684,
			"target":34962
		},
		{
			"buffer":0,
			"byteLength":5112,
			"byteOffset":246228,
			"target":34963
		},
		{
			"buffer":0,
			"byteLength":20940,
			"byteOffset":251340,
			"target":34962
		},
		{
			"buffer":0,
			"byteLength":20940,
			"byteOffset":272280,
			"target":34962
		},
		{
			"buffer":0,
			"byteLength":13960,
			"byteOffset":293220,
			"target":34962
		},
		{
			"buffer":0,
			"byteLength":5394,
			"byteOffset":307180,
			"target":34963
		},
		{
			"buffer":0,
			"byteLength":17844,
			"byteOffset":312576,
			"target":34962
		},
		{
			"buffer":0,
			"byteLength":17844,
			"byteOffset":330420,
			"target":34962
		},
		{
			"buffer":0,
			"byteLength":11896,
			"byteOffset":348264,
			"target":34962
		},
		{
			"buffer":0,
			"byteLength":5394,
			"byteOffset":360160,
			"target":34963
		},
		{
			"buffer":0,
			"byteLength":20412,
			"byteOffset":365556,
			"target":34962
		},
		{
			"buffer":0,
			"byteLength":20412,
			"byteOffset":385968,
			"target":34962
		},
		{
			"buffer":0,
			"byteLength":13608,
			"byteOffset":406380,
			"target":34962
		},
		{
			"buffer":0,
			"byteLength":4992,
			"byteOffset":419988,
			"target":34963
		},
		{
			"buffer":0,
			"byteLength":23172,
			"byteOffset":424980,
			"target":34962
		},
		{
			"buffer":0,
			"byteLength":23172,
			"byteOffset":448152,
			"target":34962
		},
		{
			"buffer":0,
			"byteLength":15448,
			"byteOffset":471324,
			"target":34962
		},
		{
			"buffer":0,
			"byteLength":5316,
			"byteOffset":486772,
			"target":34963
		},
		{
			"buffer":0,
			"byteLength":23532,
			"byteOffset":492088,
			"target":34962
		},
		{
			"buffer":0,
			"byteLength":23532,
			"byteOffset":515620,
			"target":34962
		},
		{
			"buffer":0,
			"byteLength":15688,
			"byteOffset":539152,
			"target":34962
		},
		{
			"buffer":0,
			"byteLength":5394,
			"byteOffset":554840,
			"target":34963
		}
	],
	"samplers":[
		{
			"magFilter":9729,
			"minFilter":9987
		}
	],
	"buffers":[
		{
			"byteLength":560236,
			"uri":"tri900.bin"
		}
	]
}
