{
	"asset":{
		"generator":"Khronos glTF Blender I/O v4.0.44",
		"version":"2.0"
	},
	"extensionsUsed":[
		"KHR_materials_specular"
	],
	"scene":0,
	"scenes":[
		{
			"name":"Scene",
			"nodes":[
				9
			]
		}
	],
	"nodes":[
		{
			"mesh":0,
			"name":"0:feather grass",
			"translation":[
				3.200000047683716,
				0,
				0
			]
		},
		{
			"mesh":1,
			"name":"1:broad-blade grass",
			"translation":[
				3.200000047683716,
				0,
				0
			]
		},
		{
			"mesh":2,
			"name":"2:golden wheatgrass",
			"translation":[
				3.200000047683716,
				0,
				0
			]
		},
		{
			"mesh":3,
			"name":"3:silver plume grass",
			"translation":[
				3.200000047683716,
				0,
				0
			]
		},
		{
			"mesh":4,
			"name":"4:tall seed grass",
			"translation":[
				3.200000047683716,
				0,
				0
			]
		},
		{
			"mesh":5,
			"name":"5:oat grass",
			"translation":[
				3.200000047683716,
				0,
				0
			]
		},
		{
			"mesh":6,
			"name":"6:purple plume grass",
			"translation":[
				3.200000047683716,
				0,
				0
			]
		},
		{
			"mesh":7,
			"name":"7:timothy grass",
			"translation":[
				3.200000047683716,
				0,
				0
			]
		},
		{
			"mesh":8,
			"name":"8:mixed plume grass",
			"translation":[
				3.200000047683716,
				0,
				0
			]
		},
		{
			"children":[
				0,
				1,
				2,
				3,
				4,
				5,
				6,
				7,
				8
			],
			"name":"RootNode"
		}
	],
	"materials":[
		{
			"doubleSided":true,
			"extensions":{
				"KHR_materials_specular":{
					"specularColorFactor":[
						0.800000011920929,
						0.800000011920929,
						0.800000011920929
					]
				}
			},
			"name":"tripo_607ecce4_50e1_4dd3_b539_165fb1628fc1",
			"pbrMetallicRoughness":{
				"baseColorFactor":[
					0.800000011920929,
					0.800000011920929,
					0.800000011920929,
					1
				],
				"baseColorTexture":{
					"index":0
				},
				"metallicFactor":0,
				"roughnessFactor":0.5
			}
		}
	],
	"meshes":[
		{
			"name":"tripo_607ecce4_50e1_4dd3_b539_165fb1628fc1.001",
			"primitives":[
				{
					"attributes":{
						"POSITION":0,
						"NORMAL":1,
						"TEXCOORD_0":2
					},
					"indices":3,
					"material":0
				}
			]
		},
		{
			"name":"tripo_607ecce4_50e1_4dd3_b539_165fb1628fc1.002",
			"primitives":[
				{
					"attributes":{
						"POSITION":4,
						"NORMAL":5,
						"TEXCOORD_0":6
					},
					"indices":7,
					"material":0
				}
			]
		},
		{
			"name":"tripo_607ecce4_50e1_4dd3_b539_165fb1628fc1.003",
			"primitives":[
				{
					"attributes":{
						"POSITION":8,
						"NORMAL":9,
						"TEXCOORD_0":10
					},
					"indices":11,
					"material":0
				}
			]
		},
		{
			"name":"tripo_607ecce4_50e1_4dd3_b539_165fb1628fc1.004",
			"primitives":[
				{
					"attributes":{
						"POSITION":12,
						"NORMAL":13,
						"TEXCOORD_0":14
					},
					"indices":15,
					"material":0
				}
			]
		},
		{
			"name":"tripo_607ecce4_50e1_4dd3_b539_165fb1628fc1.005",
			"primitives":[
				{
					"attributes":{
						"POSITION":16,
						"NORMAL":17,
						"TEXCOORD_0":18
					},
					"indices":19,
					"material":0
				}
			]
		},
		{
			"name":"tripo_607ecce4_50e1_4dd3_b539_165fb1628fc1.006",
			"primitives":[
				{
					"attributes":{
						"POSITION":20,
						"NORMAL":21,
						"TEXCOORD_0":22
					},
					"indices":23,
					"material":0
				}
			]
		},
		{
			"name":"tripo_607ecce4_50e1_4dd3_b539_165fb1628fc1.007",
			"primitives":[
				{
					"attributes":{
						"POSITION":24,
						"NORMAL":25,
						"TEXCOORD_0":26
					},
					"indices":27,
					"material":0
				}
			]
		},
		{
			"name":"tripo_607ecce4_50e1_4dd3_b539_165fb1628fc1.008",
			"primitives":[
				{
					"attributes":{
						"POSITION":28,
						"NORMAL":29,
						"TEXCOORD_0":30
					},
					"indices":31,
					"material":0
				}
			]
		},
		{
			"name":"tripo_607ecce4_50e1_4dd3_b539_165fb1628fc1.009",
			"primitives":[
				{
					"attributes":{
						"POSITION":32,
						"NORMAL":33,
						"TEXCOORD_0":34
					},
					"indices":35,
					"material":0
				}
			]
		}
	],
	"textures":[
		{
			"sampler":0,
			"source":0
		}
	],
	"images":[
		{
			"mimeType":"image/jpeg",
			"name":"longGrass",
			"uri":"longGrass.jpg"
		}
	],
	"accessors":[
		{
			"bufferView":0,
			"componentType":5126,
			"count":541,
			"max":[
				0.11219492554664612,
				0.2961915135383606,
				0.13662302494049072
			],
			"min":[
				-0.11967680603265762,
				0.0007808398804627359,
				-0.1235102117061615
			],
			"type":"VEC3"
		},
		{
			"bufferView":1,
			"componentType":5126,
			"count":541,
			"type":"VEC3"
		},
		{
			"bufferView":2,
			"componentType":5126,
			"count":541,
			"type":"VEC2"
		},
		{
			"bufferView":3,
			"componentType":5123,
			"count":891,
			"type":"SCALAR"
		},
		{
			"bufferView":4,
			"componentType":5126,
			"count":521,
			"max":[
				0.11818215250968933,
				0.2776128649711609,
				0.13883966207504272
			],
			"min":[
				-0.12218918651342392,
				-0.0024835739750415087,
				-0.13270710408687592
			],
			"type":"VEC3"
		},
		{
			"bufferView":5,
			"componentType":5126,
			"count":521,
			"type":"VEC3"
		},
		{
			"bufferView":6,
			"componentType":5126,
			"count":521,
			"type":"VEC2"
		},
		{
			"bufferView":7,
			"componentType":5123,
			"count":900,
			"type":"SCALAR"
		},
		{
			"bufferView":8,
			"componentType":5126,
			"count":505,
			"max":[
				0.10987138003110886,
				0.30314335227012634,
				0.10040341317653656
			],
			"min":[
				-0.11106356978416443,
				0,
				-0.10124050080776215
			],
			"type":"VEC3"
		},
		{
			"bufferView":9,
			"componentType":5126,
			"count":505,
			"type":"VEC3"
		},
		{
			"bufferView":10,
			"componentType":5126,
			"count":505,
			"type":"VEC2"
		},
		{
			"bufferView":11,
			"componentType":5123,
			"count":882,
			"type":"SCALAR"
		},
		{
			"bufferView":12,
			"componentType":5126,
			"count":540,
			"max":[
				0.10851917415857315,
				0.2909884750843048,
				0.152745321393013
			],
			"min":[
				-0.12152207642793655,
				-0.005876953713595867,
				-0.14232559502124786
			],
			"type":"VEC3"
		},
		{
			"bufferView":13,
			"componentType":5126,
			"count":540,
			"type":"VEC3"
		},
		{
			"bufferView":14,
			"componentType":5126,
			"count":540,
			"type":"VEC2"
		},
		{
			"bufferView":15,
			"componentType":5123,
			"count":900,
			"type":"SCALAR"
		},
		{
			"bufferView":16,
			"componentType":5126,
			"count":510,
			"max":[
				0.10316060483455658,
				0.3042062222957611,
				0.1435793787240982
			],
			"min":[
				-0.10530512034893036,
				-0.002965385327115655,
				-0.1361735612154007
			],
			"type":"VEC3"
		},
		{
			"bufferView":17,
			"componentType":5126,
			"count":510,
			"type":"VEC3"
		},
		{
			"bufferView":18,
			"componentType":5126,
			"count":510,
			"type":"VEC2"
		},
		{
			"bufferView":19,
			"componentType":5123,
			"count":900,
			"type":"SCALAR"
		},
		{
			"bufferView":20,
			"componentType":5126,
			"count":489,
			"max":[
				0.1105956956744194,
				0.30293387174606323,
				0.11405876278877258
			],
			"min":[
				-0.11065548658370972,
				0,
				-0.10961911827325821
			],
			"type":"VEC3"
		},
		{
			"bufferView":21,
			"componentType":5126,
			"count":489,
			"type":"VEC3"
		},
		{
			"bufferView":22,
			"componentType":5126,
			"count":489,
			"type":"VEC2"
		},
		{
			"bufferView":23,
			"componentType":5123,
			"count":840,
			"type":"SCALAR"
		},
		{
			"bufferView":24,
			"componentType":5126,
			"count":546,
			"max":[
				0.1080135703086853,
				0.3052590489387512,
				0.1546439826488495
			],
			"min":[
				-0.11866303533315659,
				-0.010519726201891899,
				-0.13142791390419006
			],
			"type":"VEC3"
		},
		{
			"bufferView":25,
			"componentType":5126,
			"count":546,
			"type":"VEC3"
		},
		{
			"bufferView":26,
			"componentType":5126,
			"count":546,
			"type":"VEC2"
		},
		{
			"bufferView":27,
			"componentType":5123,
			"count":900,
			"type":"SCALAR"
		},
		{
			"bufferView":28,
			"componentType":5126,
			"count":455,
			"max":[
				0.121337890625,
				0.2983798086643219,
				0.1341858208179474
			],
			"min":[
				-0.120361328125,
				0,
				-0.134765625
			],
			"type":"VEC3"
		},
		{
			"bufferView":29,
			"componentType":5126,
			"count":455,
			"type":"VEC3"
		},
		{
			"bufferView":30,
			"componentType":5126,
			"count":455,
			"type":"VEC2"
		},
		{
			"bufferView":31,
			"componentType":5123,
			"count":900,
			"type":"SCALAR"
		},
		{
			"bufferView":32,
			"componentType":5126,
			"count":565,
			"max":[
				0.12463931739330292,
				0.31242847442626953,
				0.13925544917583466
			],
			"min":[
				-0.12523265182971954,
				-0.011240352876484394,
				-0.14449504017829895
			],
			"type":"VEC3"
		},
		{
			"bufferView":33,
			"componentType":5126,
			"count":565,
			"type":"VEC3"
		},
		{
			"bufferView":34,
			"componentType":5126,
			"count":565,
			"type":"VEC2"
		},
		{
			"bufferView":35,
			"componentType":5123,
			"count":900,
			"type":"SCALAR"
		}
	],
	"bufferViews":[
		{
			"buffer":0,
			"byteLength":6492,
			"byteOffset":0,
			"target":34962
		},
		{
			"buffer":0,
			"byteLength":6492,
			"byteOffset":6492,
			"target":34962
		},
		{
			"buffer":0,
			"byteLength":4328,
			"byteOffset":12984,
			"target":34962
		},
		{
			"buffer":0,
			"byteLength":1782,
			"byteOffset":17312,
			"target":34963
		},
		{
			"buffer":0,
			"byteLength":6252,
			"byteOffset":19096,
			"target":34962
		},
		{
			"buffer":0,
			"byteLength":6252,
			"byteOffset":25348,
			"target":34962
		},
		{
			"buffer":0,
			"byteLength":4168,
			"byteOffset":31600,
			"target":34962
		},
		{
			"buffer":0,
			"byteLength":1800,
			"byteOffset":35768,
			"target":34963
		},
		{
			"buffer":0,
			"byteLength":6060,
			"byteOffset":37568,
			"target":34962
		},
		{
			"buffer":0,
			"byteLength":6060,
			"byteOffset":43628,
			"target":34962
		},
		{
			"buffer":0,
			"byteLength":4040,
			"byteOffset":49688,
			"target":34962
		},
		{
			"buffer":0,
			"byteLength":1764,
			"byteOffset":53728,
			"target":34963
		},
		{
			"buffer":0,
			"byteLength":6480,
			"byteOffset":55492,
			"target":34962
		},
		{
			"buffer":0,
			"byteLength":6480,
			"byteOffset":61972,
			"target":34962
		},
		{
			"buffer":0,
			"byteLength":4320,
			"byteOffset":68452,
			"target":34962
		},
		{
			"buffer":0,
			"byteLength":1800,
			"byteOffset":72772,
			"target":34963
		},
		{
			"buffer":0,
			"byteLength":6120,
			"byteOffset":74572,
			"target":34962
		},
		{
			"buffer":0,
			"byteLength":6120,
			"byteOffset":80692,
			"target":34962
		},
		{
			"buffer":0,
			"byteLength":4080,
			"byteOffset":86812,
			"target":34962
		},
		{
			"buffer":0,
			"byteLength":1800,
			"byteOffset":90892,
			"target":34963
		},
		{
			"buffer":0,
			"byteLength":5868,
			"byteOffset":92692,
			"target":34962
		},
		{
			"buffer":0,
			"byteLength":5868,
			"byteOffset":98560,
			"target":34962
		},
		{
			"buffer":0,
			"byteLength":3912,
			"byteOffset":104428,
			"target":34962
		},
		{
			"buffer":0,
			"byteLength":1680,
			"byteOffset":108340,
			"target":34963
		},
		{
			"buffer":0,
			"byteLength":6552,
			"byteOffset":110020,
			"target":34962
		},
		{
			"buffer":0,
			"byteLength":6552,
			"byteOffset":116572,
			"target":34962
		},
		{
			"buffer":0,
			"byteLength":4368,
			"byteOffset":123124,
			"target":34962
		},
		{
			"buffer":0,
			"byteLength":1800,
			"byteOffset":127492,
			"target":34963
		},
		{
			"buffer":0,
			"byteLength":5460,
			"byteOffset":129292,
			"target":34962
		},
		{
			"buffer":0,
			"byteLength":5460,
			"byteOffset":134752,
			"target":34962
		},
		{
			"buffer":0,
			"byteLength":3640,
			"byteOffset":140212,
			"target":34962
		},
		{
			"buffer":0,
			"byteLength":1800,
			"byteOffset":143852,
			"target":34963
		},
		{
			"buffer":0,
			"byteLength":6780,
			"byteOffset":145652,
			"target":34962
		},
		{
			"buffer":0,
			"byteLength":6780,
			"byteOffset":152432,
			"target":34962
		},
		{
			"buffer":0,
			"byteLength":4520,
			"byteOffset":159212,
			"target":34962
		},
		{
			"buffer":0,
			"byteLength":1800,
			"byteOffset":163732,
			"target":34963
		}
	],
	"samplers":[
		{
			"magFilter":9729,
			"minFilter":9987
		}
	],
	"buffers":[
		{
			"byteLength":165532,
			"uri":"tri300.bin"
		}
	]
}
