{
	"asset":{
		"generator":"Khronos glTF Blender I/O v4.0.44",
		"version":"2.0"
	},
	"extensionsUsed":[
		"KHR_materials_specular"
	],
	"scene":0,
	"scenes":[
		{
			"name":"Scene",
			"nodes":[
				9
			]
		}
	],
	"nodes":[
		{
			"mesh":0,
			"name":"0:feather grass",
			"translation":[
				3.200000047683716,
				0,
				0
			]
		},
		{
			"mesh":1,
			"name":"1:broad-blade grass",
			"translation":[
				3.200000047683716,
				0,
				0
			]
		},
		{
			"mesh":2,
			"name":"2:golden wheatgrass",
			"translation":[
				3.200000047683716,
				0,
				0
			]
		},
		{
			"mesh":3,
			"name":"3:silver plume grass",
			"translation":[
				3.200000047683716,
				0,
				0
			]
		},
		{
			"mesh":4,
			"name":"4:tall seed grass",
			"translation":[
				3.200000047683716,
				0,
				0
			]
		},
		{
			"mesh":5,
			"name":"5:oat grass",
			"translation":[
				3.200000047683716,
				0,
				0
			]
		},
		{
			"mesh":6,
			"name":"6:purple plume grass",
			"translation":[
				3.200000047683716,
				0,
				0
			]
		},
		{
			"mesh":7,
			"name":"7:timothy grass",
			"translation":[
				3.200000047683716,
				0,
				0
			]
		},
		{
			"mesh":8,
			"name":"8:mixed plume grass",
			"translation":[
				3.200000047683716,
				0,
				0
			]
		},
		{
			"children":[
				0,
				1,
				2,
				3,
				4,
				5,
				6,
				7,
				8
			],
			"name":"RootNode"
		}
	],
	"materials":[
		{
			"doubleSided":true,
			"extensions":{
				"KHR_materials_specular":{
					"specularColorFactor":[
						0.800000011920929,
						0.800000011920929,
						0.800000011920929
					]
				}
			},
			"name":"tripo_607ecce4_50e1_4dd3_b539_165fb1628fc1",
			"pbrMetallicRoughness":{
				"baseColorFactor":[
					0.800000011920929,
					0.800000011920929,
					0.800000011920929,
					1
				],
				"baseColorTexture":{
					"index":0
				},
				"metallicFactor":0,
				"roughnessFactor":0.5
			}
		}
	],
	"meshes":[
		{
			"name":"tripo_607ecce4_50e1_4dd3_b539_165fb1628fc1.001",
			"primitives":[
				{
					"attributes":{
						"POSITION":0,
						"NORMAL":1,
						"TEXCOORD_0":2
					},
					"indices":3,
					"material":0
				}
			]
		},
		{
			"name":"tripo_607ecce4_50e1_4dd3_b539_165fb1628fc1.002",
			"primitives":[
				{
					"attributes":{
						"POSITION":4,
						"NORMAL":5,
						"TEXCOORD_0":6
					},
					"indices":7,
					"material":0
				}
			]
		},
		{
			"name":"tripo_607ecce4_50e1_4dd3_b539_165fb1628fc1.003",
			"primitives":[
				{
					"attributes":{
						"POSITION":8,
						"NORMAL":9,
						"TEXCOORD_0":10
					},
					"indices":11,
					"material":0
				}
			]
		},
		{
			"name":"tripo_607ecce4_50e1_4dd3_b539_165fb1628fc1.004",
			"primitives":[
				{
					"attributes":{
						"POSITION":12,
						"NORMAL":13,
						"TEXCOORD_0":14
					},
					"indices":15,
					"material":0
				}
			]
		},
		{
			"name":"tripo_607ecce4_50e1_4dd3_b539_165fb1628fc1.005",
			"primitives":[
				{
					"attributes":{
						"POSITION":16,
						"NORMAL":17,
						"TEXCOORD_0":18
					},
					"indices":19,
					"material":0
				}
			]
		},
		{
			"name":"tripo_607ecce4_50e1_4dd3_b539_165fb1628fc1.006",
			"primitives":[
				{
					"attributes":{
						"POSITION":20,
						"NORMAL":21,
						"TEXCOORD_0":22
					},
					"indices":23,
					"material":0
				}
			]
		},
		{
			"name":"tripo_607ecce4_50e1_4dd3_b539_165fb1628fc1.007",
			"primitives":[
				{
					"attributes":{
						"POSITION":24,
						"NORMAL":25,
						"TEXCOORD_0":26
					},
					"indices":27,
					"material":0
				}
			]
		},
		{
			"name":"tripo_607ecce4_50e1_4dd3_b539_165fb1628fc1.008",
			"primitives":[
				{
					"attributes":{
						"POSITION":28,
						"NORMAL":29,
						"TEXCOORD_0":30
					},
					"indices":31,
					"material":0
				}
			]
		},
		{
			"name":"tripo_607ecce4_50e1_4dd3_b539_165fb1628fc1.009",
			"primitives":[
				{
					"attributes":{
						"POSITION":32,
						"NORMAL":33,
						"TEXCOORD_0":34
					},
					"indices":35,
					"material":0
				}
			]
		}
	],
	"textures":[
		{
			"sampler":0,
			"source":0
		}
	],
	"images":[
		{
			"mimeType":"image/jpeg",
			"name":"longGrass",
			"uri":"longGrass.jpg"
		}
	],
	"accessors":[
		{
			"bufferView":0,
			"componentType":5126,
			"count":942,
			"max":[
				0.11616858094930649,
				0.2984370291233063,
				0.13623046875
			],
			"min":[
				-0.11967680603265762,
				0,
				-0.13623046875
			],
			"type":"VEC3"
		},
		{
			"bufferView":1,
			"componentType":5126,
			"count":942,
			"type":"VEC3"
		},
		{
			"bufferView":2,
			"componentType":5126,
			"count":942,
			"type":"VEC2"
		},
		{
			"bufferView":3,
			"componentType":5123,
			"count":1794,
			"type":"SCALAR"
		},
		{
			"bufferView":4,
			"componentType":5126,
			"count":864,
			"max":[
				0.12255859375,
				0.27783203125,
				0.135986328125
			],
			"min":[
				-0.12255859375,
				0,
				-0.13475480675697327
			],
			"type":"VEC3"
		},
		{
			"bufferView":5,
			"componentType":5126,
			"count":864,
			"type":"VEC3"
		},
		{
			"bufferView":6,
			"componentType":5126,
			"count":864,
			"type":"VEC2"
		},
		{
			"bufferView":7,
			"componentType":5123,
			"count":1800,
			"type":"SCALAR"
		},
		{
			"bufferView":8,
			"componentType":5126,
			"count":860,
			"max":[
				0.114013671875,
				0.3032432198524475,
				0.0983886644244194
			],
			"min":[
				-0.114013671875,
				0,
				-0.0983886644244194
			],
			"type":"VEC3"
		},
		{
			"bufferView":9,
			"componentType":5126,
			"count":860,
			"type":"VEC3"
		},
		{
			"bufferView":10,
			"componentType":5126,
			"count":860,
			"type":"VEC2"
		},
		{
			"bufferView":11,
			"componentType":5123,
			"count":1782,
			"type":"SCALAR"
		},
		{
			"bufferView":12,
			"componentType":5126,
			"count":1006,
			"max":[
				0.11619511246681213,
				0.2927338480949402,
				0.15061642229557037
			],
			"min":[
				-0.12318384647369385,
				0,
				-0.15283203125
			],
			"type":"VEC3"
		},
		{
			"bufferView":13,
			"componentType":5126,
			"count":1006,
			"type":"VEC3"
		},
		{
			"bufferView":14,
			"componentType":5126,
			"count":1006,
			"type":"VEC2"
		},
		{
			"bufferView":15,
			"componentType":5123,
			"count":1800,
			"type":"SCALAR"
		},
		{
			"bufferView":16,
			"componentType":5126,
			"count":853,
			"max":[
				0.103759765625,
				0.30419921875,
				0.1416015625
			],
			"min":[
				-0.103759765625,
				0,
				-0.1416015625
			],
			"type":"VEC3"
		},
		{
			"bufferView":17,
			"componentType":5126,
			"count":853,
			"type":"VEC3"
		},
		{
			"bufferView":18,
			"componentType":5126,
			"count":853,
			"type":"VEC2"
		},
		{
			"bufferView":19,
			"componentType":5123,
			"count":1800,
			"type":"SCALAR"
		},
		{
			"bufferView":20,
			"componentType":5126,
			"count":958,
			"max":[
				0.1105956956744194,
				0.302734375,
				0.110595703125
			],
			"min":[
				-0.10970496386289597,
				0,
				-0.110595703125
			],
			"type":"VEC3"
		},
		{
			"bufferView":21,
			"componentType":5126,
			"count":958,
			"type":"VEC3"
		},
		{
			"bufferView":22,
			"componentType":5126,
			"count":958,
			"type":"VEC2"
		},
		{
			"bufferView":23,
			"componentType":5123,
			"count":1794,
			"type":"SCALAR"
		},
		{
			"bufferView":24,
			"componentType":5126,
			"count":921,
			"max":[
				0.120361328125,
				0.3046875,
				0.149658203125
			],
			"min":[
				-0.120361328125,
				-0.0007679482805542648,
				-0.149658203125
			],
			"type":"VEC3"
		},
		{
			"bufferView":25,
			"componentType":5126,
			"count":921,
			"type":"VEC3"
		},
		{
			"bufferView":26,
			"componentType":5126,
			"count":921,
			"type":"VEC2"
		},
		{
			"bufferView":27,
			"componentType":5123,
			"count":1800,
			"type":"SCALAR"
		},
		{
			"bufferView":28,
			"componentType":5126,
			"count":759,
			"max":[
				0.121337890625,
				0.29931640625,
				0.134765625
			],
			"min":[
				-0.121337890625,
				0,
				-0.134765625
			],
			"type":"VEC3"
		},
		{
			"bufferView":29,
			"componentType":5126,
			"count":759,
			"type":"VEC3"
		},
		{
			"bufferView":30,
			"componentType":5126,
			"count":759,
			"type":"VEC2"
		},
		{
			"bufferView":31,
			"componentType":5123,
			"count":1761,
			"type":"SCALAR"
		},
		{
			"bufferView":32,
			"componentType":5126,
			"count":990,
			"max":[
				0.12939453125,
				0.3122447431087494,
				0.1586523950099945
			],
			"min":[
				-0.1296541392803192,
				0,
				-0.158447265625
			],
			"type":"VEC3"
		},
		{
			"bufferView":33,
			"componentType":5126,
			"count":990,
			"type":"VEC3"
		},
		{
			"bufferView":34,
			"componentType":5126,
			"count":990,
			"type":"VEC2"
		},
		{
			"bufferView":35,
			"componentType":5123,
			"count":1800,
			"type":"SCALAR"
		}
	],
	"bufferViews":[
		{
			"buffer":0,
			"byteLength":11304,
			"byteOffset":0,
			"target":34962
		},
		{
			"buffer":0,
			"byteLength":11304,
			"byteOffset":11304,
			"target":34962
		},
		{
			"buffer":0,
			"byteLength":7536,
			"byteOffset":22608,
			"target":34962
		},
		{
			"buffer":0,
			"byteLength":3588,
			"byteOffset":30144,
			"target":34963
		},
		{
			"buffer":0,
			"byteLength":10368,
			"byteOffset":33732,
			"target":34962
		},
		{
			"buffer":0,
			"byteLength":10368,
			"byteOffset":44100,
			"target":34962
		},
		{
			"buffer":0,
			"byteLength":6912,
			"byteOffset":54468,
			"target":34962
		},
		{
			"buffer":0,
			"byteLength":3600,
			"byteOffset":61380,
			"target":34963
		},
		{
			"buffer":0,
			"byteLength":10320,
			"byteOffset":64980,
			"target":34962
		},
		{
			"buffer":0,
			"byteLength":10320,
			"byteOffset":75300,
			"target":34962
		},
		{
			"buffer":0,
			"byteLength":6880,
			"byteOffset":85620,
			"target":34962
		},
		{
			"buffer":0,
			"byteLength":3564,
			"byteOffset":92500,
			"target":34963
		},
		{
			"buffer":0,
			"byteLength":12072,
			"byteOffset":96064,
			"target":34962
		},
		{
			"buffer":0,
			"byteLength":12072,
			"byteOffset":108136,
			"target":34962
		},
		{
			"buffer":0,
			"byteLength":8048,
			"byteOffset":120208,
			"target":34962
		},
		{
			"buffer":0,
			"byteLength":3600,
			"byteOffset":128256,
			"target":34963
		},
		{
			"buffer":0,
			"byteLength":10236,
			"byteOffset":131856,
			"target":34962
		},
		{
			"buffer":0,
			"byteLength":10236,
			"byteOffset":142092,
			"target":34962
		},
		{
			"buffer":0,
			"byteLength":6824,
			"byteOffset":152328,
			"target":34962
		},
		{
			"buffer":0,
			"byteLength":3600,
			"byteOffset":159152,
			"target":34963
		},
		{
			"buffer":0,
			"byteLength":11496,
			"byteOffset":162752,
			"target":34962
		},
		{
			"buffer":0,
			"byteLength":11496,
			"byteOffset":174248,
			"target":34962
		},
		{
			"buffer":0,
			"byteLength":7664,
			"byteOffset":185744,
			"target":34962
		},
		{
			"buffer":0,
			"byteLength":3588,
			"byteOffset":193408,
			"target":34963
		},
		{
			"buffer":0,
			"byteLength":11052,
			"byteOffset":196996,
			"target":34962
		},
		{
			"buffer":0,
			"byteLength":11052,
			"byteOffset":208048,
			"target":34962
		},
		{
			"buffer":0,
			"byteLength":7368,
			"byteOffset":219100,
			"target":34962
		},
		{
			"buffer":0,
			"byteLength":3600,
			"byteOffset":226468,
			"target":34963
		},
		{
			"buffer":0,
			"byteLength":9108,
			"byteOffset":230068,
			"target":34962
		},
		{
			"buffer":0,
			"byteLength":9108,
			"byteOffset":239176,
			"target":34962
		},
		{
			"buffer":0,
			"byteLength":6072,
			"byteOffset":248284,
			"target":34962
		},
		{
			"buffer":0,
			"byteLength":3522,
			"byteOffset":254356,
			"target":34963
		},
		{
			"buffer":0,
			"byteLength":11880,
			"byteOffset":257880,
			"target":34962
		},
		{
			"buffer":0,
			"byteLength":11880,
			"byteOffset":269760,
			"target":34962
		},
		{
			"buffer":0,
			"byteLength":7920,
			"byteOffset":281640,
			"target":34962
		},
		{
			"buffer":0,
			"byteLength":3600,
			"byteOffset":289560,
			"target":34963
		}
	],
	"samplers":[
		{
			"magFilter":9729,
			"minFilter":9987
		}
	],
	"buffers":[
		{
			"byteLength":293160,
			"uri":"tri600.bin"
		}
	]
}
