{
	"asset":{
		"generator":"Khronos glTF Blender I/O v4.0.44",
		"version":"2.0"
	},
	"extensionsUsed":[
		"KHR_materials_specular"
	],
	"scene":0,
	"scenes":[
		{
			"name":"Scene",
			"nodes":[
				9
			]
		}
	],
	"nodes":[
		{
			"mesh":0,
			"name":"0:feather grass",
			"translation":[
				3.200000047683716,
				0,
				0
			]
		},
		{
			"mesh":1,
			"name":"1:broad-blade grass",
			"translation":[
				3.200000047683716,
				0,
				0
			]
		},
		{
			"mesh":2,
			"name":"2:golden wheatgrass",
			"translation":[
				3.200000047683716,
				0,
				0
			]
		},
		{
			"mesh":3,
			"name":"3:silver plume grass",
			"translation":[
				3.200000047683716,
				0,
				0
			]
		},
		{
			"mesh":4,
			"name":"4:tall seed grass",
			"translation":[
				3.200000047683716,
				0,
				0
			]
		},
		{
			"mesh":5,
			"name":"5:oat grass",
			"translation":[
				3.200000047683716,
				0,
				0
			]
		},
		{
			"mesh":6,
			"name":"6:purple plume grass",
			"translation":[
				3.200000047683716,
				0,
				0
			]
		},
		{
			"mesh":7,
			"name":"7:timothy grass",
			"translation":[
				3.200000047683716,
				0,
				0
			]
		},
		{
			"mesh":8,
			"name":"8:mixed plume grass",
			"translation":[
				3.200000047683716,
				0,
				0
			]
		},
		{
			"children":[
				0,
				1,
				2,
				3,
				4,
				5,
				6,
				7,
				8
			],
			"name":"RootNode"
		}
	],
	"materials":[
		{
			"doubleSided":true,
			"extensions":{
				"KHR_materials_specular":{
					"specularColorFactor":[
						0.800000011920929,
						0.800000011920929,
						0.800000011920929
					]
				}
			},
			"name":"tripo_607ecce4_50e1_4dd3_b539_165fb1628fc1",
			"pbrMetallicRoughness":{
				"baseColorFactor":[
					0.800000011920929,
					0.800000011920929,
					0.800000011920929,
					1
				],
				"baseColorTexture":{
					"index":0
				},
				"metallicFactor":0,
				"roughnessFactor":0.5
			}
		}
	],
	"meshes":[
		{
			"name":"tripo_607ecce4_50e1_4dd3_b539_165fb1628fc1.001",
			"primitives":[
				{
					"attributes":{
						"POSITION":0,
						"NORMAL":1,
						"TEXCOORD_0":2
					},
					"indices":3,
					"material":0
				}
			]
		},
		{
			"name":"tripo_607ecce4_50e1_4dd3_b539_165fb1628fc1.002",
			"primitives":[
				{
					"attributes":{
						"POSITION":4,
						"NORMAL":5,
						"TEXCOORD_0":6
					},
					"indices":7,
					"material":0
				}
			]
		},
		{
			"name":"tripo_607ecce4_50e1_4dd3_b539_165fb1628fc1.003",
			"primitives":[
				{
					"attributes":{
						"POSITION":8,
						"NORMAL":9,
						"TEXCOORD_0":10
					},
					"indices":11,
					"material":0
				}
			]
		},
		{
			"name":"tripo_607ecce4_50e1_4dd3_b539_165fb1628fc1.004",
			"primitives":[
				{
					"attributes":{
						"POSITION":12,
						"NORMAL":13,
						"TEXCOORD_0":14
					},
					"indices":15,
					"material":0
				}
			]
		},
		{
			"name":"tripo_607ecce4_50e1_4dd3_b539_165fb1628fc1.005",
			"primitives":[
				{
					"attributes":{
						"POSITION":16,
						"NORMAL":17,
						"TEXCOORD_0":18
					},
					"indices":19,
					"material":0
				}
			]
		},
		{
			"name":"tripo_607ecce4_50e1_4dd3_b539_165fb1628fc1.006",
			"primitives":[
				{
					"attributes":{
						"POSITION":20,
						"NORMAL":21,
						"TEXCOORD_0":22
					},
					"indices":23,
					"material":0
				}
			]
		},
		{
			"name":"tripo_607ecce4_50e1_4dd3_b539_165fb1628fc1.007",
			"primitives":[
				{
					"attributes":{
						"POSITION":24,
						"NORMAL":25,
						"TEXCOORD_0":26
					},
					"indices":27,
					"material":0
				}
			]
		},
		{
			"name":"tripo_607ecce4_50e1_4dd3_b539_165fb1628fc1.008",
			"primitives":[
				{
					"attributes":{
						"POSITION":28,
						"NORMAL":29,
						"TEXCOORD_0":30
					},
					"indices":31,
					"material":0
				}
			]
		},
		{
			"name":"tripo_607ecce4_50e1_4dd3_b539_165fb1628fc1.009",
			"primitives":[
				{
					"attributes":{
						"POSITION":32,
						"NORMAL":33,
						"TEXCOORD_0":34
					},
					"indices":35,
					"material":0
				}
			]
		}
	],
	"textures":[
		{
			"sampler":0,
			"source":0
		}
	],
	"images":[
		{
			"mimeType":"image/jpeg",
			"name":"longGrass",
			"uri":"longGrass.jpg"
		}
	],
	"accessors":[
		{
			"bufferView":0,
			"componentType":5126,
			"count":1302,
			"max":[
				0.117919921875,
				0.29833984375,
				0.13623046875
			],
			"min":[
				-0.117919921875,
				0,
				-0.13623046875
			],
			"type":"VEC3"
		},
		{
			"bufferView":1,
			"componentType":5126,
			"count":1302,
			"type":"VEC3"
		},
		{
			"bufferView":2,
			"componentType":5126,
			"count":1302,
			"type":"VEC2"
		},
		{
			"bufferView":3,
			"componentType":5123,
			"count":2694,
			"type":"SCALAR"
		},
		{
			"bufferView":4,
			"componentType":5126,
			"count":1087,
			"max":[
				0.12255859375,
				0.27783203125,
				0.135986328125
			],
			"min":[
				-0.12255859375,
				0,
				-0.135986328125
			],
			"type":"VEC3"
		},
		{
			"bufferView":5,
			"componentType":5126,
			"count":1087,
			"type":"VEC3"
		},
		{
			"bufferView":6,
			"componentType":5126,
			"count":1087,
			"type":"VEC2"
		},
		{
			"bufferView":7,
			"componentType":5123,
			"count":2496,
			"type":"SCALAR"
		},
		{
			"bufferView":8,
			"componentType":5126,
			"count":1029,
			"max":[
				0.114013671875,
				0.3037109375,
				0.0983886644244194
			],
			"min":[
				-0.114013671875,
				0,
				-0.0983886644244194
			],
			"type":"VEC3"
		},
		{
			"bufferView":9,
			"componentType":5126,
			"count":1029,
			"type":"VEC3"
		},
		{
			"bufferView":10,
			"componentType":5126,
			"count":1029,
			"type":"VEC2"
		},
		{
			"bufferView":11,
			"componentType":5123,
			"count":2301,
			"type":"SCALAR"
		},
		{
			"bufferView":12,
			"componentType":5126,
			"count":1367,
			"max":[
				0.12562663853168488,
				0.29337459802627563,
				0.15283203125
			],
			"min":[
				-0.12619099020957947,
				0,
				-0.15283203125
			],
			"type":"VEC3"
		},
		{
			"bufferView":13,
			"componentType":5126,
			"count":1367,
			"type":"VEC3"
		},
		{
			"bufferView":14,
			"componentType":5126,
			"count":1367,
			"type":"VEC2"
		},
		{
			"bufferView":15,
			"componentType":5123,
			"count":2700,
			"type":"SCALAR"
		},
		{
			"bufferView":16,
			"componentType":5126,
			"count":1021,
			"max":[
				0.103759765625,
				0.30419921875,
				0.1416015625
			],
			"min":[
				-0.103759765625,
				0,
				-0.1416015625
			],
			"type":"VEC3"
		},
		{
			"bufferView":17,
			"componentType":5126,
			"count":1021,
			"type":"VEC3"
		},
		{
			"bufferView":18,
			"componentType":5126,
			"count":1021,
			"type":"VEC2"
		},
		{
			"bufferView":19,
			"componentType":5123,
			"count":2337,
			"type":"SCALAR"
		},
		{
			"bufferView":20,
			"componentType":5126,
			"count":1288,
			"max":[
				0.1105956956744194,
				0.302734375,
				0.110595703125
			],
			"min":[
				-0.1105956956744194,
				0,
				-0.110595703125
			],
			"type":"VEC3"
		},
		{
			"bufferView":21,
			"componentType":5126,
			"count":1288,
			"type":"VEC3"
		},
		{
			"bufferView":22,
			"componentType":5126,
			"count":1288,
			"type":"VEC2"
		},
		{
			"bufferView":23,
			"componentType":5123,
			"count":2697,
			"type":"SCALAR"
		},
		{
			"bufferView":24,
			"componentType":5126,
			"count":1227,
			"max":[
				0.120361328125,
				0.3046875,
				0.149658203125
			],
			"min":[
				-0.120361328125,
				0,
				-0.149658203125
			],
			"type":"VEC3"
		},
		{
			"bufferView":25,
			"componentType":5126,
			"count":1227,
			"type":"VEC3"
		},
		{
			"bufferView":26,
			"componentType":5126,
			"count":1227,
			"type":"VEC2"
		},
		{
			"bufferView":27,
			"componentType":5123,
			"count":2700,
			"type":"SCALAR"
		},
		{
			"bufferView":28,
			"componentType":5126,
			"count":759,
			"max":[
				0.121337890625,
				0.29931640625,
				0.134765625
			],
			"min":[
				-0.121337890625,
				0,
				-0.134765625
			],
			"type":"VEC3"
		},
		{
			"bufferView":29,
			"componentType":5126,
			"count":759,
			"type":"VEC3"
		},
		{
			"bufferView":30,
			"componentType":5126,
			"count":759,
			"type":"VEC2"
		},
		{
			"bufferView":31,
			"componentType":5123,
			"count":1761,
			"type":"SCALAR"
		},
		{
			"bufferView":32,
			"componentType":5126,
			"count":1323,
			"max":[
				0.12939453125,
				0.31201171875,
				0.1586523950099945
			],
			"min":[
				-0.1296541392803192,
				0,
				-0.158447265625
			],
			"type":"VEC3"
		},
		{
			"bufferView":33,
			"componentType":5126,
			"count":1323,
			"type":"VEC3"
		},
		{
			"bufferView":34,
			"componentType":5126,
			"count":1323,
			"type":"VEC2"
		},
		{
			"bufferView":35,
			"componentType":5123,
			"count":2700,
			"type":"SCALAR"
		}
	],
	"bufferViews":[
		{
			"buffer":0,
			"byteLength":15624,
			"byteOffset":0,
			"target":34962
		},
		{
			"buffer":0,
			"byteLength":15624,
			"byteOffset":15624,
			"target":34962
		},
		{
			"buffer":0,
			"byteLength":10416,
			"byteOffset":31248,
			"target":34962
		},
		{
			"buffer":0,
			"byteLength":5388,
			"byteOffset":41664,
			"target":34963
		},
		{
			"buffer":0,
			"byteLength":13044,
			"byteOffset":47052,
			"target":34962
		},
		{
			"buffer":0,
			"byteLength":13044,
			"byteOffset":60096,
			"target":34962
		},
		{
			"buffer":0,
			"byteLength":8696,
			"byteOffset":73140,
			"target":34962
		},
		{
			"buffer":0,
			"byteLength":4992,
			"byteOffset":81836,
			"target":34963
		},
		{
			"buffer":0,
			"byteLength":12348,
			"byteOffset":86828,
			"target":34962
		},
		{
			"buffer":0,
			"byteLength":12348,
			"byteOffset":99176,
			"target":34962
		},
		{
			"buffer":0,
			"byteLength":8232,
			"byteOffset":111524,
			"target":34962
		},
		{
			"buffer":0,
			"byteLength":4602,
			"byteOffset":119756,
			"target":34963
		},
		{
			"buffer":0,
			"byteLength":16404,
			"byteOffset":124360,
			"target":34962
		},
		{
			"buffer":0,
			"byteLength":16404,
			"byteOffset":140764,
			"target":34962
		},
		{
			"buffer":0,
			"byteLength":10936,
			"byteOffset":157168,
			"target":34962
		},
		{
			"buffer":0,
			"byteLength":5400,
			"byteOffset":168104,
			"target":34963
		},
		{
			"buffer":0,
			"byteLength":12252,
			"byteOffset":173504,
			"target":34962
		},
		{
			"buffer":0,
			"byteLength":12252,
			"byteOffset":185756,
			"target":34962
		},
		{
			"buffer":0,
			"byteLength":8168,
			"byteOffset":198008,
			"target":34962
		},
		{
			"buffer":0,
			"byteLength":4674,
			"byteOffset":206176,
			"target":34963
		},
		{
			"buffer":0,
			"byteLength":15456,
			"byteOffset":210852,
			"target":34962
		},
		{
			"buffer":0,
			"byteLength":15456,
			"byteOffset":226308,
			"target":34962
		},
		{
			"buffer":0,
			"byteLength":10304,
			"byteOffset":241764,
			"target":34962
		},
		{
			"buffer":0,
			"byteLength":5394,
			"byteOffset":252068,
			"target":34963
		},
		{
			"buffer":0,
			"byteLength":14724,
			"byteOffset":257464,
			"target":34962
		},
		{
			"buffer":0,
			"byteLength":14724,
			"byteOffset":272188,
			"target":34962
		},
		{
			"buffer":0,
			"byteLength":9816,
			"byteOffset":286912,
			"target":34962
		},
		{
			"buffer":0,
			"byteLength":5400,
			"byteOffset":296728,
			"target":34963
		},
		{
			"buffer":0,
			"byteLength":9108,
			"byteOffset":302128,
			"target":34962
		},
		{
			"buffer":0,
			"byteLength":9108,
			"byteOffset":311236,
			"target":34962
		},
		{
			"buffer":0,
			"byteLength":6072,
			"byteOffset":320344,
			"target":34962
		},
		{
			"buffer":0,
			"byteLength":3522,
			"byteOffset":326416,
			"target":34963
		},
		{
			"buffer":0,
			"byteLength":15876,
			"byteOffset":329940,
			"target":34962
		},
		{
			"buffer":0,
			"byteLength":15876,
			"byteOffset":345816,
			"target":34962
		},
		{
			"buffer":0,
			"byteLength":10584,
			"byteOffset":361692,
			"target":34962
		},
		{
			"buffer":0,
			"byteLength":5400,
			"byteOffset":372276,
			"target":34963
		}
	],
	"samplers":[
		{
			"magFilter":9729,
			"minFilter":9987
		}
	],
	"buffers":[
		{
			"byteLength":377676,
			"uri":"tri900.bin"
		}
	]
}
